<svg width="28" height="38" viewBox="0 0 28 38" fill="none" xmlns="http://www.w3.org/2000/svg">
<path d="M10.5714 36H17.4286M7.14286 24.1H20.8571M2 13.9C2 10.7439 3.26428 7.71711 5.51472 5.48543C7.76516 3.25375 10.8174 2 14 2C17.1826 2 20.2348 3.25375 22.4853 5.48543C24.7357 7.71711 26 10.7439 26 13.9C26.0011 15.816 25.5338 17.7038 24.6381 19.4015C24.2397 20.1567 23.7617 20.8643 23.2141 21.5133C21.8934 23.0784 20.6193 24.7642 20.1927 26.7671L19.928 28.01C19.805 28.814 19.3954 29.5477 18.7736 30.078C18.1518 30.6082 17.3589 30.8999 16.5389 30.9H11.4611C10.6411 30.8999 9.84819 30.6082 9.22638 30.078C8.60457 29.5477 8.19501 28.814 8.072 28.01L7.8077 26.7745C7.3807 24.7784 6.1121 23.0976 4.79537 21.5378C4.24352 20.884 3.76222 20.171 3.36141 19.4099C2.46583 17.7091 1.99873 15.8187 2 13.9Z" stroke="#121212" stroke-width="2.5" stroke-linecap="round" stroke-linejoin="round"/>
</svg>
