<svg width="31" height="36" viewBox="0 0 31 36" fill="none" xmlns="http://www.w3.org/2000/svg">
<g filter="url(#filter0_d_537_7075)">
<path d="M19.5363 27.2542L8.65406 16.4042C8.52489 16.275 8.43318 16.1351 8.37893 15.9844C8.32468 15.8337 8.29799 15.6722 8.29885 15.5C8.29885 15.3278 8.32554 15.1663 8.37893 15.0156C8.43232 14.8649 8.52403 14.725 8.65406 14.5958L19.5363 3.71356C19.8377 3.41217 20.2145 3.26147 20.6666 3.26147C21.1186 3.26147 21.5061 3.42293 21.8291 3.74585C22.152 4.06877 22.3134 4.4455 22.3134 4.87606C22.3134 5.30661 22.152 5.68335 21.8291 6.00627L12.3353 15.5L21.8291 24.9938C22.1304 25.2952 22.2811 25.6667 22.2811 26.1085C22.2811 26.5502 22.1197 26.9321 21.7968 27.2542C21.4738 27.5771 21.0971 27.7386 20.6666 27.7386C20.236 27.7386 19.8593 27.5771 19.5363 27.2542Z" fill="#F9F9F9"/>
</g>
<defs>
<filter id="filter0_d_537_7075" x="-4" y="0" width="39" height="39" filterUnits="userSpaceOnUse" color-interpolation-filters="sRGB">
<feFlood flood-opacity="0" result="BackgroundImageFix"/>
<feColorMatrix in="SourceAlpha" type="matrix" values="0 0 0 0 0 0 0 0 0 0 0 0 0 0 0 0 0 0 127 0" result="hardAlpha"/>
<feOffset dy="4"/>
<feGaussianBlur stdDeviation="2"/>
<feComposite in2="hardAlpha" operator="out"/>
<feColorMatrix type="matrix" values="0 0 0 0 0 0 0 0 0 0 0 0 0 0 0 0 0 0 0.25 0"/>
<feBlend mode="normal" in2="BackgroundImageFix" result="effect1_dropShadow_537_7075"/>
<feBlend mode="normal" in="SourceGraphic" in2="effect1_dropShadow_537_7075" result="shape"/>
</filter>
</defs>
</svg>
