<svg width="90" height="90" viewBox="0 0 90 90" fill="none" xmlns="http://www.w3.org/2000/svg">
<g filter="url(#filter0_d_419_6925)">
<circle opacity="0.5" cx="45" cy="41" r="41" fill="#F9F9F9"/>
<circle cx="45" cy="41" r="36" fill="#F9F9F9"/>
<path d="M64.18 51.1783C64.18 51.8973 63.8944 52.5868 63.386 53.0952C62.8776 53.6036 62.1881 53.8892 61.4692 53.8892H28.9392C28.2203 53.8892 27.5308 53.6036 27.0224 53.0952C26.514 52.5868 26.2284 51.8973 26.2284 51.1783V34.9134C26.2284 34.1944 26.514 33.5049 27.0224 32.9965C27.5308 32.4882 28.2203 32.2026 28.9392 32.2026H32.1163C34.2721 32.2014 36.3392 31.3443 37.8633 29.8197L40.1133 27.5752C40.6202 27.0681 41.3074 26.7825 42.0244 26.7809H48.3786C49.0975 26.781 49.7869 27.0668 50.2951 27.5752L52.5397 29.8197C53.295 30.5753 54.1918 31.1746 55.1788 31.5835C56.1658 31.9923 57.2237 32.2027 58.2921 32.2026H61.4692C62.1881 32.2026 62.8776 32.4882 63.386 32.9965C63.8944 33.5049 64.18 34.1944 64.18 34.9134V51.1783ZM28.9392 29.4917C27.5013 29.4917 26.1223 30.0629 25.1055 31.0797C24.0888 32.0964 23.5176 33.4755 23.5176 34.9134V51.1783C23.5176 52.6163 24.0888 53.9953 25.1055 55.012C26.1223 56.0288 27.5013 56.6 28.9392 56.6H61.4692C62.9071 56.6 64.2861 56.0288 65.3029 55.012C66.3196 53.9953 66.8908 52.6163 66.8908 51.1783V34.9134C66.8908 33.4755 66.3196 32.0964 65.3029 31.0797C64.2861 30.0629 62.9071 29.4917 61.4692 29.4917H58.2921C56.8543 29.4914 55.4755 28.92 54.459 27.9032L52.2144 25.6586C51.1979 24.6418 49.8191 24.0704 48.3813 24.0701H42.0271C40.5893 24.0704 39.2105 24.6418 38.194 25.6586L35.9494 27.9032C34.9329 28.92 33.5541 29.4914 32.1163 29.4917H28.9392Z" fill="#121212"/>
<path d="M45.2039 48.4671C43.4065 48.4671 41.6828 47.7531 40.4118 46.4822C39.1409 45.2112 38.4269 43.4874 38.4269 41.69C38.4269 39.8927 39.1409 38.1689 40.4118 36.8979C41.6828 35.627 43.4065 34.913 45.2039 34.913C47.0013 34.913 48.7251 35.627 49.996 36.8979C51.267 38.1689 51.981 39.8927 51.981 41.69C51.981 43.4874 51.267 45.2112 49.996 46.4822C48.7251 47.7531 47.0013 48.4671 45.2039 48.4671ZM45.2039 51.1779C47.7203 51.1779 50.1336 50.1783 51.9129 48.399C53.6922 46.6197 54.6918 44.2064 54.6918 41.69C54.6918 39.1737 53.6922 36.7604 51.9129 34.9811C50.1336 33.2018 47.7203 32.2021 45.2039 32.2021C42.6876 32.2021 40.2743 33.2018 38.495 34.9811C36.7157 36.7604 35.716 39.1737 35.716 41.69C35.716 44.2064 36.7157 46.6197 38.495 48.399C40.2743 50.1783 42.6876 51.1779 45.2039 51.1779ZM31.6498 36.2684C31.6498 36.6279 31.507 36.9726 31.2528 37.2268C30.9986 37.481 30.6539 37.6238 30.2944 37.6238C29.9349 37.6238 29.5901 37.481 29.336 37.2268C29.0818 36.9726 28.939 36.6279 28.939 36.2684C28.939 35.9089 29.0818 35.5642 29.336 35.31C29.5901 35.0558 29.9349 34.913 30.2944 34.913C30.6539 34.913 30.9986 35.0558 31.2528 35.31C31.507 35.5642 31.6498 35.9089 31.6498 36.2684Z" fill="#121212"/>
</g>
<defs>
<filter id="filter0_d_419_6925" x="0" y="0" width="90" height="90" filterUnits="userSpaceOnUse" color-interpolation-filters="sRGB">
<feFlood flood-opacity="0" result="BackgroundImageFix"/>
<feColorMatrix in="SourceAlpha" type="matrix" values="0 0 0 0 0 0 0 0 0 0 0 0 0 0 0 0 0 0 127 0" result="hardAlpha"/>
<feOffset dy="4"/>
<feGaussianBlur stdDeviation="2"/>
<feComposite in2="hardAlpha" operator="out"/>
<feColorMatrix type="matrix" values="0 0 0 0 0 0 0 0 0 0 0 0 0 0 0 0 0 0 0.12 0"/>
<feBlend mode="normal" in2="BackgroundImageFix" result="effect1_dropShadow_419_6925"/>
<feBlend mode="normal" in="SourceGraphic" in2="effect1_dropShadow_419_6925" result="shape"/>
</filter>
</defs>
</svg>
