<svg width="35" height="27" viewBox="0 0 35 27" fill="none" xmlns="http://www.w3.org/2000/svg">
<path d="M32.8125 21.875C32.8125 22.4552 32.582 23.0116 32.1718 23.4218C31.7616 23.832 31.2052 24.0625 30.625 24.0625H4.375C3.79484 24.0625 3.23844 23.832 2.8282 23.4218C2.41797 23.0116 2.1875 22.4552 2.1875 21.875V8.75C2.1875 8.16984 2.41797 7.61344 2.8282 7.2032C3.23844 6.79297 3.79484 6.5625 4.375 6.5625H6.93875C8.67833 6.56155 10.3464 5.86994 11.5763 4.63969L13.3919 2.82844C13.8009 2.41924 14.3555 2.18878 14.9341 2.1875H20.0616C20.6417 2.18762 21.198 2.41817 21.6081 2.82844L23.4194 4.63969C24.0289 5.24937 24.7525 5.733 25.549 6.06292C26.3455 6.39284 27.1992 6.5626 28.0613 6.5625H30.625C31.2052 6.5625 31.7616 6.79297 32.1718 7.2032C32.582 7.61344 32.8125 8.16984 32.8125 8.75V21.875ZM4.375 4.375C3.21468 4.375 2.10188 4.83594 1.28141 5.65641C0.460936 6.47688 0 7.58968 0 8.75L0 21.875C0 23.0353 0.460936 24.1481 1.28141 24.9686C2.10188 25.7891 3.21468 26.25 4.375 26.25H30.625C31.7853 26.25 32.8981 25.7891 33.7186 24.9686C34.5391 24.1481 35 23.0353 35 21.875V8.75C35 7.58968 34.5391 6.47688 33.7186 5.65641C32.8981 4.83594 31.7853 4.375 30.625 4.375H28.0613C26.901 4.37475 25.7884 3.91365 24.9681 3.09313L23.1569 1.28187C22.3366 0.461346 21.224 0.000247789 20.0637 0H14.9362C13.776 0.000247789 12.6634 0.461346 11.8431 1.28187L10.0319 3.09313C9.21159 3.91365 8.09898 4.37475 6.93875 4.375H4.375Z" fill="#121212"/>
<path d="M17.5 19.6875C16.0496 19.6875 14.6586 19.1113 13.633 18.0857C12.6074 17.0602 12.0312 15.6692 12.0312 14.2188C12.0312 12.7683 12.6074 11.3773 13.633 10.3518C14.6586 9.32617 16.0496 8.75 17.5 8.75C18.9504 8.75 20.3414 9.32617 21.367 10.3518C22.3926 11.3773 22.9688 12.7683 22.9688 14.2188C22.9688 15.6692 22.3926 17.0602 21.367 18.0857C20.3414 19.1113 18.9504 19.6875 17.5 19.6875ZM17.5 21.875C19.5306 21.875 21.478 21.0684 22.9138 19.6325C24.3496 18.1967 25.1562 16.2493 25.1562 14.2188C25.1562 12.1882 24.3496 10.2408 22.9138 8.80496C21.478 7.36914 19.5306 6.5625 17.5 6.5625C15.4694 6.5625 13.522 7.36914 12.0862 8.80496C10.6504 10.2408 9.84375 12.1882 9.84375 14.2188C9.84375 16.2493 10.6504 18.1967 12.0862 19.6325C13.522 21.0684 15.4694 21.875 17.5 21.875ZM6.5625 9.84375C6.5625 10.1338 6.44727 10.412 6.24215 10.6171C6.03703 10.8223 5.75883 10.9375 5.46875 10.9375C5.17867 10.9375 4.90047 10.8223 4.69535 10.6171C4.49023 10.412 4.375 10.1338 4.375 9.84375C4.375 9.55367 4.49023 9.27547 4.69535 9.07035C4.90047 8.86523 5.17867 8.75 5.46875 8.75C5.75883 8.75 6.03703 8.86523 6.24215 9.07035C6.44727 9.27547 6.5625 9.55367 6.5625 9.84375Z" fill="#121212"/>
</svg>
