<svg width="38" height="38" viewBox="0 0 38 38" fill="none" xmlns="http://www.w3.org/2000/svg">
<path d="M13.6563 13.0625C13.0691 13.0625 12.4951 13.2366 12.0069 13.5628C11.5187 13.889 11.1382 14.3527 10.9135 14.8952C10.6888 15.4376 10.63 16.0345 10.7445 16.6104C10.8591 17.1863 11.1418 17.7153 11.557 18.1305C11.9722 18.5457 12.5012 18.8284 13.0771 18.943C13.653 19.0575 14.2499 18.9987 14.7923 18.774C15.3348 18.5493 15.7985 18.1688 16.1247 17.6806C16.4509 17.1924 16.625 16.6184 16.625 16.0312C16.625 15.2439 16.3122 14.4888 15.7555 13.932C15.1987 13.3753 14.4436 13.0625 13.6563 13.0625ZM24.3438 13.0625C23.7566 13.0625 23.1826 13.2366 22.6944 13.5628C22.2062 13.889 21.8257 14.3527 21.601 14.8952C21.3763 15.4376 21.3175 16.0345 21.432 16.6104C21.5466 17.1863 21.8293 17.7153 22.2445 18.1305C22.6597 18.5457 23.1887 18.8284 23.7646 18.943C24.3405 19.0575 24.9374 18.9987 25.4798 18.774C26.0223 18.5493 26.486 18.1688 26.8122 17.6806C27.1384 17.1924 27.3125 16.6184 27.3125 16.0312C27.3125 15.2439 26.9997 14.4888 26.443 13.932C25.8862 13.3753 25.1311 13.0625 24.3438 13.0625Z" fill="#121212"/>
<path d="M35.625 19.0002C35.63 16.0866 34.8691 13.2227 33.4187 10.6957C31.9683 8.16873 29.8792 6.06729 27.3608 4.60199C24.8424 3.13669 21.9831 2.35899 19.0694 2.34682C16.1558 2.33466 13.2901 3.08845 10.7595 4.53268C8.22894 5.9769 6.12237 8.06082 4.65089 10.5756C3.17941 13.0904 2.39469 15.9478 2.37537 18.8614C2.35604 21.775 3.1028 24.6426 4.5408 27.1767C5.9788 29.7108 8.05754 31.8225 10.5687 33.3001L10.5865 33.4854C10.643 34.0723 10.9166 34.6171 11.3538 35.0129C11.7909 35.4087 12.36 35.6271 12.9497 35.6252H25.0503C25.6396 35.6271 26.2084 35.4091 26.6455 35.0138C27.0825 34.6184 27.3563 34.0743 27.4134 33.4877L27.4312 33.3001C29.9248 31.8374 31.9927 29.7483 33.43 27.2399C34.8672 24.7316 35.6239 21.8912 35.625 19.0002ZM19 4.75025C22.6532 4.75187 26.166 6.15762 28.8117 8.67671C31.4574 11.1958 33.0337 14.6355 33.2143 18.2842L27.0322 21.3752H10.9677L4.7856 18.2842C4.96628 14.6355 6.54252 11.1958 9.18826 8.67671C11.834 6.15762 15.3468 4.75187 19 4.75025ZM4.89248 20.9929L9.57123 23.3322L10.2612 30.2316C7.33815 27.9675 5.41237 24.6535 4.89248 20.9929ZM25.0503 33.2502H12.9497L11.9997 23.7502H26.0003L25.0503 33.2502ZM27.7388 30.2316L28.4287 23.3322L33.1075 20.9929C32.5878 24.6533 30.6625 27.9672 27.74 30.2316H27.7388Z" fill="#121212"/>
</svg>
