<svg width="34" height="34" viewBox="0 0 34 34" fill="none" xmlns="http://www.w3.org/2000/svg">
<path d="M12.7497 15.5833C13.8704 15.5833 14.966 15.251 15.8979 14.6283C16.8298 14.0057 17.5561 13.1207 17.985 12.0852C18.4139 11.0498 18.5261 9.91038 18.3075 8.81116C18.0888 7.71193 17.5491 6.70223 16.7566 5.90973C15.9641 5.11723 14.9544 4.57754 13.8552 4.35889C12.756 4.14024 11.6166 4.25246 10.5811 4.68135C9.54569 5.11025 8.66067 5.83656 8.03801 6.76844C7.41535 7.70032 7.08301 8.79591 7.08301 9.91667C7.08301 11.4196 7.68003 12.8609 8.74274 13.9236C9.80544 14.9863 11.2468 15.5833 12.7497 15.5833ZM12.7497 7.08334C13.3101 7.08334 13.8579 7.24951 14.3238 7.56084C14.7897 7.87217 15.1529 8.31467 15.3673 8.8324C15.5818 9.35012 15.6379 9.91981 15.5286 10.4694C15.4192 11.019 15.1494 11.5239 14.7531 11.9201C14.3569 12.3164 13.852 12.5862 13.3024 12.6956C12.7528 12.8049 12.1831 12.7488 11.6654 12.5343C11.1477 12.3199 10.7052 11.9567 10.3938 11.4908C10.0825 11.0248 9.91634 10.477 9.91634 9.91667C9.91634 9.16522 10.2149 8.44455 10.7462 7.9132C11.2776 7.38185 11.9982 7.08334 12.7497 7.08334ZM24.083 18.4167C24.9236 18.4167 25.7453 18.1674 26.4442 17.7004C27.1431 17.2334 27.6878 16.5697 28.0095 15.7931C28.3312 15.0165 28.4153 14.162 28.2513 13.3375C28.0874 12.5131 27.6826 11.7558 27.0882 11.1615C26.4938 10.5671 25.7366 10.1623 24.9121 9.99833C24.0877 9.83434 23.2332 9.91851 22.4566 10.2402C21.68 10.5619 21.0163 11.1066 20.5493 11.8055C20.0823 12.5044 19.833 13.3261 19.833 14.1667C19.833 15.2938 20.2808 16.3748 21.0778 17.1719C21.8748 17.9689 22.9558 18.4167 24.083 18.4167ZM24.083 12.75C24.3632 12.75 24.6371 12.8331 24.8701 12.9888C25.103 13.1444 25.2846 13.3657 25.3918 13.6245C25.4991 13.8834 25.5271 14.1682 25.4725 14.443C25.4178 14.7179 25.2829 14.9703 25.0847 15.1684C24.8866 15.3665 24.6342 15.5015 24.3594 15.5561C24.0846 15.6108 23.7997 15.5827 23.5409 15.4755C23.282 15.3683 23.0608 15.1867 22.9051 14.9537C22.7494 14.7208 22.6663 14.4469 22.6663 14.1667C22.6663 13.7909 22.8156 13.4306 23.0813 13.1649C23.347 12.8993 23.7073 12.75 24.083 12.75ZM24.083 19.8333C22.5131 19.8351 20.9882 20.3583 19.748 21.3208C18.3604 19.9387 16.5946 18.9983 14.6733 18.6184C12.7519 18.2385 10.7611 18.4361 8.95191 19.1861C7.1427 19.9362 5.59609 21.2051 4.50714 22.833C3.41819 24.4609 2.83566 26.3748 2.83301 28.3333C2.83301 28.7091 2.98226 29.0694 3.24794 29.3351C3.51362 29.6007 3.87395 29.75 4.24967 29.75C4.6254 29.75 4.98573 29.6007 5.25141 29.3351C5.51709 29.0694 5.66634 28.7091 5.66634 28.3333C5.66634 26.4547 6.41262 24.653 7.741 23.3247C9.06938 21.9963 10.8711 21.25 12.7497 21.25C14.6283 21.25 16.43 21.9963 17.7583 23.3247C19.0867 24.653 19.833 26.4547 19.833 28.3333C19.833 28.7091 19.9823 29.0694 20.2479 29.3351C20.5136 29.6007 20.874 29.75 21.2497 29.75C21.6254 29.75 21.9857 29.6007 22.2514 29.3351C22.5171 29.0694 22.6663 28.7091 22.6663 28.3333C22.6697 26.6736 22.2504 25.0404 21.448 23.5875C22.0741 23.0928 22.8268 22.7843 23.6199 22.6974C24.4131 22.6104 25.2148 22.7485 25.9331 23.0959C26.6515 23.4432 27.2575 23.9858 27.682 24.6615C28.1064 25.3372 28.332 26.1187 28.333 26.9167C28.333 27.2924 28.4823 27.6527 28.7479 27.9184C29.0136 28.1841 29.374 28.3333 29.7497 28.3333C30.1254 28.3333 30.4857 28.1841 30.7514 27.9184C31.0171 27.6527 31.1663 27.2924 31.1663 26.9167C31.1663 25.0381 30.4201 23.2364 29.0917 21.908C27.7633 20.5796 25.9616 19.8333 24.083 19.8333Z" fill="#121212"/>
</svg>
