<svg width="554" height="554" viewBox="0 0 554 554" fill="none" xmlns="http://www.w3.org/2000/svg">
<g filter="url(#filter0_dd_267_2530)">
<path d="M420.553 255.705C421.074 254.73 421.583 253.755 422.104 252.78C422.248 252.514 422.359 252.237 422.448 251.938C440.253 193.734 437.971 148.118 415.656 116.363C407.656 104.972 392.919 89.7817 368.156 81.9925C364.222 77.5715 347.58 60.1094 320.345 48.0766C291.936 35.534 246.287 26.9027 190.1 57.0292C142.401 82.6019 118.169 128.517 120.03 189.823C120.817 215.861 126.069 239.24 130.556 254.863C130.301 254.874 130.046 254.885 129.792 254.94C114.734 258.02 103.798 271.438 103.798 286.828C103.798 304.778 118.401 319.381 136.351 319.381C137.514 319.381 138.667 319.304 139.808 319.182C139.874 320.046 139.941 320.899 140.007 321.753C142.511 352.854 156.118 382.05 178.322 403.966L200.327 425.694C200.316 425.805 200.282 425.905 200.271 426.015L197.357 477.471L197.346 477.704C196.626 488.651 191.186 499.154 182.422 506.523C181.657 507.165 180.338 507.974 178.577 508.916C178.577 508.916 178.577 508.916 178.577 508.927C179.452 512.007 180.715 514.855 182.289 517.481C185.103 516.029 187.23 514.744 188.46 513.714C199.174 504.706 205.822 491.808 206.709 478.335L209.191 434.469L225.268 450.347C233.401 458.369 244.159 462.79 255.583 462.79H291.427C302.85 462.79 313.609 458.369 321.741 450.347L341.486 430.846L344.156 478.036L344.178 478.313C345.065 491.797 351.724 504.694 362.438 513.703C363.258 514.389 364.477 515.187 366.028 516.074C367.89 514.81 369.718 513.503 371.524 512.162C372.366 511.387 373.186 510.589 374.006 509.769C371.38 508.462 369.485 507.354 368.488 506.512C359.724 499.143 354.283 488.64 353.563 477.681L350.638 426.004C350.572 424.863 350.095 423.855 349.364 423.079L367.967 404.72C390.748 382.238 404.398 352.3 406.426 320.445C406.459 320.002 406.481 319.526 406.515 319.071C407.999 319.271 409.495 319.381 411.002 319.381C428.952 319.381 443.555 304.778 443.555 286.828C443.533 272.314 433.982 259.815 420.553 255.705ZM194.543 65.306C236.824 42.6363 277.754 39.6779 316.19 56.5085C343.093 68.2976 359.369 86.2029 361.563 88.718C362.527 90.0698 364.111 90.5684 365.175 90.9008C387.523 97.8812 400.786 111.543 407.977 121.77C428.486 150.954 430.381 193.679 413.606 248.769C411.102 253.467 408.564 258.308 406.404 262.486C405.706 258.707 405.107 254.663 404.941 251.251C404.044 233.7 401.385 207.584 393.806 182.854C384.266 151.697 369.507 131.276 349.951 122.157C349.331 121.869 348.666 121.725 347.99 121.725C347.07 121.725 346.151 122.002 345.353 122.523C343.99 123.432 343.203 125.016 343.27 126.656C343.292 127.088 343.613 137.271 333.808 147.586C317.165 165.115 284.712 169.037 260.425 169.247C189.058 169.857 161.159 186.953 149.846 236.991C149.425 238.852 149.037 240.68 148.65 242.464C147.021 250.065 145.636 256.569 142.766 262.441C138.246 248.813 130.323 220.736 129.404 189.28C127.72 131.088 149.625 89.3717 194.543 65.306ZM136.34 309.975C123.576 309.975 113.183 299.581 113.183 286.817C113.183 276.014 120.739 266.585 131.221 264.225H133.426C135.032 269.134 136.318 272.502 136.883 273.953C137.392 283.538 138.135 296.49 139.088 309.808C138.19 309.908 137.271 309.975 136.34 309.975ZM361.352 398.016L315.149 443.633C308.789 449.915 300.368 453.372 291.438 453.372H255.594C246.663 453.372 238.243 449.915 231.883 443.633L184.926 397.263C164.328 376.92 151.697 349.829 149.37 320.977C148.029 304.324 146.988 286.795 146.334 274.452C153.392 265.256 155.564 255.129 157.846 244.436C158.223 242.675 158.6 240.891 159.021 239.063C167.962 199.485 186.111 179.275 260.513 178.632C298.739 178.311 325.797 169.934 340.91 153.735C347.658 146.511 350.549 139.165 351.779 133.869C366.017 143.054 377.108 160.417 384.82 185.59C392.111 209.401 394.681 234.697 395.556 251.716C395.955 259.594 398.271 269.998 399.423 274.796C399.301 275.183 399.213 275.582 399.202 276.014C398.603 292.014 397.861 307.16 397.052 319.814C395.158 349.386 382.482 377.153 361.352 398.016ZM410.98 309.975C409.65 309.975 408.343 309.853 407.046 309.631C407.567 300.169 408.044 289.875 408.465 278.895C408.575 278.729 408.686 278.552 408.786 278.363C408.83 278.275 411.999 272.048 416.066 264.236C426.514 266.574 434.137 275.892 434.137 286.828C434.137 299.581 423.755 309.975 410.98 309.975Z" fill="white" fill-opacity="0.8"/>
<path d="M336.291 263.76C330.064 263.76 325 270.984 325 279.87C325 288.756 330.064 295.98 336.291 295.98C342.517 295.98 347.581 288.756 347.581 279.87C347.581 270.995 342.517 263.76 336.291 263.76Z" fill="white" fill-opacity="0.8"/>
<path d="M307.603 362.449C302.329 367.325 289.299 370.239 272.756 370.239C256.203 370.239 243.184 367.325 237.91 362.449C236.48 361.131 234.253 361.208 232.935 362.638C231.616 364.067 231.705 366.294 233.123 367.613C242.209 376.022 261.854 377.274 272.756 377.274C283.659 377.274 303.304 376.022 312.389 367.613C313.819 366.294 313.907 364.067 312.578 362.638C311.259 361.22 309.032 361.131 307.603 362.449Z" fill="white" fill-opacity="0.8"/>
<path d="M272.757 340.212C279.371 340.212 285.277 337.563 288.169 333.298C289.255 331.691 288.834 329.497 287.227 328.411C285.62 327.326 283.427 327.747 282.341 329.353C281.056 331.248 277.599 333.176 272.768 333.176C267.937 333.176 264.48 331.259 263.195 329.353C262.109 327.747 259.915 327.326 258.308 328.411C256.702 329.497 256.281 331.691 257.366 333.298C260.236 337.563 266.142 340.212 272.757 340.212Z" fill="white" fill-opacity="0.8"/>
<path d="M287.814 387.733C285.853 389.794 280.302 392.01 272.767 392.01C265.233 392.01 259.682 389.794 257.721 387.733C256.38 386.326 254.153 386.271 252.746 387.611C251.339 388.952 251.283 391.179 252.624 392.586C256.424 396.564 264.147 399.035 272.767 399.035C281.399 399.035 289.11 396.564 292.911 392.586C294.251 391.179 294.207 388.952 292.789 387.611C291.382 386.271 289.155 386.326 287.814 387.733Z" fill="white" fill-opacity="0.8"/>
<path d="M358.416 242.574C331.214 234.696 313.675 242.419 312.943 242.751C311.182 243.549 310.395 245.632 311.193 247.394C311.99 249.167 314.073 249.953 315.846 249.167C316.001 249.1 331.923 242.231 356.466 249.333C356.798 249.433 357.119 249.477 357.452 249.477C358.981 249.477 360.388 248.48 360.831 246.929C361.363 245.067 360.288 243.106 358.416 242.574Z" fill="white" fill-opacity="0.8"/>
<path d="M235.535 278.186C208.333 270.308 190.794 278.03 190.062 278.363C188.301 279.161 187.514 281.244 188.312 283.005C189.11 284.778 191.193 285.565 192.965 284.778C193.12 284.712 209.042 277.842 233.585 284.944C233.917 285.044 234.238 285.088 234.571 285.088C236.1 285.088 237.507 284.091 237.95 282.54C238.482 280.679 237.407 278.728 235.535 278.186Z" fill="white" fill-opacity="0.8"/>
<path d="M234.32 247.405C235.118 245.633 234.342 243.55 232.569 242.741C231.838 242.408 214.298 234.686 187.097 242.563C185.224 243.106 184.15 245.056 184.693 246.929C185.136 248.469 186.543 249.477 188.072 249.477C188.393 249.477 188.726 249.433 189.058 249.333C213.545 242.242 229.445 249.067 229.677 249.167C231.439 249.965 233.522 249.178 234.32 247.405Z" fill="white" fill-opacity="0.8"/>
</g>
<defs>
<filter id="filter0_dd_267_2530" x="-15.4302" y="-11.5726" width="584.86" height="584.86" filterUnits="userSpaceOnUse" color-interpolation-filters="sRGB">
<feFlood flood-opacity="0" result="BackgroundImageFix"/>
<feColorMatrix in="SourceAlpha" type="matrix" values="0 0 0 0 0 0 0 0 0 0 0 0 0 0 0 0 0 0 127 0" result="hardAlpha"/>
<feMorphology radius="3.85755" operator="dilate" in="SourceAlpha" result="effect1_dropShadow_267_2530"/>
<feOffset dy="3.85755"/>
<feGaussianBlur stdDeviation="5.78632"/>
<feComposite in2="hardAlpha" operator="out"/>
<feColorMatrix type="matrix" values="0 0 0 0 0.375764 0 0 0 0 0.540935 0 0 0 0 0.805208 0 0 0 0.15 0"/>
<feBlend mode="normal" in2="BackgroundImageFix" result="effect1_dropShadow_267_2530"/>
<feColorMatrix in="SourceAlpha" type="matrix" values="0 0 0 0 0 0 0 0 0 0 0 0 0 0 0 0 0 0 127 0" result="hardAlpha"/>
<feOffset dy="1.92877"/>
<feGaussianBlur stdDeviation="1.92877"/>
<feComposite in2="hardAlpha" operator="out"/>
<feColorMatrix type="matrix" values="0 0 0 0 0.376471 0 0 0 0 0.541176 0 0 0 0 0.803922 0 0 0 0.3 0"/>
<feBlend mode="normal" in2="effect1_dropShadow_267_2530" result="effect2_dropShadow_267_2530"/>
<feBlend mode="normal" in="SourceGraphic" in2="effect2_dropShadow_267_2530" result="shape"/>
</filter>
</defs>
</svg>
