<svg width="565" height="488" viewBox="0 0 565 488" fill="none" xmlns="http://www.w3.org/2000/svg">
<g filter="url(#filter0_dd_80_6075)">
<path d="M201.151 287.535C206.07 289.404 212.184 291.735 212.757 293.107C212.757 293.119 213.175 294.195 211.372 298.241C208.972 303.611 209.891 307.739 211.074 310.247C212.877 314.056 216.327 316.517 219.946 318.208C218.119 320.065 216.662 322.265 216.065 324.773C215.253 328.251 216.22 331.752 218.787 334.651C219.981 335.987 221.14 337.194 222.238 338.329C226.907 343.156 228.65 344.954 227.564 351.365C225.809 361.751 224.579 371.427 224.352 373.344C223.791 375.851 221.796 386.876 227.791 395.511C230.286 399.107 235.194 403.638 244.448 404.773C250.669 405.542 258.741 404.856 267.303 404.135C281.19 402.952 298.468 401.485 304.678 407.34C305.884 408.476 307.472 410.57 307.293 415.526C306.719 431.034 304.379 439.989 300.319 442.142C294.922 445.016 289.787 447.477 284.354 450.079C280.091 452.125 275.697 454.231 270.909 456.668C267.936 458.182 266.766 461.79 268.282 464.735C269.357 466.805 271.47 468 273.667 468C274.599 468 275.542 467.787 276.426 467.338C281.083 464.972 285.417 462.89 289.608 460.879C295.161 458.217 300.415 455.698 306.027 452.705C318.254 446.199 319.007 425.77 319.365 415.964C319.628 408.713 317.49 402.893 313 398.658C302.851 389.076 283.399 390.732 266.24 392.187C258.335 392.862 250.872 393.489 245.929 392.873C242.048 392.4 239.385 391.04 237.773 388.745C234.907 384.652 235.66 378.004 236.185 375.78C236.233 375.556 236.281 375.307 236.316 375.082C236.328 374.976 237.618 364.401 239.493 353.341C241.582 341.003 236.185 335.419 230.967 330.025C230.059 329.091 229.116 328.109 228.149 327.033C228.638 326.429 229.546 325.672 230.668 324.903C243.111 323.933 257.762 321.165 265.703 313.879C267.422 312.305 267.518 309.656 265.93 307.952C264.342 306.249 261.667 306.154 259.947 307.728C254.896 312.353 243.923 315.487 229.618 316.576C229.331 316.339 229.044 316.079 228.77 315.783C226.835 313.713 225.247 311.395 223.611 309.1C222.883 308.071 222.561 306.947 222.561 305.835C222.31 305.61 222.119 305.374 222.011 305.137C221.844 304.782 221.999 304.013 222.417 303.067C224.244 298.974 226.071 293.615 223.91 288.482C221.343 282.354 215.026 279.953 205.461 276.321L203.157 275.446C200.339 274.369 198.464 272.997 198.13 271.791C197.748 270.419 198.989 268.408 199.18 268.159C199.431 267.84 199.658 267.497 199.837 267.13C200.482 265.864 215.575 235.818 219.552 220.559C222.155 210.528 218.787 203.229 215.814 196.771C213.593 191.956 211.683 187.804 212.1 182.599C212.769 174.212 217.175 156.22 220.65 145.432C243.099 161.129 283.435 164.643 314.983 164.643C327.353 164.643 335.998 164.051 337.467 163.909C337.706 163.886 337.981 163.862 338.279 163.838C338.327 163.838 338.387 163.827 338.446 163.827C338.673 163.815 338.924 163.803 339.175 163.791C339.354 163.779 339.557 163.779 339.76 163.767C339.855 163.767 339.963 163.756 340.07 163.756C341.36 163.708 343.103 163.673 345.503 163.673C345.682 163.673 345.85 163.673 346.029 163.673C346.208 163.673 346.387 163.673 346.59 163.673C347.247 163.673 347.903 163.673 348.572 163.673C348.703 163.673 348.823 163.673 348.954 163.673C349.48 163.673 350.005 163.685 350.53 163.685C350.709 163.685 350.889 163.685 351.068 163.685C351.569 163.685 352.083 163.696 352.572 163.696C352.704 163.696 352.823 163.696 352.954 163.696C356.274 163.744 359.343 163.803 361.349 163.85C361.611 164.335 361.946 165.033 362.316 166.015C363.008 167.825 363.856 170.605 364.716 174.804C364.835 175.407 364.967 176.046 365.086 176.697C365.206 177.347 365.325 178.033 365.444 178.743C366.221 183.368 366.889 188.81 367.415 194.913C368.477 207.204 370.34 217.673 372.848 225.988C373.063 226.686 373.266 227.361 373.493 228.023C374.806 231.998 376.275 235.428 377.887 238.267C378.149 238.74 378.424 239.202 378.699 239.639C379.248 240.515 379.821 241.331 380.406 242.088C380.991 242.845 381.588 243.519 382.197 244.122C383.117 245.033 384.06 245.79 385.039 246.394C385.362 246.595 385.696 246.772 386.03 246.938C387.033 247.423 388.06 247.754 389.111 247.908C389.422 247.955 389.744 247.979 390.054 248.002C390.066 248.002 390.09 248.014 390.102 248.014C390.126 248.014 390.138 248.014 390.162 248.014H390.174H390.186C390.198 248.014 390.198 248.014 390.198 248.014C390.269 248.014 390.353 248.014 390.425 248.014C390.449 248.014 390.472 248.014 390.496 248.014C390.508 248.014 390.508 248.014 390.52 248.014H390.532C390.866 248.014 391.249 247.991 391.666 247.943C391.702 247.943 391.738 247.931 391.774 247.931C392.084 247.884 392.407 247.837 392.729 247.754C393.422 247.588 394.043 247.352 394.64 247.068C394.759 247.009 394.89 246.961 395.01 246.902C395.022 246.89 395.046 246.879 395.058 246.879C395.082 246.867 395.093 246.855 395.117 246.843C395.141 246.831 395.153 246.819 395.177 246.808C395.822 246.453 396.419 246.003 397.016 245.459C397.052 245.424 397.1 245.376 397.135 245.341C397.398 245.092 397.661 244.844 397.923 244.56C399.356 243.011 400.801 240.905 402.568 238.267C402.652 238.137 402.736 238.03 402.819 237.9C402.819 237.9 402.819 237.9 402.819 237.889C407.691 230.673 412.049 225.149 416.444 221.813C419.393 219.624 422.605 218.205 426.056 218.205C428.91 218.205 431.979 219.175 435.191 221.079C435.191 221.079 435.203 221.079 435.203 221.091C437.651 222.546 439.454 224.273 440.719 226.355C441.854 228.224 442.916 231.134 442.857 235.452C442.857 235.842 442.833 236.232 442.809 236.646C442.761 237.38 442.69 238.149 442.582 238.965C442.128 242.336 441.066 246.37 439.083 251.184C438.833 251.788 438.57 252.403 438.295 253.03C436.086 258.045 432.922 263.842 428.492 270.549C427.943 271.377 427.561 271.968 427.369 272.311L427.358 272.323C427.346 272.347 427.322 272.382 427.31 272.406C427.238 272.512 427.226 272.536 427.19 272.619C427.178 272.642 427.167 272.678 427.143 272.702C427.131 272.713 427.131 272.725 427.119 272.749C427.095 272.796 427.059 272.855 427.035 272.903C427.023 272.926 427.011 272.95 426.999 272.974C426.975 273.021 426.952 273.068 426.94 273.116C426.928 273.139 426.916 273.175 426.904 273.198C426.88 273.246 426.868 273.281 426.844 273.329C426.832 273.352 426.82 273.388 426.808 273.411C426.796 273.459 426.772 273.494 426.761 273.541C426.749 273.577 426.737 273.601 426.725 273.636C426.713 273.683 426.701 273.719 426.677 273.766C426.665 273.802 426.653 273.837 426.641 273.873C426.629 273.92 426.617 273.955 426.605 274.003C426.593 274.038 426.581 274.074 426.581 274.121C426.569 274.168 426.558 274.216 426.546 274.251C426.534 274.287 426.534 274.334 426.522 274.369C426.51 274.417 426.51 274.464 426.498 274.511C426.486 274.559 426.486 274.606 426.474 274.653C426.462 274.701 426.462 274.748 426.45 274.807C426.45 274.854 426.438 274.902 426.438 274.949C426.438 274.996 426.426 275.056 426.426 275.115C426.426 275.162 426.414 275.221 426.414 275.268C426.414 275.328 426.414 275.387 426.402 275.446C426.402 275.505 426.402 275.552 426.402 275.612C426.402 275.671 426.402 275.742 426.402 275.801C426.402 275.86 426.402 275.919 426.402 275.99C426.402 276.061 426.402 276.12 426.414 276.191C426.414 276.262 426.414 276.321 426.426 276.392C426.426 276.463 426.438 276.534 426.438 276.617C426.438 276.688 426.45 276.759 426.45 276.83C426.462 276.913 426.462 276.996 426.474 277.078C426.486 277.149 426.486 277.22 426.498 277.303C426.51 277.398 426.522 277.492 426.534 277.587C426.546 277.658 426.546 277.741 426.558 277.812C426.569 277.918 426.581 278.025 426.605 278.131C426.617 278.202 426.629 278.285 426.641 278.356C426.653 278.474 426.677 278.592 426.689 278.723C426.701 278.805 426.713 278.876 426.725 278.959C426.749 279.089 426.772 279.231 426.796 279.373C426.808 279.444 426.82 279.527 426.832 279.598C426.856 279.752 426.88 279.905 426.916 280.071C426.928 280.142 426.94 280.225 426.952 280.296C426.987 280.473 427.011 280.651 427.047 280.828C427.059 280.899 427.071 280.97 427.083 281.041C427.119 281.23 427.155 281.431 427.19 281.621C427.202 281.692 427.214 281.774 427.238 281.845C427.286 282.058 427.322 282.283 427.369 282.508C427.381 282.579 427.393 282.638 427.405 282.709C427.453 282.957 427.513 283.218 427.572 283.49C427.584 283.537 427.596 283.584 427.596 283.632C427.656 283.892 427.716 284.176 427.776 284.46C427.787 284.519 427.799 284.578 427.811 284.637C427.871 284.933 427.943 285.252 428.014 285.56C428.026 285.595 428.026 285.643 428.038 285.678C428.11 285.974 428.181 286.293 428.253 286.613C428.265 286.684 428.289 286.766 428.301 286.837C428.373 287.145 428.444 287.452 428.516 287.772C428.54 287.866 428.552 287.949 428.576 288.044C428.635 288.328 428.707 288.612 428.779 288.907C428.814 289.061 428.85 289.203 428.886 289.369C428.934 289.582 428.993 289.818 429.041 290.043C429.089 290.268 429.149 290.493 429.208 290.729C429.244 290.895 429.292 291.072 429.328 291.25C429.399 291.533 429.459 291.806 429.531 292.101V292.113C429.531 292.125 429.531 292.125 429.531 292.137V292.149C429.543 292.184 429.543 292.22 429.555 292.255L429.949 293.864C429.949 293.876 429.949 293.887 429.961 293.899L430.414 295.768C430.653 296.726 430.892 297.732 431.143 298.737C431.334 299.506 431.525 300.287 431.728 301.091C432.588 304.534 433.519 308.201 434.498 311.974C434.737 312.909 434.976 313.843 435.227 314.789C435.513 315.901 435.812 317.025 436.098 318.161C441.388 338.424 447.347 360.19 449.532 368.151L450.702 372.409V406.501C450.702 407.991 450.666 410.404 450.618 413.219C450.463 423.18 450.356 431.744 450.726 435.683C451.048 439.078 452.29 442.189 454.415 444.921C457.854 449.346 462.834 451.901 467.228 454.172C468.004 454.574 468.768 454.964 469.497 455.355C469.855 455.544 470.834 456.029 472.183 456.68C479.814 460.382 484.518 462.831 486.178 463.966C487.277 465.421 489.044 466.356 491.014 466.356C494.357 466.356 497.068 463.671 497.068 460.358C497.068 455.757 494.107 453.959 477.497 445.903C476.387 445.359 475.575 444.969 475.264 444.803C474.476 444.377 473.64 443.951 472.804 443.514C469.365 441.739 465.807 439.906 464.004 437.587C463.276 436.653 462.882 435.683 462.774 434.547C462.428 430.939 462.607 420.388 462.714 413.397C462.762 410.499 462.798 408.015 462.798 406.489V372.492C465.019 368.671 475.443 356.156 480.028 350.643C483.241 346.787 485.103 344.54 485.927 343.428C516.579 301.766 564.844 218.477 543.709 128.67C532.879 82.6671 491.122 38.3079 444.397 23.1785C421.817 15.8681 395.464 12 368.191 12C328.046 12 290.408 20.3395 262.192 35.4689C230.824 52.3017 196.84 85.163 204.351 122.377C205.378 127.476 207.599 132.184 210.93 136.442C206.667 147.573 200.816 171.172 199.981 181.629C199.312 189.945 202.202 196.203 204.757 201.739C207.3 207.263 209.318 211.628 207.778 217.542C204.363 230.673 191.037 257.608 189.174 261.334C187.884 263.179 184.66 268.644 186.404 274.937C187.825 280.095 191.98 284.022 198.751 286.613L201.151 287.535ZM268.043 46.0442C294.516 31.8374 330.112 24.0184 368.274 24.0184C394.293 24.0184 419.345 27.6736 440.719 34.6054C483.682 48.5164 522.072 89.2322 531.995 131.415C552.032 216.561 505.653 296.383 476.219 336.378C475.575 337.265 473.234 340.068 470.762 343.026C465.723 349.07 461.962 353.672 459.144 357.232C457.532 351.341 455.418 343.534 453.15 335.076C453.138 335.029 453.126 334.994 453.114 334.946C452.386 332.237 451.645 329.446 450.905 326.642C450.869 326.524 450.845 326.406 450.809 326.287C450.678 325.767 450.535 325.258 450.403 324.738C450.32 324.407 450.224 324.064 450.141 323.732C450.021 323.283 449.902 322.833 449.782 322.384C449.687 322.005 449.579 321.627 449.484 321.248C449.376 320.834 449.269 320.42 449.161 320.006C449.018 319.474 448.875 318.93 448.744 318.397C448.672 318.137 448.6 317.865 448.541 317.605C448.338 316.836 448.135 316.067 447.944 315.298C447.848 314.943 447.764 314.6 447.669 314.245C447.549 313.772 447.418 313.287 447.299 312.814C447.215 312.471 447.12 312.128 447.036 311.785C446.917 311.312 446.797 310.85 446.678 310.389C446.594 310.058 446.511 309.727 446.427 309.407C446.296 308.899 446.164 308.39 446.033 307.893C445.961 307.597 445.878 307.313 445.806 307.018C445.615 306.284 445.424 305.551 445.245 304.829C445.233 304.794 445.221 304.758 445.221 304.723C445.018 303.942 444.827 303.161 444.624 302.393C444.576 302.203 444.528 302.026 444.481 301.837C444.337 301.257 444.194 300.689 444.051 300.11C443.991 299.873 443.931 299.648 443.872 299.424C443.74 298.915 443.621 298.406 443.49 297.909C443.43 297.661 443.37 297.413 443.299 297.164C443.167 296.655 443.048 296.159 442.928 295.662C442.881 295.449 442.821 295.236 442.773 295.035C442.606 294.337 442.439 293.651 442.272 292.977V292.965L442.26 292.917L441.448 289.534C441.436 289.487 441.424 289.452 441.412 289.404C441.364 289.18 441.304 288.967 441.257 288.754C440.755 286.636 440.349 284.85 440.015 283.371C440.003 283.348 440.003 283.312 439.991 283.289C439.919 282.957 439.848 282.638 439.776 282.33C439.764 282.295 439.764 282.259 439.752 282.224C439.68 281.916 439.621 281.621 439.561 281.337C439.561 281.325 439.549 281.313 439.549 281.289C439.107 279.196 438.869 277.895 438.749 277.09C440.743 274.074 442.546 271.128 444.17 268.277C444.194 268.23 444.218 268.183 444.254 268.147C444.54 267.639 444.815 267.142 445.09 266.645C445.209 266.432 445.34 266.207 445.448 265.994C445.687 265.557 445.914 265.119 446.14 264.681C446.284 264.409 446.439 264.137 446.57 263.865C446.761 263.487 446.941 263.12 447.132 262.753C447.299 262.422 447.466 262.091 447.633 261.771C447.776 261.476 447.908 261.192 448.051 260.896C448.242 260.494 448.433 260.104 448.624 259.713C448.732 259.477 448.839 259.252 448.935 259.015C449.138 258.566 449.341 258.116 449.544 257.679C449.627 257.478 449.711 257.288 449.794 257.087C449.997 256.614 450.2 256.141 450.391 255.679C450.463 255.49 450.535 255.313 450.606 255.124C450.797 254.65 450.988 254.177 451.168 253.716C451.239 253.538 451.299 253.361 451.359 253.184C451.538 252.71 451.705 252.249 451.872 251.788C451.932 251.61 451.991 251.445 452.039 251.279C452.194 250.818 452.362 250.356 452.505 249.895C452.565 249.718 452.612 249.552 452.66 249.386C452.803 248.937 452.947 248.476 453.066 248.038C453.114 247.872 453.15 247.707 453.197 247.541C453.317 247.092 453.448 246.642 453.556 246.204C453.603 246.027 453.639 245.85 453.675 245.672C453.783 245.246 453.878 244.82 453.974 244.406C454.009 244.241 454.033 244.075 454.069 243.91C454.153 243.484 454.248 243.058 454.32 242.644C454.356 242.478 454.368 242.313 454.404 242.147C454.475 241.733 454.547 241.319 454.607 240.917C454.63 240.739 454.654 240.574 454.666 240.396C454.714 240.006 454.774 239.604 454.809 239.213C454.833 239.048 454.833 238.87 454.857 238.705C454.893 238.314 454.929 237.936 454.953 237.557C454.965 237.38 454.965 237.202 454.977 237.037C455.001 236.67 455.012 236.303 455.024 235.937C455.024 235.759 455.024 235.582 455.024 235.404C455.024 235.05 455.036 234.695 455.024 234.352C455.024 234.174 455.012 233.997 455.001 233.807C454.989 233.464 454.977 233.121 454.953 232.79C454.941 232.601 454.917 232.423 454.905 232.234C454.881 231.915 454.845 231.584 454.809 231.264C454.786 231.075 454.75 230.886 454.726 230.696C454.678 230.389 454.642 230.081 454.595 229.774C454.559 229.584 454.523 229.407 454.487 229.218C454.427 228.922 454.38 228.615 454.308 228.319C454.272 228.13 454.212 227.952 454.177 227.763C454.105 227.479 454.033 227.183 453.962 226.899C453.914 226.71 453.854 226.533 453.795 226.343C453.711 226.071 453.627 225.787 453.544 225.515C453.484 225.326 453.412 225.149 453.341 224.971C453.245 224.699 453.15 224.427 453.042 224.167C452.971 223.989 452.887 223.812 452.815 223.634C452.708 223.374 452.6 223.114 452.481 222.854C452.397 222.676 452.302 222.499 452.218 222.321C452.099 222.073 451.98 221.825 451.848 221.576C451.753 221.399 451.645 221.221 451.55 221.044C451.43 220.819 451.311 220.594 451.179 220.381C451.156 220.346 451.144 220.322 451.12 220.287C450.976 220.038 450.821 219.802 450.678 219.553C450.559 219.364 450.451 219.163 450.332 218.974C450.129 218.678 449.914 218.382 449.711 218.087C449.591 217.921 449.472 217.744 449.353 217.578C449.114 217.27 448.851 216.975 448.6 216.667C448.481 216.537 448.373 216.395 448.266 216.253C447.932 215.875 447.573 215.508 447.203 215.153C447.155 215.106 447.12 215.058 447.072 215.023C446.654 214.621 446.236 214.23 445.782 213.864C445.627 213.733 445.448 213.603 445.293 213.473C444.994 213.237 444.708 213 444.397 212.775C444.194 212.622 443.967 212.491 443.764 212.338C443.49 212.148 443.215 211.947 442.916 211.77C442.69 211.628 442.451 211.498 442.224 211.356C441.949 211.19 441.675 211.025 441.4 210.871C440.743 210.48 440.075 210.114 439.406 209.771C438.821 209.463 438.236 209.191 437.651 208.931C437.615 208.919 437.579 208.895 437.543 208.884C426.569 203.927 417.447 206.494 410.115 211.699C409.972 211.794 409.84 211.9 409.697 211.995C409.482 212.148 409.267 212.302 409.052 212.468C401.876 217.874 396.562 225.74 392.777 231.347C392.037 232.435 391.225 233.654 390.496 234.671C390.389 234.813 390.281 234.967 390.186 235.109C388.514 233.039 385.863 228.212 383.511 219.128C383.26 218.169 383.021 217.164 382.782 216.111C381.457 210.327 380.287 203.052 379.499 194.003C379.487 193.801 379.463 193.612 379.439 193.411C378.985 188.254 378.424 183.534 377.791 179.334C377.66 178.506 377.54 177.678 377.397 176.886C377.266 176.105 377.134 175.348 377.003 174.626C376.872 173.905 376.728 173.207 376.597 172.545C376.167 170.451 375.654 168.168 375.009 165.92C374.854 165.352 374.675 164.796 374.496 164.241C374.137 163.129 373.755 162.04 373.313 160.999C372.872 159.958 372.418 158.953 371.892 158.03C371.379 157.108 370.818 156.256 370.209 155.499C369.289 154.363 368.262 153.452 367.104 152.849C366.328 152.447 365.492 152.187 364.597 152.08C364.429 152.057 364.25 152.045 364.083 152.045C362.376 151.997 350.124 151.654 341.861 151.808C341.67 151.808 341.503 151.82 341.324 151.82C341.145 151.82 340.966 151.832 340.787 151.832C340.548 151.844 340.321 151.844 340.094 151.855C340.034 151.855 339.987 151.855 339.939 151.855C339.461 151.867 339.031 151.891 338.613 151.903C338.506 151.903 338.398 151.915 338.291 151.915C338.124 151.926 337.957 151.926 337.801 151.938C337.634 151.95 337.491 151.962 337.336 151.974C337.228 151.986 337.109 151.986 337.001 151.997C336.739 152.021 336.488 152.033 336.261 152.057C335.139 152.163 326.911 152.731 314.971 152.731C306.445 152.731 298.337 152.459 290.695 151.926C290.575 151.915 290.456 151.915 290.337 151.903C289.584 151.844 288.844 151.784 288.092 151.737C281.274 151.193 274.264 150.4 267.422 149.277C267.231 149.241 267.028 149.218 266.837 149.182C266.312 149.099 265.786 149.005 265.261 148.91C246.18 145.539 231.863 140.015 223.791 132.692C223.731 132.645 223.683 132.598 223.623 132.539C223.193 132.136 222.776 131.734 222.381 131.332L222.37 131.32C219.098 127.925 217.104 124.27 216.268 120.118C210.094 89.244 240.293 60.937 268.043 46.0442Z" fill="white" fill-opacity="0.8"/>
<g clip-path="url(#clip0_80_6075)">
<path d="M106.126 246.932L105.885 246.831L142.115 232.117C143.468 231.485 144.526 230.358 145.07 228.968C145.614 227.578 145.603 226.032 145.039 224.65C144.475 223.268 143.401 222.156 142.04 221.544C140.678 220.932 139.133 220.867 137.725 221.362L88.5045 241.352C87.6054 241.692 86.8044 242.249 86.1733 242.974C85.5422 243.698 85.1006 244.568 84.888 245.506C84.6966 246.616 84.8149 247.758 85.2299 248.806L105.293 298.153C105.868 299.581 106.986 300.723 108.402 301.328C109.464 301.783 110.637 301.913 111.772 301.699C112.907 301.485 113.953 300.938 114.776 300.128C115.599 299.318 116.162 298.28 116.393 297.149C116.624 296.017 116.513 294.842 116.074 293.774L101.36 257.544C130.585 269.854 153.724 293.267 165.688 322.634C177.653 352.002 177.463 384.919 165.161 414.147C164.561 415.567 164.55 417.168 165.13 418.597C165.71 420.026 166.834 421.166 168.255 421.766C169.676 422.366 171.277 422.377 172.706 421.797C174.135 421.216 175.274 420.092 175.874 418.671C189.359 386.644 189.589 350.576 176.513 318.379C163.437 286.183 138.124 260.488 106.126 246.932V246.932Z" fill="white" fill-opacity="0.8"/>
</g>
</g>
<defs>
<filter id="filter0_dd_80_6075" x="0.5698" y="0.42735" width="563.759" height="486.86" filterUnits="userSpaceOnUse" color-interpolation-filters="sRGB">
<feFlood flood-opacity="0" result="BackgroundImageFix"/>
<feColorMatrix in="SourceAlpha" type="matrix" values="0 0 0 0 0 0 0 0 0 0 0 0 0 0 0 0 0 0 127 0" result="hardAlpha"/>
<feMorphology radius="3.85755" operator="dilate" in="SourceAlpha" result="effect1_dropShadow_80_6075"/>
<feOffset dy="3.85755"/>
<feGaussianBlur stdDeviation="5.78632"/>
<feComposite in2="hardAlpha" operator="out"/>
<feColorMatrix type="matrix" values="0 0 0 0 0.375764 0 0 0 0 0.540935 0 0 0 0 0.805208 0 0 0 0.15 0"/>
<feBlend mode="normal" in2="BackgroundImageFix" result="effect1_dropShadow_80_6075"/>
<feColorMatrix in="SourceAlpha" type="matrix" values="0 0 0 0 0 0 0 0 0 0 0 0 0 0 0 0 0 0 127 0" result="hardAlpha"/>
<feOffset dy="1.92877"/>
<feGaussianBlur stdDeviation="1.92877"/>
<feComposite in2="hardAlpha" operator="out"/>
<feColorMatrix type="matrix" values="0 0 0 0 0.376471 0 0 0 0 0.541176 0 0 0 0 0.803922 0 0 0 0.3 0"/>
<feBlend mode="normal" in2="effect1_dropShadow_80_6075" result="effect2_dropShadow_80_6075"/>
<feBlend mode="normal" in="SourceGraphic" in2="effect2_dropShadow_80_6075" result="shape"/>
</filter>
<clipPath id="clip0_80_6075">
<rect width="186.081" height="186.081" fill="white" transform="translate(88.3984 192.354) rotate(22.8966)"/>
</clipPath>
</defs>
</svg>
