<svg width="564" height="564" viewBox="0 0 564 564" fill="none" xmlns="http://www.w3.org/2000/svg">
<g filter="url(#filter0_dd_267_2170)">
<path d="M428.144 260.32C428.674 259.327 429.193 258.334 429.723 257.342C429.869 257.071 429.982 256.789 430.072 256.485C448.199 197.231 445.876 150.791 423.158 118.462C415.014 106.867 400.011 91.4017 374.8 83.4719C370.796 78.9711 353.853 61.1939 326.127 48.9438C297.205 36.1748 250.732 27.3877 193.531 58.058C144.97 84.0923 120.301 130.837 122.196 193.249C122.997 219.757 128.344 243.558 132.912 259.462C132.653 259.474 132.393 259.485 132.134 259.541C116.804 262.677 105.671 276.337 105.671 292.005C105.671 310.279 120.538 325.146 138.812 325.146C139.996 325.146 141.169 325.067 142.331 324.943C142.399 325.823 142.466 326.691 142.534 327.56C145.083 359.223 158.935 388.946 181.54 411.257L203.942 433.378C203.931 433.49 203.897 433.592 203.886 433.705L200.919 486.089L200.908 486.326C200.175 497.47 194.636 508.164 185.714 515.665C184.935 516.319 183.593 517.143 181.8 518.102C181.8 518.102 181.8 518.102 181.8 518.113C182.691 521.249 183.977 524.148 185.578 526.821C188.444 525.343 190.609 524.035 191.861 522.986C202.769 513.815 209.537 500.685 210.44 486.969L212.966 442.311L229.334 458.476C237.613 466.642 248.566 471.143 260.196 471.143H296.686C308.316 471.143 319.269 466.642 327.549 458.476L347.649 438.623L350.368 486.664L350.391 486.946C351.293 500.674 358.072 513.804 368.98 522.975C369.815 523.674 371.055 524.486 372.635 525.388C374.53 524.103 376.391 522.771 378.23 521.407C379.087 520.617 379.922 519.805 380.756 518.97C378.083 517.639 376.154 516.511 375.139 515.654C366.216 508.153 360.678 497.459 359.945 486.303L356.967 433.693C356.899 432.532 356.403 431.505 355.67 430.715L374.609 412.024C397.8 389.137 411.697 358.659 413.762 326.229C413.795 325.766 413.818 325.293 413.852 324.83C415.363 325.033 416.886 325.146 418.42 325.146C436.694 325.146 451.561 310.279 451.561 292.005C451.538 277.228 441.815 264.505 428.144 260.32ZM138.8 315.569C125.806 315.569 115.225 304.989 115.225 291.994C115.225 280.996 122.918 271.397 133.589 268.994H135.834C137.469 273.991 138.778 277.42 139.353 278.898C139.872 288.655 140.628 301.841 141.598 315.389C140.684 315.502 139.748 315.569 138.8 315.569ZM131.739 192.696C130.013 133.454 152.325 90.9843 198.043 66.4729C241.087 43.394 282.756 40.3823 321.886 57.5166C349.274 69.5185 365.844 87.747 368.078 90.3075C369.059 91.6837 370.672 92.1913 371.755 92.5297C394.507 99.6361 408.009 113.544 415.329 123.956C436.209 153.667 438.138 197.163 421.06 253.247C418.51 258.03 415.927 262.959 413.728 267.212C413.017 263.365 412.408 259.248 412.239 255.774C411.325 237.906 408.618 211.319 400.902 186.142C391.19 154.423 376.165 133.634 356.256 124.351C355.624 124.057 354.948 123.911 354.26 123.911C353.323 123.911 352.387 124.193 351.575 124.723C350.187 125.648 349.387 127.261 349.454 128.93C349.477 129.37 349.804 139.737 339.821 150.238C322.879 168.083 289.839 172.076 265.114 172.291C192.459 172.911 164.056 190.316 152.539 241.257C152.111 243.152 151.716 245.013 151.321 246.829C149.663 254.567 148.253 261.188 145.331 267.167C140.752 253.315 132.675 224.731 131.739 192.696ZM367.875 405.2L320.837 451.64C314.362 458.036 305.789 461.555 296.698 461.555H260.207C251.115 461.555 242.542 458.036 236.068 451.64L188.263 404.433C167.294 383.723 154.434 356.143 152.066 326.77C150.701 309.816 149.64 291.971 148.975 279.405C156.16 270.043 158.371 259.733 160.695 248.848C161.078 247.054 161.462 245.238 161.89 243.377C170.993 203.085 189.47 182.51 265.215 181.856C304.131 181.529 331.677 173.001 347.063 156.51C353.932 149.155 356.877 141.677 358.129 136.285C372.623 145.636 383.915 163.312 391.766 188.94C399.188 213.181 401.805 238.933 402.696 256.259C403.102 264.279 405.459 274.871 406.633 279.755C406.509 280.15 406.418 280.556 406.407 280.996C405.798 297.284 405.042 312.704 404.219 325.586C402.29 355.692 389.385 383.96 367.875 405.2ZM418.398 315.569C417.044 315.569 415.713 315.445 414.393 315.22C414.923 305.586 415.408 295.119 415.837 283.929C415.95 283.76 416.063 283.579 416.164 283.387C416.209 283.297 419.435 276.958 423.575 269.005C434.212 271.385 441.973 280.872 441.973 292.005C441.973 304.989 431.403 315.569 418.398 315.569Z" fill="white" fill-opacity="0.8"/>
<path d="M277.68 346.352C284.414 346.352 290.426 343.657 293.37 339.314C294.476 337.678 294.047 335.445 292.412 334.339C290.776 333.234 288.543 333.662 287.437 335.298C286.129 337.227 282.609 339.19 277.691 339.19C272.773 339.19 269.254 337.238 267.945 335.298C266.84 333.662 264.607 333.234 262.971 334.339C261.335 335.445 260.907 337.678 262.012 339.314C264.934 343.657 270.946 346.352 277.68 346.352Z" fill="white" fill-opacity="0.8"/>
<path d="M319.382 377.609C319.326 377.553 319.292 377.485 319.235 377.44C310.223 368.63 290.268 366.803 279.169 366.499C268.329 366.205 248.995 366.916 239.26 374.699C238.809 374.789 238.38 374.947 237.985 375.162C232.876 378.094 229.108 384.851 228.149 392.804C227.19 400.745 229.243 408.212 233.507 412.273C233.609 412.374 233.733 412.453 233.846 412.544C244.359 421.861 266.366 423.496 278.672 423.632C291.171 423.767 313.697 422.583 324.21 413.108C324.83 412.555 325.225 411.855 325.417 411.1C328.225 406.655 328.857 399.391 327.03 391.912C325.575 385.923 322.777 380.779 319.382 377.609ZM320.047 406.407C319.608 406.576 319.179 406.825 318.807 407.163C312.704 412.656 297.736 415.815 278.774 415.612C259.801 415.409 244.911 411.923 238.933 406.306C238.662 406.046 238.346 405.854 238.031 405.685C236.7 402.933 235.865 398.771 236.463 393.819C237.185 387.806 239.7 383.407 242.08 381.354C242.52 381.208 242.937 380.971 243.31 380.644C248.814 375.827 262.147 373.221 278.988 373.684C295.829 374.146 309.004 377.474 314.238 382.584C314.464 382.798 314.701 382.967 314.96 383.114C316.912 385.291 318.919 388.901 320.081 393.638C321.39 399.008 321.04 403.598 320.047 406.407Z" fill="white" fill-opacity="0.8"/>
<path d="M364.885 246.953C337.193 238.933 319.336 246.795 318.592 247.134C316.798 247.946 315.997 250.067 316.81 251.86C317.622 253.665 319.742 254.466 321.547 253.665C321.705 253.597 337.914 246.604 362.9 253.834C363.238 253.936 363.565 253.981 363.904 253.981C365.46 253.981 366.893 252.966 367.344 251.386C367.885 249.491 366.791 247.495 364.885 246.953Z" fill="white" fill-opacity="0.8"/>
<path d="M233.812 253.665C235.616 254.477 237.726 253.676 238.549 251.871C239.361 250.066 238.572 247.946 236.767 247.122C236.023 246.784 218.166 238.922 190.474 246.942C188.568 247.494 187.473 249.48 188.026 251.386C188.477 252.954 189.91 253.98 191.467 253.98C191.794 253.98 192.132 253.935 192.47 253.834C217.399 246.615 233.586 253.563 233.812 253.665Z" fill="white" fill-opacity="0.8"/>
<path d="M217.693 263.219C211.353 263.219 206.198 270.573 206.198 279.62C206.198 288.666 211.353 296.021 217.693 296.021C224.032 296.021 229.187 288.666 229.187 279.62C229.198 270.573 224.032 263.219 217.693 263.219Z" fill="white" fill-opacity="0.8"/>
<path d="M346.307 263.219C339.967 263.219 334.812 270.573 334.812 279.62C334.812 288.666 339.967 296.021 346.307 296.021C352.646 296.021 357.801 288.666 357.801 279.62C357.801 270.573 352.646 263.219 346.307 263.219Z" fill="white" fill-opacity="0.8"/>
</g>
<defs>
<filter id="filter0_dd_267_2170" x="-15.4302" y="-11.5726" width="594.86" height="594.86" filterUnits="userSpaceOnUse" color-interpolation-filters="sRGB">
<feFlood flood-opacity="0" result="BackgroundImageFix"/>
<feColorMatrix in="SourceAlpha" type="matrix" values="0 0 0 0 0 0 0 0 0 0 0 0 0 0 0 0 0 0 127 0" result="hardAlpha"/>
<feMorphology radius="3.85755" operator="dilate" in="SourceAlpha" result="effect1_dropShadow_267_2170"/>
<feOffset dy="3.85755"/>
<feGaussianBlur stdDeviation="5.78632"/>
<feComposite in2="hardAlpha" operator="out"/>
<feColorMatrix type="matrix" values="0 0 0 0 0.375764 0 0 0 0 0.540935 0 0 0 0 0.805208 0 0 0 0.15 0"/>
<feBlend mode="normal" in2="BackgroundImageFix" result="effect1_dropShadow_267_2170"/>
<feColorMatrix in="SourceAlpha" type="matrix" values="0 0 0 0 0 0 0 0 0 0 0 0 0 0 0 0 0 0 127 0" result="hardAlpha"/>
<feOffset dy="1.92877"/>
<feGaussianBlur stdDeviation="1.92877"/>
<feComposite in2="hardAlpha" operator="out"/>
<feColorMatrix type="matrix" values="0 0 0 0 0.376471 0 0 0 0 0.541176 0 0 0 0 0.803922 0 0 0 0.3 0"/>
<feBlend mode="normal" in2="effect1_dropShadow_267_2170" result="effect2_dropShadow_267_2170"/>
<feBlend mode="normal" in="SourceGraphic" in2="effect2_dropShadow_267_2170" result="shape"/>
</filter>
</defs>
</svg>
