<?xml version="1.0" encoding="utf-8"?>
<svg viewBox="0 0 442 366" width="442" height="366" fill="none" xmlns="http://www.w3.org/2000/svg">
  <path fill-rule="evenodd" clip-rule="evenodd" d="M235.729 9.30509V2.77938e-06H226.424L172.145 0C169.575 -1.12318e-07 167.492 2.08301 167.492 4.65254C167.492 7.22207 169.575 9.30509 172.145 9.30509L226.424 9.30509V63.5848C226.424 66.1543 228.507 68.2373 231.077 68.2373C233.646 68.2373 235.729 66.1543 235.729 63.5847V9.30509Z" fill-opacity="0.9" style="fill: rgb(255, 255, 255);"/>
  <path fill-rule="evenodd" clip-rule="evenodd" d="M9.30509 1.48521e-05L0 1.52588e-05L0 9.3051L-2.03369e-07 63.5848C-9.10515e-08 66.1543 2.08301 68.2373 4.65254 68.2373C7.22207 68.2373 9.30509 66.1543 9.30508 63.5848L9.30509 9.3051L63.5847 9.3051C66.1543 9.3051 68.2373 7.22208 68.2373 4.65255C68.2373 2.08303 66.1543 1.23671e-05 63.5847 1.24794e-05L9.30509 1.48521e-05Z" fill-opacity="0.9" style="fill: rgb(255, 255, 255);"/>
  <path fill-rule="evenodd" clip-rule="evenodd" d="M-0.000961304 248.135L-0.000961304 248.135L63.5838 248.135C66.1533 248.135 68.2363 246.052 68.2363 243.483C68.2363 240.913 66.1533 238.83 63.5838 238.83L9.30412 238.83L9.30413 184.551C9.30413 181.981 7.22111 179.898 4.65159 179.898C2.08206 179.898 -0.00095552 181.981 -0.000955745 184.551L-0.00096049 238.83L-0.000961304 248.135Z" fill-opacity="0.9" style="fill: rgb(255, 255, 255);"/>
  <path fill-rule="evenodd" clip-rule="evenodd" d="M235.729 248.136L235.729 248.136L235.729 184.551C235.729 181.981 233.646 179.898 231.076 179.898C228.506 179.898 226.423 181.981 226.423 184.551L226.423 238.831L172.144 238.831C169.574 238.831 167.491 240.914 167.491 243.483C167.491 246.053 169.574 248.136 172.144 248.136L226.423 248.136L235.729 248.136Z" fill-opacity="0.9" style="fill: rgb(255, 255, 255);"/>
  <path fill-rule="evenodd" clip-rule="evenodd" d="M441.136 189.203V179.898H431.831L377.551 179.898C374.981 179.898 372.898 181.981 372.898 184.551C372.898 187.12 374.981 189.203 377.551 189.203L431.831 189.203V243.483C431.831 246.052 433.914 248.135 436.483 248.135C439.053 248.135 441.136 246.052 441.136 243.483L441.136 189.203Z" fill-opacity="0.8" style="fill: rgb(255, 255, 255);"/>
  <path fill-rule="evenodd" clip-rule="evenodd" d="M264.338 179.898L318.618 179.898C321.187 179.898 323.27 181.981 323.27 184.551C323.27 187.12 321.187 189.203 318.618 189.203L264.338 189.203L264.338 243.483C264.338 246.052 262.255 248.135 259.686 248.135C257.116 248.135 255.033 246.052 255.033 243.483L255.033 189.203L255.033 189.203L255.033 179.898L255.033 179.898L264.338 179.898Z" fill-opacity="0.8" style="fill: rgb(255, 255, 255);"/>
  <path fill-rule="evenodd" clip-rule="evenodd" d="M318.617 356.695L264.337 356.695L264.337 302.415C264.337 299.846 262.254 297.763 259.685 297.763C257.115 297.763 255.032 299.846 255.032 302.415L255.032 356.695L255.032 366L318.617 366C321.187 366 323.27 363.917 323.27 361.347C323.27 358.778 321.187 356.695 318.617 356.695Z" fill-opacity="0.8" style="fill: rgb(255, 255, 255);"/>
  <path fill-rule="evenodd" clip-rule="evenodd" d="M441.135 366H441.135L441.135 302.415C441.135 299.846 439.052 297.763 436.482 297.763C433.913 297.763 431.83 299.846 431.83 302.415L431.83 356.695L377.55 356.695C374.98 356.695 372.897 358.778 372.897 361.347C372.897 363.917 374.98 366 377.55 366L431.83 366L441.135 366Z" fill-opacity="0.8" style="fill: rgb(255, 255, 255);"/>
  <path class="cls-1" d="M 375.071 322.245 C 372.47 322.25 369.962 321.292 368.027 319.555 C 365.192 327.239 355.104 328.973 349.867 322.677 C 349.092 321.747 348.483 320.692 348.065 319.555 C 341.943 324.996 332.228 321.771 330.576 313.75 C 330.43 313.041 330.357 312.319 330.358 311.595 L 330.358 303.067 C 328.522 304.46 326.281 305.21 323.977 305.202 C 318.107 305.189 313.352 300.434 313.339 294.563 L 313.339 251.974 C 313.339 224.118 343.493 206.708 367.617 220.636 C 378.812 227.1 385.709 239.046 385.709 251.974 L 385.709 311.595 C 385.702 317.47 380.945 322.232 375.071 322.245 Z M 351.659 311.595 L 351.659 315.852 C 351.446 320.769 356.633 324.074 360.998 321.8 C 363.201 320.653 364.54 318.333 364.432 315.852 L 364.432 283.913 L 351.659 283.913 L 351.659 311.595 Z M 381.464 251.974 C 381.464 227.368 354.826 211.99 333.518 224.293 C 323.629 230.002 317.536 240.555 317.536 251.974 L 317.536 294.563 C 317.75 299.48 323.206 302.322 327.357 299.679 C 329.117 298.557 330.219 296.648 330.31 294.563 L 330.31 271.14 C 330.186 269.502 331.883 268.344 333.364 269.055 C 334.156 269.436 334.633 270.264 334.568 271.14 L 334.568 311.595 C 334.354 316.511 339.542 319.816 343.907 317.542 C 346.109 316.395 347.448 314.076 347.341 311.595 L 347.341 283.853 L 343.131 283.853 C 339.626 283.853 336.777 281.025 336.751 277.52 C 336.764 269.294 343.433 262.631 351.659 262.624 L 353.143 262.624 C 346.878 258.252 343.141 251.098 343.131 243.458 L 343.131 239.2 C 343.007 237.562 344.704 236.404 346.185 237.116 C 346.978 237.497 347.454 238.324 347.389 239.2 L 347.389 243.458 C 347.403 254.037 355.975 262.611 366.555 262.624 C 368.193 262.501 369.351 264.198 368.64 265.679 C 368.258 266.47 367.431 266.948 366.555 266.882 L 351.659 266.882 C 345.784 266.889 341.022 271.646 341.009 277.52 C 341.001 278.697 341.954 279.655 343.131 279.655 L 375.071 279.655 C 378.601 279.655 381.464 276.793 381.464 273.262 L 381.464 251.974 Z M 381.464 281.778 C 379.621 283.165 377.377 283.915 375.071 283.913 L 368.69 283.913 L 368.69 311.655 C 368.477 316.571 373.664 319.876 378.03 317.603 C 380.232 316.455 381.571 314.136 381.464 311.655 L 381.464 281.778 Z" style="fill: rgb(255, 255, 255);" transform="matrix(-1, 0, 0, -1, 699.047974, 542.249268)"/>
</svg>