<?xml version="1.0" encoding="utf-8"?>
<svg viewBox="0 0 442 366" width="442" height="366" fill="none" xmlns="http://www.w3.org/2000/svg">
  <path fill-rule="evenodd" clip-rule="evenodd" d="M235.729 9.30509V2.77938e-06H226.424L172.145 0C169.575 -1.12318e-07 167.492 2.08301 167.492 4.65254C167.492 7.22207 169.575 9.30509 172.145 9.30509L226.424 9.30509V63.5848C226.424 66.1543 228.507 68.2373 231.077 68.2373C233.646 68.2373 235.729 66.1543 235.729 63.5847V9.30509Z" fill-opacity="0.9" style="fill: rgb(255, 255, 255);"/>
  <path fill-rule="evenodd" clip-rule="evenodd" d="M9.30509 1.48521e-05L0 1.52588e-05L0 9.3051L-2.03369e-07 63.5848C-9.10515e-08 66.1543 2.08301 68.2373 4.65254 68.2373C7.22207 68.2373 9.30509 66.1543 9.30508 63.5848L9.30509 9.3051L63.5847 9.3051C66.1543 9.3051 68.2373 7.22208 68.2373 4.65255C68.2373 2.08303 66.1543 1.23671e-05 63.5847 1.24794e-05L9.30509 1.48521e-05Z" fill-opacity="0.9" style="fill: rgb(255, 255, 255);"/>
  <path fill-rule="evenodd" clip-rule="evenodd" d="M-0.000961304 248.135L-0.000961304 248.135L63.5838 248.135C66.1533 248.135 68.2363 246.052 68.2363 243.483C68.2363 240.913 66.1533 238.83 63.5838 238.83L9.30412 238.83L9.30413 184.551C9.30413 181.981 7.22111 179.898 4.65159 179.898C2.08206 179.898 -0.00095552 181.981 -0.000955745 184.551L-0.00096049 238.83L-0.000961304 248.135Z" fill-opacity="0.9" style="fill: rgb(255, 255, 255);"/>
  <path fill-rule="evenodd" clip-rule="evenodd" d="M235.729 248.136L235.729 248.136L235.729 184.551C235.729 181.981 233.646 179.898 231.076 179.898C228.506 179.898 226.423 181.981 226.423 184.551L226.423 238.831L172.144 238.831C169.574 238.831 167.491 240.914 167.491 243.483C167.491 246.053 169.574 248.136 172.144 248.136L226.423 248.136L235.729 248.136Z" fill-opacity="0.9" style="fill: rgb(255, 255, 255);"/>
  <path fill-rule="evenodd" clip-rule="evenodd" d="M441.136 189.203V179.898H431.831L377.551 179.898C374.981 179.898 372.898 181.981 372.898 184.551C372.898 187.12 374.981 189.203 377.551 189.203L431.831 189.203V243.483C431.831 246.052 433.914 248.135 436.483 248.135C439.053 248.135 441.136 246.052 441.136 243.483L441.136 189.203Z" fill-opacity="0.8" style="fill: rgb(255, 255, 255);"/>
  <path fill-rule="evenodd" clip-rule="evenodd" d="M264.338 179.898L318.618 179.898C321.187 179.898 323.27 181.981 323.27 184.551C323.27 187.12 321.187 189.203 318.618 189.203L264.338 189.203L264.338 243.483C264.338 246.052 262.255 248.135 259.686 248.135C257.116 248.135 255.033 246.052 255.033 243.483L255.033 189.203L255.033 189.203L255.033 179.898L255.033 179.898L264.338 179.898Z" fill-opacity="0.8" style="fill: rgb(255, 255, 255);"/>
  <path fill-rule="evenodd" clip-rule="evenodd" d="M318.617 356.695L264.337 356.695L264.337 302.415C264.337 299.846 262.254 297.763 259.685 297.763C257.115 297.763 255.032 299.846 255.032 302.415L255.032 356.695L255.032 366L318.617 366C321.187 366 323.27 363.917 323.27 361.347C323.27 358.778 321.187 356.695 318.617 356.695Z" fill-opacity="0.8" style="fill: rgb(255, 255, 255);"/>
  <path fill-rule="evenodd" clip-rule="evenodd" d="M441.135 366H441.135L441.135 302.415C441.135 299.846 439.052 297.763 436.482 297.763C433.913 297.763 431.83 299.846 431.83 302.415L431.83 356.695L377.55 356.695C374.98 356.695 372.897 358.778 372.897 361.347C372.897 363.917 374.98 366 377.55 366L431.83 366L441.135 366Z" fill-opacity="0.8" style="fill: rgb(255, 255, 255);"/>
  <path class="cls-1" d="M 385.075 324.999 C 379.574 326.647 373.772 323.547 372.086 318.056 L 364.151 293.577 L 358.164 319.721 C 356.374 327.543 346.786 330.493 340.907 325.031 C 338.179 322.497 337.01 318.698 337.841 315.068 L 341.679 297.355 C 336.087 300.826 328.718 298.282 326.458 292.101 C 320.47 297.419 310.971 294.26 309.36 286.415 C 309.217 285.718 309.145 285.007 309.147 284.295 L 309.147 255.01 C 309.147 227.74 338.668 210.696 362.285 224.331 C 373.246 230.659 379.998 242.354 379.998 255.01 L 379.998 273.491 L 392.066 311.974 C 393.719 317.501 390.595 323.323 385.075 324.999 Z M 346.615 323.499 C 349.983 324.242 353.322 322.135 354.102 318.776 L 361.529 286.315 L 348.327 286.315 L 341.915 315.954 C 341.135 319.334 343.237 322.709 346.615 323.499 Z M 329.977 284.295 L 329.977 288.44 C 329.977 293.248 335.182 296.255 339.347 293.849 C 341.28 292.734 342.47 290.672 342.47 288.44 L 342.47 286.338 L 338.314 286.338 C 334.862 286.332 332.067 283.531 332.067 280.08 C 332.062 276.146 333.646 272.378 336.46 269.629 L 336.224 269.629 C 332.769 269.649 329.977 272.456 329.977 275.911 L 329.977 284.295 Z M 313.315 275.899 L 313.315 284.295 C 313.315 289.104 318.521 292.11 322.685 289.705 C 324.618 288.589 325.809 286.527 325.809 284.295 L 325.809 271.684 C 325.809 266.875 320.604 263.87 316.439 266.274 C 314.506 267.39 313.315 269.452 313.315 271.684 L 313.315 275.899 Z M 375.806 273.821 L 375.806 255.01 C 375.806 230.958 349.768 215.926 328.938 227.951 C 319.27 233.533 313.315 243.848 313.315 255.01 L 313.315 263.359 C 318.889 259.161 326.934 261.532 329.339 268.082 C 332.534 265.222 337.164 264.634 340.971 266.606 C 342.761 265.834 344.689 265.432 346.639 265.425 L 348.079 265.425 C 341.961 261.125 338.319 254.116 338.314 246.638 L 338.314 242.458 C 338.193 240.853 339.855 239.72 341.304 240.417 C 342.08 240.791 342.547 241.601 342.482 242.458 L 342.482 246.638 C 342.475 257.002 350.858 265.417 361.222 265.449 C 362.827 265.569 363.698 267.382 362.792 268.712 C 362.434 269.236 361.856 269.57 361.222 269.617 L 346.639 269.617 C 345.035 269.62 343.454 269.995 342.022 270.716 C 341.902 270.79 341.775 270.854 341.644 270.905 C 338.303 272.75 336.228 276.263 336.224 280.08 C 336.23 281.231 337.162 282.164 338.314 282.17 L 369.559 282.17 C 373.014 282.151 375.806 279.344 375.806 275.888 L 375.806 273.821 Z M 388.086 313.202 L 378.191 281.733 C 376.259 284.608 373.024 286.335 369.559 286.338 L 366.182 286.338 L 376.113 316.804 C 377.328 321.456 383.123 323.051 386.545 319.672 C 388.236 318.002 388.834 315.518 388.086 313.261 L 388.086 313.202 Z" style="fill: rgb(255, 255, 255);" transform="matrix(-1, 0, 0, -1, 701.655212, 547.358643)"/>
</svg>