<svg width="565" height="488" viewBox="0 0 565 488" fill="none" xmlns="http://www.w3.org/2000/svg">
<g filter="url(#filter0_dd_80_5430)">
<path d="M363.748 287.535C358.828 289.404 352.714 291.735 352.141 293.107C352.141 293.119 351.723 294.195 353.526 298.241C355.926 303.611 355.007 307.739 353.825 310.247C352.022 314.056 348.571 316.517 344.953 318.208C346.78 320.065 348.237 322.265 348.834 324.773C349.646 328.251 348.678 331.752 346.111 334.651C344.917 335.987 343.759 337.194 342.66 338.329C337.991 343.156 336.248 344.954 337.335 351.365C339.09 361.751 340.32 371.427 340.547 373.344C341.108 375.851 343.102 386.876 337.108 395.511C334.612 399.107 329.704 403.638 320.45 404.773C314.229 405.542 306.157 404.856 297.596 404.135C283.708 402.952 266.43 401.485 260.221 407.34C259.015 408.476 257.427 410.57 257.606 415.526C258.179 431.034 260.519 439.989 264.579 442.142C269.976 445.016 275.111 447.477 280.544 450.079C284.807 452.125 289.201 454.231 293.989 456.668C296.963 458.182 298.133 461.79 296.616 464.735C295.542 466.805 293.428 468 291.231 468C290.3 468 289.356 467.787 288.473 467.338C283.816 464.972 279.481 462.89 275.29 460.879C269.738 458.217 264.484 455.698 258.872 452.705C246.644 446.199 245.892 425.77 245.534 415.964C245.271 408.713 247.408 402.893 251.898 398.658C262.048 389.076 281.499 390.732 298.658 392.187C306.563 392.862 314.026 393.489 318.97 392.873C322.85 392.4 325.513 391.04 327.125 388.745C329.991 384.652 329.239 378.004 328.713 375.78C328.666 375.556 328.618 375.307 328.582 375.082C328.57 374.976 327.28 364.401 325.406 353.341C323.316 341.003 328.713 335.419 333.931 330.025C334.839 329.091 335.782 328.109 336.75 327.033C336.26 326.429 335.352 325.672 334.23 324.903C321.788 323.933 307.136 321.165 299.196 313.879C297.476 312.305 297.381 309.656 298.969 307.952C300.557 306.249 303.232 306.154 304.951 307.728C310.002 312.353 320.976 315.487 335.281 316.576C335.567 316.339 335.854 316.079 336.129 315.783C338.063 313.713 339.651 311.395 341.287 309.1C342.015 308.071 342.338 306.947 342.338 305.835C342.589 305.61 342.78 305.374 342.887 305.137C343.054 304.782 342.899 304.013 342.481 303.067C340.654 298.974 338.827 293.615 340.989 288.482C343.556 282.354 349.872 279.953 359.437 276.321L361.742 275.446C364.56 274.369 366.434 272.997 366.769 271.791C367.151 270.419 365.909 268.408 365.718 268.159C365.467 267.84 365.24 267.497 365.061 267.13C364.416 265.864 349.323 235.818 345.347 220.559C342.744 210.528 346.111 203.229 349.084 196.771C351.305 191.956 353.216 187.804 352.798 182.599C352.129 174.212 347.723 156.22 344.248 145.432C321.8 161.129 281.464 164.643 249.916 164.643C237.545 164.643 228.9 164.051 227.431 163.909C227.193 163.886 226.918 163.862 226.619 163.838C226.572 163.838 226.512 163.827 226.452 163.827C226.225 163.815 225.975 163.803 225.724 163.791C225.545 163.779 225.342 163.779 225.139 163.767C225.043 163.767 224.936 163.756 224.828 163.756C223.539 163.708 221.795 163.673 219.395 163.673C219.216 163.673 219.049 163.673 218.87 163.673C218.691 163.673 218.512 163.673 218.309 163.673C217.652 163.673 216.995 163.673 216.326 163.673C216.195 163.673 216.076 163.673 215.944 163.673C215.419 163.673 214.894 163.685 214.368 163.685C214.189 163.685 214.01 163.685 213.831 163.685C213.329 163.685 212.816 163.696 212.326 163.696C212.195 163.696 212.075 163.696 211.944 163.696C208.625 163.744 205.556 163.803 203.55 163.85C203.287 164.335 202.953 165.033 202.583 166.015C201.89 167.825 201.042 170.605 200.182 174.804C200.063 175.407 199.932 176.046 199.812 176.697C199.693 177.347 199.573 178.033 199.454 178.743C198.678 183.368 198.009 188.81 197.484 194.913C196.421 207.204 194.558 217.673 192.051 225.988C191.836 226.686 191.633 227.361 191.406 228.023C190.092 231.998 188.624 235.428 187.012 238.267C186.749 238.74 186.474 239.202 186.2 239.639C185.65 240.515 185.077 241.331 184.492 242.088C183.907 242.845 183.31 243.519 182.701 244.122C181.782 245.033 180.838 245.79 179.859 246.394C179.537 246.595 179.202 246.772 178.868 246.938C177.865 247.423 176.838 247.754 175.787 247.908C175.477 247.955 175.154 247.979 174.844 248.002C174.832 248.002 174.808 248.014 174.796 248.014C174.772 248.014 174.76 248.014 174.737 248.014H174.725H174.713C174.701 248.014 174.701 248.014 174.701 248.014C174.629 248.014 174.545 248.014 174.474 248.014C174.45 248.014 174.426 248.014 174.402 248.014C174.39 248.014 174.39 248.014 174.378 248.014H174.366C174.032 248.014 173.65 247.991 173.232 247.943C173.196 247.943 173.16 247.931 173.125 247.931C172.814 247.884 172.492 247.837 172.169 247.754C171.477 247.588 170.856 247.352 170.259 247.068C170.139 247.009 170.008 246.961 169.889 246.902C169.877 246.89 169.853 246.879 169.841 246.879C169.817 246.867 169.805 246.855 169.781 246.843C169.757 246.831 169.745 246.819 169.721 246.808C169.077 246.453 168.48 246.003 167.882 245.459C167.847 245.424 167.799 245.376 167.763 245.341C167.5 245.092 167.238 244.844 166.975 244.56C165.542 243.011 164.097 240.905 162.33 238.267C162.246 238.137 162.163 238.03 162.079 237.9C162.079 237.9 162.079 237.9 162.079 237.889C157.207 230.673 152.849 225.149 148.455 221.813C145.505 219.624 142.293 218.205 138.842 218.205C135.989 218.205 132.92 219.175 129.708 221.079C129.708 221.079 129.696 221.079 129.696 221.091C127.248 222.546 125.445 224.273 124.179 226.355C123.045 228.224 121.982 231.134 122.042 235.452C122.042 235.842 122.066 236.232 122.089 236.646C122.137 237.38 122.209 238.149 122.316 238.965C122.77 242.336 123.833 246.37 125.815 251.184C126.066 251.788 126.328 252.403 126.603 253.03C128.812 258.045 131.976 263.842 136.407 270.549C136.956 271.377 137.338 271.968 137.529 272.311L137.541 272.323C137.553 272.347 137.577 272.382 137.589 272.406C137.66 272.512 137.672 272.536 137.708 272.619C137.72 272.642 137.732 272.678 137.756 272.702C137.768 272.713 137.768 272.725 137.78 272.749C137.804 272.796 137.839 272.855 137.863 272.903C137.875 272.926 137.887 272.95 137.899 272.974C137.923 273.021 137.947 273.068 137.959 273.116C137.971 273.139 137.983 273.175 137.995 273.198C138.019 273.246 138.03 273.281 138.054 273.329C138.066 273.352 138.078 273.388 138.09 273.411C138.102 273.459 138.126 273.494 138.138 273.541C138.15 273.577 138.162 273.601 138.174 273.636C138.186 273.683 138.198 273.719 138.222 273.766C138.233 273.802 138.245 273.837 138.257 273.873C138.269 273.92 138.281 273.955 138.293 274.003C138.305 274.038 138.317 274.074 138.317 274.121C138.329 274.168 138.341 274.216 138.353 274.251C138.365 274.287 138.365 274.334 138.377 274.369C138.389 274.417 138.389 274.464 138.401 274.511C138.413 274.559 138.413 274.606 138.425 274.653C138.436 274.701 138.436 274.748 138.448 274.807C138.448 274.854 138.46 274.902 138.46 274.949C138.46 274.996 138.472 275.056 138.472 275.115C138.472 275.162 138.484 275.221 138.484 275.268C138.484 275.328 138.484 275.387 138.496 275.446C138.496 275.505 138.496 275.552 138.496 275.612C138.496 275.671 138.496 275.742 138.496 275.801C138.496 275.86 138.496 275.919 138.496 275.99C138.496 276.061 138.496 276.12 138.484 276.191C138.484 276.262 138.484 276.321 138.472 276.392C138.472 276.463 138.46 276.534 138.46 276.617C138.46 276.688 138.448 276.759 138.448 276.83C138.436 276.913 138.436 276.996 138.425 277.078C138.413 277.149 138.413 277.22 138.401 277.303C138.389 277.398 138.377 277.492 138.365 277.587C138.353 277.658 138.353 277.741 138.341 277.812C138.329 277.918 138.317 278.025 138.293 278.131C138.281 278.202 138.269 278.285 138.257 278.356C138.245 278.474 138.221 278.592 138.21 278.723C138.198 278.805 138.186 278.876 138.174 278.959C138.15 279.089 138.126 279.231 138.102 279.373C138.09 279.444 138.078 279.527 138.066 279.598C138.042 279.752 138.018 279.905 137.983 280.071C137.971 280.142 137.959 280.225 137.947 280.296C137.911 280.473 137.887 280.651 137.851 280.828C137.839 280.899 137.827 280.97 137.816 281.041C137.78 281.23 137.744 281.431 137.708 281.621C137.696 281.692 137.684 281.774 137.66 281.845C137.613 282.058 137.577 282.283 137.529 282.508C137.517 282.579 137.505 282.638 137.493 282.709C137.445 282.957 137.386 283.218 137.326 283.49C137.314 283.537 137.302 283.584 137.302 283.632C137.242 283.892 137.183 284.176 137.123 284.46C137.111 284.519 137.099 284.578 137.087 284.637C137.027 284.933 136.956 285.252 136.884 285.56C136.872 285.595 136.872 285.643 136.86 285.678C136.789 285.974 136.717 286.293 136.645 286.613C136.633 286.684 136.609 286.766 136.598 286.837C136.526 287.145 136.454 287.452 136.383 287.772C136.359 287.866 136.347 287.949 136.323 288.044C136.263 288.328 136.192 288.612 136.12 288.907C136.084 289.061 136.048 289.203 136.012 289.369C135.965 289.582 135.905 289.818 135.857 290.043C135.809 290.268 135.75 290.493 135.69 290.729C135.654 290.895 135.606 291.072 135.571 291.25C135.499 291.533 135.439 291.806 135.368 292.101V292.113C135.368 292.125 135.368 292.125 135.368 292.137V292.149C135.356 292.184 135.356 292.22 135.344 292.255L134.95 293.864C134.95 293.876 134.95 293.887 134.938 293.899L134.484 295.768C134.245 296.726 134.006 297.732 133.756 298.737C133.565 299.506 133.374 300.287 133.171 301.091C132.311 304.534 131.379 308.201 130.4 311.974C130.161 312.909 129.923 313.843 129.672 314.789C129.385 315.901 129.087 317.025 128.8 318.161C123.51 338.424 117.552 360.19 115.367 368.151L114.197 372.409V406.501C114.197 407.991 114.232 410.404 114.28 413.219C114.435 423.18 114.543 431.744 114.173 435.683C113.85 439.078 112.608 442.189 110.483 444.921C107.044 449.346 102.065 451.901 97.6705 454.172C96.8943 454.574 96.1301 454.964 95.4017 455.355C95.0435 455.544 94.0643 456.029 92.715 456.68C85.0848 460.382 80.3802 462.831 78.7204 463.966C77.6219 465.421 75.8546 466.356 73.8844 466.356C70.5409 466.356 67.8304 463.671 67.8304 460.358C67.8304 455.757 70.7917 453.959 87.4014 445.903C88.5119 445.359 89.3239 444.969 89.6343 444.803C90.4224 444.377 91.2583 443.951 92.0941 443.514C95.5331 441.739 99.0914 439.906 100.894 437.587C101.623 436.653 102.017 435.683 102.124 434.547C102.471 430.939 102.292 420.388 102.184 413.397C102.136 410.499 102.101 408.015 102.101 406.489V372.492C99.8795 368.671 89.4552 356.156 84.8699 350.643C81.6579 346.787 79.7951 344.54 78.9712 343.428C48.3191 301.766 0.0542898 218.477 21.1895 128.67C32.0199 82.6671 73.7769 38.3079 120.501 23.1785C143.081 15.8681 169.435 12 196.708 12C236.853 12 274.49 20.3395 302.706 35.4689C334.075 52.3017 368.058 85.163 360.548 122.377C359.521 127.476 357.3 132.184 353.968 136.442C358.231 147.573 364.082 171.172 364.918 181.629C365.587 189.945 362.697 196.203 360.142 201.739C357.598 207.263 355.58 211.628 357.121 217.542C360.536 230.673 373.862 257.608 375.724 261.334C377.014 263.179 380.238 268.644 378.495 274.937C377.074 280.095 372.918 284.022 366.148 286.613L363.748 287.535ZM296.855 46.0442C270.382 31.8374 234.787 24.0184 196.624 24.0184C170.605 24.0184 145.553 27.6736 124.179 34.6054C81.216 48.5164 42.8263 89.2322 32.9035 131.415C12.8668 216.561 59.2449 296.383 88.6791 336.378C89.3239 337.265 91.6642 340.068 94.136 343.026C99.175 349.07 102.936 353.672 105.754 357.232C107.366 351.341 109.48 343.534 111.749 335.076C111.761 335.029 111.773 334.994 111.785 334.946C112.513 332.237 113.253 329.446 113.994 326.642C114.029 326.524 114.053 326.406 114.089 326.287C114.22 325.767 114.364 325.258 114.495 324.738C114.579 324.407 114.674 324.064 114.758 323.732C114.877 323.283 114.997 322.833 115.116 322.384C115.212 322.005 115.319 321.627 115.415 321.248C115.522 320.834 115.629 320.42 115.737 320.006C115.88 319.474 116.024 318.93 116.155 318.397C116.227 318.137 116.298 317.865 116.358 317.605C116.561 316.836 116.764 316.067 116.955 315.298C117.05 314.943 117.134 314.6 117.23 314.245C117.349 313.772 117.48 313.287 117.6 312.814C117.683 312.471 117.779 312.128 117.862 311.785C117.982 311.312 118.101 310.85 118.221 310.389C118.304 310.058 118.388 309.727 118.471 309.407C118.603 308.899 118.734 308.39 118.865 307.893C118.937 307.597 119.021 307.313 119.092 307.018C119.283 306.284 119.474 305.551 119.654 304.829C119.665 304.794 119.677 304.758 119.677 304.723C119.88 303.942 120.071 303.161 120.274 302.393C120.322 302.203 120.37 302.026 120.418 301.837C120.561 301.257 120.704 300.689 120.848 300.11C120.907 299.873 120.967 299.648 121.027 299.424C121.158 298.915 121.278 298.406 121.409 297.909C121.469 297.661 121.528 297.413 121.6 297.164C121.731 296.655 121.851 296.159 121.97 295.662C122.018 295.449 122.078 295.236 122.125 295.035C122.292 294.337 122.46 293.651 122.627 292.977V292.965L122.639 292.917L123.451 289.534C123.463 289.487 123.475 289.452 123.487 289.404C123.534 289.18 123.594 288.967 123.642 288.754C124.143 286.636 124.549 284.85 124.884 283.371C124.896 283.348 124.896 283.312 124.908 283.289C124.979 282.957 125.051 282.638 125.122 282.33C125.134 282.295 125.134 282.259 125.146 282.224C125.218 281.916 125.278 281.621 125.337 281.337C125.337 281.325 125.349 281.313 125.349 281.289C125.791 279.196 126.03 277.895 126.149 277.09C124.155 274.074 122.352 271.128 120.728 268.277C120.704 268.23 120.68 268.183 120.645 268.147C120.358 267.639 120.083 267.142 119.809 266.645C119.689 266.432 119.558 266.207 119.451 265.994C119.212 265.557 118.985 265.119 118.758 264.681C118.615 264.409 118.459 264.137 118.328 263.865C118.137 263.487 117.958 263.12 117.767 262.753C117.6 262.422 117.433 262.091 117.265 261.771C117.122 261.476 116.991 261.192 116.847 260.896C116.656 260.494 116.465 260.104 116.274 259.713C116.167 259.477 116.059 259.252 115.964 259.015C115.761 258.566 115.558 258.116 115.355 257.679C115.271 257.478 115.188 257.288 115.104 257.087C114.901 256.614 114.698 256.141 114.507 255.679C114.435 255.49 114.364 255.313 114.292 255.124C114.101 254.65 113.91 254.177 113.731 253.716C113.659 253.538 113.6 253.361 113.54 253.184C113.361 252.71 113.194 252.249 113.026 251.788C112.967 251.61 112.907 251.445 112.859 251.279C112.704 250.818 112.537 250.356 112.394 249.895C112.334 249.718 112.286 249.552 112.238 249.386C112.095 248.937 111.952 248.476 111.832 248.038C111.785 247.872 111.749 247.707 111.701 247.541C111.582 247.092 111.45 246.642 111.343 246.204C111.295 246.027 111.259 245.85 111.223 245.672C111.116 245.246 111.02 244.82 110.925 244.406C110.889 244.241 110.865 244.075 110.829 243.91C110.746 243.484 110.65 243.058 110.579 242.644C110.543 242.478 110.531 242.313 110.495 242.147C110.423 241.733 110.352 241.319 110.292 240.917C110.268 240.739 110.244 240.574 110.232 240.396C110.184 240.006 110.125 239.604 110.089 239.213C110.065 239.048 110.065 238.87 110.041 238.705C110.005 238.314 109.97 237.936 109.946 237.557C109.934 237.38 109.934 237.202 109.922 237.037C109.898 236.67 109.886 236.303 109.874 235.937C109.874 235.759 109.874 235.582 109.874 235.404C109.874 235.05 109.862 234.695 109.874 234.352C109.874 234.174 109.886 233.997 109.898 233.807C109.91 233.464 109.922 233.121 109.946 232.79C109.958 232.601 109.981 232.423 109.993 232.234C110.017 231.915 110.053 231.584 110.089 231.264C110.113 231.075 110.149 230.886 110.173 230.696C110.22 230.389 110.256 230.081 110.304 229.774C110.34 229.584 110.376 229.407 110.411 229.218C110.471 228.922 110.519 228.615 110.59 228.319C110.626 228.13 110.686 227.952 110.722 227.763C110.793 227.479 110.865 227.183 110.937 226.899C110.984 226.71 111.044 226.533 111.104 226.343C111.188 226.071 111.271 225.787 111.355 225.515C111.414 225.326 111.486 225.149 111.558 224.971C111.653 224.699 111.749 224.427 111.856 224.167C111.928 223.989 112.011 223.812 112.083 223.634C112.191 223.374 112.298 223.114 112.417 222.854C112.501 222.676 112.596 222.499 112.68 222.321C112.799 222.073 112.919 221.825 113.05 221.576C113.146 221.399 113.253 221.221 113.349 221.044C113.468 220.819 113.588 220.594 113.719 220.381C113.743 220.346 113.755 220.322 113.779 220.287C113.922 220.038 114.077 219.802 114.22 219.553C114.34 219.364 114.447 219.163 114.567 218.974C114.77 218.678 114.985 218.382 115.188 218.087C115.307 217.921 115.426 217.744 115.546 217.578C115.785 217.27 116.047 216.975 116.298 216.667C116.418 216.537 116.525 216.395 116.633 216.253C116.967 215.875 117.325 215.508 117.695 215.153C117.743 215.106 117.779 215.058 117.827 215.023C118.245 214.621 118.662 214.23 119.116 213.864C119.271 213.733 119.451 213.603 119.606 213.473C119.904 213.237 120.191 213 120.501 212.775C120.704 212.622 120.931 212.491 121.134 212.338C121.409 212.148 121.683 211.947 121.982 211.77C122.209 211.628 122.448 211.498 122.675 211.356C122.949 211.19 123.224 211.025 123.498 210.871C124.155 210.48 124.824 210.114 125.493 209.771C126.078 209.463 126.663 209.191 127.248 208.931C127.284 208.919 127.32 208.895 127.355 208.884C138.329 203.927 147.452 206.494 154.783 211.699C154.927 211.794 155.058 211.9 155.201 211.995C155.416 212.148 155.631 212.302 155.846 212.468C163.023 217.874 168.336 225.74 172.121 231.347C172.862 232.435 173.674 233.654 174.402 234.671C174.51 234.813 174.617 234.967 174.713 235.109C176.384 233.039 179.035 228.212 181.388 219.128C181.638 218.169 181.877 217.164 182.116 216.111C183.441 210.327 184.612 203.052 185.4 194.003C185.412 193.801 185.435 193.612 185.459 193.411C185.913 188.254 186.474 183.534 187.107 179.334C187.239 178.506 187.358 177.678 187.501 176.886C187.633 176.105 187.764 175.348 187.895 174.626C188.027 173.905 188.17 173.207 188.301 172.545C188.731 170.451 189.245 168.168 189.889 165.92C190.045 165.352 190.224 164.796 190.403 164.241C190.761 163.129 191.143 162.04 191.585 160.999C192.027 159.958 192.481 158.953 193.006 158.03C193.519 157.108 194.081 156.256 194.69 155.499C195.609 154.363 196.636 153.452 197.794 152.849C198.57 152.447 199.406 152.187 200.302 152.08C200.469 152.057 200.648 152.045 200.815 152.045C202.523 151.997 214.774 151.654 223.037 151.808C223.228 151.808 223.395 151.82 223.574 151.82C223.754 151.82 223.933 151.832 224.112 151.832C224.351 151.844 224.577 151.844 224.804 151.855C224.864 151.855 224.912 151.855 224.96 151.855C225.437 151.867 225.867 151.891 226.285 151.903C226.392 151.903 226.5 151.915 226.607 151.915C226.775 151.926 226.942 151.926 227.097 151.938C227.264 151.95 227.407 151.962 227.563 151.974C227.67 151.986 227.79 151.986 227.897 151.997C228.16 152.021 228.41 152.033 228.637 152.057C229.76 152.163 237.987 152.731 249.928 152.731C258.454 152.731 266.561 152.459 274.204 151.926C274.323 151.915 274.442 151.915 274.562 151.903C275.314 151.844 276.054 151.784 276.807 151.737C283.625 151.193 290.634 150.4 297.476 149.277C297.667 149.241 297.87 149.218 298.061 149.182C298.587 149.099 299.112 149.005 299.637 148.91C318.719 145.539 333.036 140.015 341.108 132.692C341.168 132.645 341.215 132.598 341.275 132.539C341.705 132.136 342.123 131.734 342.517 131.332L342.529 131.32C345.801 127.925 347.795 124.27 348.631 120.118C354.804 89.244 324.606 60.937 296.855 46.0442Z" fill="white" fill-opacity="0.8"/>
<g clip-path="url(#clip0_80_5430)">
<path d="M458.773 246.932L459.014 246.831L422.784 232.117C421.431 231.485 420.373 230.358 419.829 228.968C419.285 227.578 419.296 226.032 419.86 224.65C420.424 223.268 421.498 222.156 422.859 221.544C424.221 220.932 425.766 220.867 427.174 221.362L476.394 241.352C477.294 241.692 478.094 242.249 478.726 242.974C479.357 243.698 479.798 244.568 480.011 245.506C480.202 246.616 480.084 247.758 479.669 248.806L459.606 298.153C459.031 299.581 457.913 300.723 456.497 301.328C455.435 301.783 454.262 301.913 453.127 301.699C451.992 301.485 450.946 300.938 450.123 300.128C449.3 299.318 448.737 298.28 448.506 297.149C448.275 296.017 448.386 294.842 448.825 293.774L463.538 257.544C434.314 269.854 411.175 293.267 399.21 322.634C387.246 352.002 387.436 384.919 399.738 414.147C400.338 415.567 400.349 417.168 399.769 418.597C399.189 420.026 398.064 421.166 396.644 421.766C395.223 422.366 393.622 422.377 392.193 421.797C390.764 421.216 389.624 420.092 389.024 418.671C375.54 386.644 375.31 350.576 388.386 318.379C401.462 286.183 426.775 260.488 458.773 246.932V246.932Z" fill="white" fill-opacity="0.8"/>
</g>
</g>
<defs>
<filter id="filter0_dd_80_5430" x="0.5698" y="0.42735" width="563.759" height="486.86" filterUnits="userSpaceOnUse" color-interpolation-filters="sRGB">
<feFlood flood-opacity="0" result="BackgroundImageFix"/>
<feColorMatrix in="SourceAlpha" type="matrix" values="0 0 0 0 0 0 0 0 0 0 0 0 0 0 0 0 0 0 127 0" result="hardAlpha"/>
<feMorphology radius="3.85755" operator="dilate" in="SourceAlpha" result="effect1_dropShadow_80_5430"/>
<feOffset dy="3.85755"/>
<feGaussianBlur stdDeviation="5.78632"/>
<feComposite in2="hardAlpha" operator="out"/>
<feColorMatrix type="matrix" values="0 0 0 0 0.375764 0 0 0 0 0.540935 0 0 0 0 0.805208 0 0 0 0.15 0"/>
<feBlend mode="normal" in2="BackgroundImageFix" result="effect1_dropShadow_80_5430"/>
<feColorMatrix in="SourceAlpha" type="matrix" values="0 0 0 0 0 0 0 0 0 0 0 0 0 0 0 0 0 0 127 0" result="hardAlpha"/>
<feOffset dy="1.92877"/>
<feGaussianBlur stdDeviation="1.92877"/>
<feComposite in2="hardAlpha" operator="out"/>
<feColorMatrix type="matrix" values="0 0 0 0 0.376471 0 0 0 0 0.541176 0 0 0 0 0.803922 0 0 0 0.3 0"/>
<feBlend mode="normal" in2="effect1_dropShadow_80_5430" result="effect2_dropShadow_80_5430"/>
<feBlend mode="normal" in="SourceGraphic" in2="effect2_dropShadow_80_5430" result="shape"/>
</filter>
<clipPath id="clip0_80_5430">
<rect width="186.081" height="186.081" fill="white" transform="matrix(-0.921209 0.389068 0.389068 0.921209 476.5 192.354)"/>
</clipPath>
</defs>
</svg>
