<?xml version="1.0" encoding="utf-8"?>
<svg viewBox="0 0 442 366" width="442" height="366" fill="none" xmlns="http://www.w3.org/2000/svg">
  <path fill-rule="evenodd" clip-rule="evenodd" d="M235.729 9.30509V2.77938e-06H226.424L172.145 0C169.575 -1.12318e-07 167.492 2.08301 167.492 4.65254C167.492 7.22207 169.575 9.30509 172.145 9.30509L226.424 9.30509V63.5848C226.424 66.1543 228.507 68.2373 231.077 68.2373C233.646 68.2373 235.729 66.1543 235.729 63.5847V9.30509Z" fill-opacity="0.9" style="fill: rgb(255, 255, 255);"/>
  <path fill-rule="evenodd" clip-rule="evenodd" d="M9.30509 1.48521e-05L0 1.52588e-05L0 9.3051L-2.03369e-07 63.5848C-9.10515e-08 66.1543 2.08301 68.2373 4.65254 68.2373C7.22207 68.2373 9.30509 66.1543 9.30508 63.5848L9.30509 9.3051L63.5847 9.3051C66.1543 9.3051 68.2373 7.22208 68.2373 4.65255C68.2373 2.08303 66.1543 1.23671e-05 63.5847 1.24794e-05L9.30509 1.48521e-05Z" fill-opacity="0.9" style="fill: rgb(255, 255, 255);"/>
  <path fill-rule="evenodd" clip-rule="evenodd" d="M-0.000961304 248.135L-0.000961304 248.135L63.5838 248.135C66.1533 248.135 68.2363 246.052 68.2363 243.483C68.2363 240.913 66.1533 238.83 63.5838 238.83L9.30412 238.83L9.30413 184.551C9.30413 181.981 7.22111 179.898 4.65159 179.898C2.08206 179.898 -0.00095552 181.981 -0.000955745 184.551L-0.00096049 238.83L-0.000961304 248.135Z" fill-opacity="0.9" style="fill: rgb(255, 255, 255);"/>
  <path fill-rule="evenodd" clip-rule="evenodd" d="M235.729 248.136L235.729 248.136L235.729 184.551C235.729 181.981 233.646 179.898 231.076 179.898C228.506 179.898 226.423 181.981 226.423 184.551L226.423 238.831L172.144 238.831C169.574 238.831 167.491 240.914 167.491 243.483C167.491 246.053 169.574 248.136 172.144 248.136L226.423 248.136L235.729 248.136Z" fill-opacity="0.9" style="fill: rgb(255, 255, 255);"/>
  <path fill-rule="evenodd" clip-rule="evenodd" d="M441.136 189.203V179.898H431.831L377.551 179.898C374.981 179.898 372.898 181.981 372.898 184.551C372.898 187.12 374.981 189.203 377.551 189.203L431.831 189.203V243.483C431.831 246.052 433.914 248.135 436.483 248.135C439.053 248.135 441.136 246.052 441.136 243.483L441.136 189.203Z" fill-opacity="0.8" style="fill: rgb(255, 255, 255);"/>
  <path fill-rule="evenodd" clip-rule="evenodd" d="M264.338 179.898L318.618 179.898C321.187 179.898 323.27 181.981 323.27 184.551C323.27 187.12 321.187 189.203 318.618 189.203L264.338 189.203L264.338 243.483C264.338 246.052 262.255 248.135 259.686 248.135C257.116 248.135 255.033 246.052 255.033 243.483L255.033 189.203L255.033 189.203L255.033 179.898L255.033 179.898L264.338 179.898Z" fill-opacity="0.8" style="fill: rgb(255, 255, 255);"/>
  <path fill-rule="evenodd" clip-rule="evenodd" d="M318.617 356.695L264.337 356.695L264.337 302.415C264.337 299.846 262.254 297.763 259.685 297.763C257.115 297.763 255.032 299.846 255.032 302.415L255.032 356.695L255.032 366L318.617 366C321.187 366 323.27 363.917 323.27 361.347C323.27 358.778 321.187 356.695 318.617 356.695Z" fill-opacity="0.8" style="fill: rgb(255, 255, 255);"/>
  <path fill-rule="evenodd" clip-rule="evenodd" d="M441.135 366H441.135L441.135 302.415C441.135 299.846 439.052 297.763 436.482 297.763C433.913 297.763 431.83 299.846 431.83 302.415L431.83 356.695L377.55 356.695C374.98 356.695 372.897 358.778 372.897 361.347C372.897 363.917 374.98 366 377.55 366L431.83 366L441.135 366Z" fill-opacity="0.8" style="fill: rgb(255, 255, 255);"/>
  <path class="cls-1" d="M 374.258 322.247 C 371.676 322.25 369.182 321.303 367.253 319.584 C 364.434 327.224 354.401 328.95 349.193 322.688 C 348.423 321.763 347.817 320.713 347.401 319.584 C 341.294 324.986 331.628 321.751 330.003 313.76 C 329.863 313.071 329.792 312.37 329.791 311.667 L 329.791 290.482 C 323.273 295.368 313.912 291.365 312.941 283.279 C 312.891 282.859 312.865 282.437 312.865 282.013 L 312.865 252.372 C 312.865 224.67 342.854 207.357 366.845 221.207 C 377.979 227.637 384.838 239.515 384.838 252.372 L 384.838 311.667 C 384.825 317.504 380.097 322.233 374.258 322.247 Z M 350.975 311.667 L 350.975 315.901 C 351.187 320.791 356.614 323.617 360.742 320.988 C 362.492 319.872 363.588 317.975 363.678 315.901 L 363.678 284.149 L 350.975 284.149 L 350.975 311.667 Z M 317.088 273.545 L 317.088 282.013 C 316.875 286.903 322.035 290.189 326.376 287.928 C 328.566 286.788 329.899 284.481 329.791 282.013 L 329.791 269.31 C 330.003 264.421 324.843 261.135 320.503 263.395 C 318.312 264.537 316.981 266.842 317.088 269.31 L 317.088 273.545 Z M 380.664 252.372 C 380.664 227.902 354.174 212.608 332.981 224.843 C 323.146 230.521 317.088 241.016 317.088 252.372 L 317.088 260.841 C 323.597 255.947 332.965 259.936 333.948 268.021 C 334 268.449 334.027 268.88 334.025 269.31 L 334.025 311.667 C 334.237 316.556 339.664 319.382 343.792 316.754 C 345.542 315.639 346.638 313.741 346.729 311.667 L 346.729 284.149 L 342.494 284.149 C 338.988 284.143 336.148 281.298 336.148 277.791 C 336.148 269.6 342.784 262.96 350.975 262.953 L 352.45 262.953 C 346.219 258.611 342.502 251.499 342.494 243.904 L 342.494 239.669 C 342.372 238.04 344.06 236.888 345.531 237.596 C 346.32 237.976 346.795 238.798 346.729 239.669 L 346.729 243.904 C 346.742 254.423 355.27 262.946 365.789 262.953 C 367.419 262.83 368.571 264.518 367.862 265.991 C 367.483 266.778 366.662 267.253 365.789 267.187 L 350.975 267.187 C 345.129 267.194 340.39 271.932 340.383 277.779 C 340.383 278.948 341.326 279.896 342.494 279.902 L 374.258 279.902 C 377.767 279.896 380.61 277.053 380.616 273.545 L 380.664 252.372 Z M 380.664 282.013 C 378.82 283.407 376.57 284.158 374.258 284.149 L 367.912 284.149 L 367.912 311.667 C 368.125 316.556 373.552 319.382 377.68 316.754 C 379.43 315.639 380.526 313.741 380.616 311.667 L 380.664 282.013 Z" style="fill: rgb(255, 255, 255);" transform="matrix(-1, 0, 0, -1, 697.703003, 542.837769)"/>
</svg>