<svg width="442" height="366" viewBox="0 0 442 366" fill="none" xmlns="http://www.w3.org/2000/svg">
<path fill-rule="evenodd" clip-rule="evenodd" d="M235.729 9.30509V2.77938e-06H226.424L172.145 0C169.575 -1.12318e-07 167.492 2.08301 167.492 4.65254C167.492 7.22207 169.575 9.30509 172.145 9.30509L226.424 9.30509V63.5848C226.424 66.1543 228.507 68.2373 231.077 68.2373C233.646 68.2373 235.729 66.1543 235.729 63.5847V9.30509Z" fill="white" fill-opacity="0.9"/>
<path fill-rule="evenodd" clip-rule="evenodd" d="M9.30509 1.48521e-05L0 1.52588e-05L0 9.3051L-2.03369e-07 63.5848C-9.10515e-08 66.1543 2.08301 68.2373 4.65254 68.2373C7.22207 68.2373 9.30509 66.1543 9.30508 63.5848L9.30509 9.3051L63.5847 9.3051C66.1543 9.3051 68.2373 7.22208 68.2373 4.65255C68.2373 2.08303 66.1543 1.23671e-05 63.5847 1.24794e-05L9.30509 1.48521e-05Z" fill="white" fill-opacity="0.9"/>
<path fill-rule="evenodd" clip-rule="evenodd" d="M-0.000961304 248.135L-0.000961304 248.135L63.5838 248.135C66.1533 248.135 68.2363 246.052 68.2363 243.483C68.2363 240.913 66.1533 238.83 63.5838 238.83L9.30412 238.83L9.30413 184.551C9.30413 181.981 7.22111 179.898 4.65159 179.898C2.08206 179.898 -0.00095552 181.981 -0.000955745 184.551L-0.00096049 238.83L-0.000961304 248.135Z" fill="white" fill-opacity="0.9"/>
<path fill-rule="evenodd" clip-rule="evenodd" d="M235.729 248.136L235.729 248.136L235.729 184.551C235.729 181.981 233.646 179.898 231.076 179.898C228.506 179.898 226.423 181.981 226.423 184.551L226.423 238.831L172.144 238.831C169.574 238.831 167.491 240.914 167.491 243.483C167.491 246.053 169.574 248.136 172.144 248.136L226.423 248.136L235.729 248.136Z" fill="white" fill-opacity="0.9"/>
<path fill-rule="evenodd" clip-rule="evenodd" d="M441.136 189.203V179.898H431.831L377.551 179.898C374.981 179.898 372.898 181.981 372.898 184.551C372.898 187.12 374.981 189.203 377.551 189.203L431.831 189.203V243.483C431.831 246.052 433.914 248.135 436.483 248.135C439.053 248.135 441.136 246.052 441.136 243.483L441.136 189.203Z" fill="white" fill-opacity="0.8"/>
<path fill-rule="evenodd" clip-rule="evenodd" d="M264.338 179.898L318.618 179.898C321.187 179.898 323.27 181.981 323.27 184.551C323.27 187.12 321.187 189.203 318.618 189.203L264.338 189.203L264.338 243.483C264.338 246.052 262.255 248.135 259.686 248.135C257.116 248.135 255.033 246.052 255.033 243.483L255.033 189.203L255.033 189.203L255.033 179.898L255.033 179.898L264.338 179.898Z" fill="white" fill-opacity="0.8"/>
<path fill-rule="evenodd" clip-rule="evenodd" d="M318.617 356.695L264.337 356.695L264.337 302.415C264.337 299.846 262.254 297.763 259.685 297.763C257.115 297.763 255.032 299.846 255.032 302.415L255.032 356.695L255.032 366L318.617 366C321.187 366 323.27 363.917 323.27 361.347C323.27 358.778 321.187 356.695 318.617 356.695Z" fill="white" fill-opacity="0.8"/>
<path fill-rule="evenodd" clip-rule="evenodd" d="M441.135 366H441.135L441.135 302.415C441.135 299.846 439.052 297.763 436.482 297.763C433.913 297.763 431.83 299.846 431.83 302.415L431.83 356.695L377.55 356.695C374.98 356.695 372.897 358.778 372.897 361.347C372.897 363.917 374.98 366 377.55 366L431.83 366L441.135 366Z" fill="white" fill-opacity="0.8"/>
<path d="M356.377 343.935C337.092 343.935 327.46 334.249 316.308 323.034L314.374 321.093C302.598 309.319 294.357 300.114 294.275 300.026C289.317 295.073 289.339 286.836 294.415 281.763C296.867 279.31 300.118 277.96 303.571 277.96C307.024 277.96 310.275 279.311 312.727 281.763L321.211 290.603L314.076 224.758C314.067 224.674 314.062 224.588 314.062 224.503C314.062 217.74 318.825 212.639 325.141 212.639C328.867 212.639 335.261 214.151 336.21 224.281C336.479 227.143 338.192 236.826 339.951 246.388L340.769 214.161C340.769 208.012 345.546 203.148 351.644 203.148C357.631 203.148 362.322 208.012 362.322 214.221V236.489L364.334 224.887C365.474 218.308 369.856 214.221 375.767 214.221C378.504 214.221 380.962 215.296 382.687 217.247C384.732 219.561 385.608 222.866 385.151 226.548C384.849 228.987 383.242 246.571 382.002 260.286L388.585 243.414C390.689 238.023 394.612 234.931 399.348 234.931C403.151 234.931 407.406 238.926 407.406 244.276C407.406 248.052 405.35 254.591 402.746 262.871C400.218 270.91 397.354 280.023 396.039 287.906C395.746 289.654 395.479 291.681 395.185 293.902C392.864 311.387 388.549 343.935 356.377 343.935ZM303.571 282.706C301.387 282.706 299.327 283.562 297.772 285.118C294.547 288.344 294.524 293.569 297.721 296.766C297.894 296.951 306.055 306.062 317.729 317.738L319.673 319.687C330.509 330.581 339.065 339.188 356.377 339.188C384.392 339.188 388.054 311.561 390.479 293.278C390.779 291.001 391.056 288.918 391.357 287.123C392.725 278.914 395.644 269.635 398.219 261.446C400.502 254.183 402.661 247.323 402.661 244.276C402.661 241.573 400.513 239.676 399.348 239.676C395.686 239.676 393.802 243.099 393.007 245.138L380.352 277.566C379.923 278.669 378.74 279.284 377.599 279.012C376.448 278.743 375.673 277.668 375.779 276.491C375.948 274.6 379.929 230.095 380.443 225.963C380.727 223.683 380.247 221.649 379.132 220.388C378.298 219.444 377.166 218.966 375.769 218.966C370.906 218.966 369.448 223.185 369.011 225.7L362.288 264.456C362.078 265.669 360.987 266.528 359.748 266.413C358.519 266.308 357.576 265.282 357.576 264.051V214.222C357.576 210.616 355.026 207.895 351.644 207.895C348.207 207.895 345.514 210.674 345.514 214.222L344.129 268.857C344.099 270.068 343.16 271.062 341.954 271.162C340.735 271.244 339.657 270.434 339.427 269.246C339.128 267.691 332.081 231.094 331.485 224.724C330.877 218.258 327.937 217.384 325.14 217.384C321.446 217.384 318.857 220.254 318.806 224.381L326.677 297.014C326.787 298.025 326.242 298.991 325.322 299.42C324.404 299.849 323.311 299.646 322.607 298.914L309.334 285.085C307.814 283.562 305.754 282.706 303.571 282.706Z" fill="white" fill-opacity="0.8"/>
</svg>
