<?xml version="1.0" encoding="utf-8"?>
<svg viewBox="0 0 442 366" width="442" height="366" fill="none" xmlns="http://www.w3.org/2000/svg">
  <path fill-rule="evenodd" clip-rule="evenodd" d="M235.729 9.30509V2.77938e-06H226.424L172.145 0C169.575 -1.12318e-07 167.492 2.08301 167.492 4.65254C167.492 7.22207 169.575 9.30509 172.145 9.30509L226.424 9.30509V63.5848C226.424 66.1543 228.507 68.2373 231.077 68.2373C233.646 68.2373 235.729 66.1543 235.729 63.5847V9.30509Z" fill-opacity="0.9" style="fill: rgb(255, 255, 255);"/>
  <path fill-rule="evenodd" clip-rule="evenodd" d="M9.30509 1.48521e-05L0 1.52588e-05L0 9.3051L-2.03369e-07 63.5848C-9.10515e-08 66.1543 2.08301 68.2373 4.65254 68.2373C7.22207 68.2373 9.30509 66.1543 9.30508 63.5848L9.30509 9.3051L63.5847 9.3051C66.1543 9.3051 68.2373 7.22208 68.2373 4.65255C68.2373 2.08303 66.1543 1.23671e-05 63.5847 1.24794e-05L9.30509 1.48521e-05Z" fill-opacity="0.9" style="fill: rgb(255, 255, 255);"/>
  <path fill-rule="evenodd" clip-rule="evenodd" d="M-0.000961304 248.135L-0.000961304 248.135L63.5838 248.135C66.1533 248.135 68.2363 246.052 68.2363 243.483C68.2363 240.913 66.1533 238.83 63.5838 238.83L9.30412 238.83L9.30413 184.551C9.30413 181.981 7.22111 179.898 4.65159 179.898C2.08206 179.898 -0.00095552 181.981 -0.000955745 184.551L-0.00096049 238.83L-0.000961304 248.135Z" fill-opacity="0.9" style="fill: rgb(255, 255, 255);"/>
  <path fill-rule="evenodd" clip-rule="evenodd" d="M235.729 248.136L235.729 248.136L235.729 184.551C235.729 181.981 233.646 179.898 231.076 179.898C228.506 179.898 226.423 181.981 226.423 184.551L226.423 238.831L172.144 238.831C169.574 238.831 167.491 240.914 167.491 243.483C167.491 246.053 169.574 248.136 172.144 248.136L226.423 248.136L235.729 248.136Z" fill-opacity="0.9" style="fill: rgb(255, 255, 255);"/>
  <path fill-rule="evenodd" clip-rule="evenodd" d="M441.136 189.203V179.898H431.831L377.551 179.898C374.981 179.898 372.898 181.981 372.898 184.551C372.898 187.12 374.981 189.203 377.551 189.203L431.831 189.203V243.483C431.831 246.052 433.914 248.135 436.483 248.135C439.053 248.135 441.136 246.052 441.136 243.483L441.136 189.203Z" fill-opacity="0.8" style="fill: rgb(255, 255, 255);"/>
  <path fill-rule="evenodd" clip-rule="evenodd" d="M264.338 179.898L318.618 179.898C321.187 179.898 323.27 181.981 323.27 184.551C323.27 187.12 321.187 189.203 318.618 189.203L264.338 189.203L264.338 243.483C264.338 246.052 262.255 248.135 259.686 248.135C257.116 248.135 255.033 246.052 255.033 243.483L255.033 189.203L255.033 189.203L255.033 179.898L255.033 179.898L264.338 179.898Z" fill-opacity="0.8" style="fill: rgb(255, 255, 255);"/>
  <path fill-rule="evenodd" clip-rule="evenodd" d="M318.617 356.695L264.337 356.695L264.337 302.415C264.337 299.846 262.254 297.763 259.685 297.763C257.115 297.763 255.032 299.846 255.032 302.415L255.032 356.695L255.032 366L318.617 366C321.187 366 323.27 363.917 323.27 361.347C323.27 358.778 321.187 356.695 318.617 356.695Z" fill-opacity="0.8" style="fill: rgb(255, 255, 255);"/>
  <path fill-rule="evenodd" clip-rule="evenodd" d="M441.135 366H441.135L441.135 302.415C441.135 299.846 439.052 297.763 436.482 297.763C433.913 297.763 431.83 299.846 431.83 302.415L431.83 356.695L377.55 356.695C374.98 356.695 372.897 358.778 372.897 361.347C372.897 363.917 374.98 366 377.55 366L431.83 366L441.135 366Z" fill-opacity="0.8" style="fill: rgb(255, 255, 255);"/>
  <path class="cls-1" d="M 375.471 322.085 C 369.329 322.071 364.356 317.093 364.35 310.951 L 364.35 311.488 C 358.415 315.965 349.843 313.462 347.25 306.495 C 341.386 311.673 332.153 309.35 329.438 302.014 C 323.043 307.693 312.899 304.321 311.179 295.944 C 311.027 295.206 310.951 294.455 310.952 293.701 L 310.952 262.496 C 310.952 233.382 342.469 215.186 367.683 229.743 C 379.383 236.499 386.593 248.984 386.593 262.496 L 386.593 310.951 C 386.593 317.096 381.615 322.079 375.471 322.085 Z M 350.994 298.145 L 350.994 302.601 C 350.994 307.742 356.559 310.955 361.011 308.385 C 363.077 307.192 364.35 304.987 364.35 302.601 L 364.35 295.923 L 350.994 295.923 L 350.994 298.145 Z M 333.195 293.701 L 333.195 298.145 C 333.195 303.286 338.759 306.499 343.212 303.929 C 345.277 302.735 346.551 300.531 346.551 298.145 L 346.551 295.923 L 342.095 295.923 C 338.409 295.917 335.423 292.931 335.417 289.245 C 335.43 285.077 337.117 281.089 340.097 278.173 L 339.873 278.173 C 336.187 278.181 333.201 281.167 333.195 284.851 L 333.195 293.701 Z M 315.396 284.801 L 315.396 293.701 C 315.396 298.842 320.96 302.055 325.412 299.485 C 327.478 298.292 328.751 296.088 328.751 293.701 L 328.751 280.345 C 328.751 275.205 323.186 271.992 318.735 274.562 C 316.667 275.756 315.396 277.96 315.396 280.345 L 315.396 284.801 Z M 382.149 262.546 C 382.149 236.853 354.334 220.795 332.084 233.642 C 321.756 239.603 315.396 250.622 315.396 262.546 L 315.396 271.458 C 317.317 270.002 319.662 269.216 322.073 269.224 C 326.738 269.209 330.918 272.103 332.546 276.476 C 334.577 274.667 337.202 273.669 339.923 273.667 C 341.688 273.67 343.425 274.098 344.99 274.916 C 346.901 274.093 348.962 273.667 351.044 273.667 L 352.517 273.667 C 346 269.103 342.112 261.652 342.095 253.696 L 342.095 249.24 C 342.223 247.525 344.159 246.593 345.581 247.561 C 346.142 247.945 346.499 248.562 346.551 249.24 L 346.551 253.646 C 346.584 264.662 355.505 273.584 366.522 273.618 C 368.237 273.746 369.169 275.683 368.201 277.105 C 367.817 277.667 367.199 278.024 366.522 278.074 L 350.994 278.074 C 349.263 278.061 347.553 278.454 346.001 279.222 C 345.872 279.312 345.734 279.387 345.589 279.447 C 342.026 281.395 339.809 285.133 339.81 289.195 C 339.81 290.422 340.805 291.417 342.032 291.417 L 375.471 291.417 C 379.153 291.417 382.142 288.435 382.149 284.751 L 382.149 262.546 Z M 382.149 293.689 C 380.226 295.14 377.88 295.925 375.471 295.923 L 368.744 295.923 L 368.744 310.901 C 368.744 316.042 374.308 319.255 378.76 316.685 C 380.826 315.492 382.099 313.288 382.099 310.901 L 382.149 293.689 Z" style="fill: rgb(255, 255, 255);" transform="matrix(-1, 0, 0, -1, 697.544983, 546.70459)"/>
</svg>