<svg width="618" height="602" viewBox="0 0 618 602" fill="none" xmlns="http://www.w3.org/2000/svg">
<g clip-path="url(#clip0_267_2046)" filter="url(#filter0_dd_267_2046)">
<path d="M129.044 265.904C117.101 268.866 108.42 281.748 108.42 296.533C108.42 313.775 120.002 327.801 134.234 327.801C136.244 327.801 138.231 327.5 140.157 326.959C145.142 355.662 158.663 382.234 179.022 402.871L202.091 426.216C201.585 426.951 201.26 427.83 201.2 428.781L198.034 484.695L198.022 484.947C197.239 496.843 191.327 508.257 181.804 516.263C180.973 516.962 179.54 517.841 177.626 518.864C177.626 518.864 177.626 518.864 177.626 518.876C178.577 522.223 179.95 525.318 181.659 528.171C184.717 526.594 187.029 525.197 188.366 524.077C200.008 514.289 207.232 500.274 208.195 485.634L211.049 435.307L221.656 446.058L229.819 438.87L233.311 436.005C240.824 429.828 250.781 426.433 261.352 426.433H303.733C314.292 426.433 324.249 429.828 331.774 436.005L333.147 437.137C334.363 433.922 335.723 430.755 337.192 427.613C327.909 420.883 316.146 417.198 303.733 417.198H261.352C247.855 417.198 235.117 421.545 225.509 429.443L222.138 432.212L186.042 395.635C164.237 373.529 150.861 344.091 148.405 312.739C147.153 296.883 146.165 280.279 145.467 267.397C150.921 259.643 152.968 251.275 155.111 242.498C155.52 240.824 155.93 239.127 156.387 237.393C166.104 199.768 185.825 180.552 266.674 179.95C308.212 179.637 337.613 171.679 354.036 156.292C361.368 149.417 364.511 142.446 365.847 137.401C381.319 146.13 393.371 162.637 401.75 186.572C409.673 209.207 412.466 233.251 413.417 249.421C413.634 253.226 414.392 257.644 415.247 261.678C414.898 262.34 414.681 263.086 414.657 263.881C414.019 281.267 413.237 297.725 412.382 311.475C412.189 314.545 411.864 317.579 411.467 320.613C410.708 321.119 410.046 321.914 409.649 322.949C408.926 324.827 409.215 326.898 410.263 328.235C405.362 353.988 393.034 377.755 374.6 396.429L351.014 420.329C349.256 420.81 347.92 422.207 347.45 423.941L340.961 430.515L337.204 427.601L333.159 437.125L343.092 443.12L345.307 440.448L347.956 437.763L350.436 481.492L350.46 481.793C351.423 496.446 358.659 510.46 370.302 520.249C371.193 520.995 372.517 521.862 374.203 522.825C376.226 521.453 378.212 520.032 380.175 518.575C381.09 517.732 381.981 516.865 382.872 515.975C380.018 514.554 377.959 513.35 376.876 512.435C367.352 504.428 361.441 493.014 360.658 481.107L357.648 427.962L381.62 403.677C401.124 383.92 414.308 358.865 419.774 331.69C434.09 333.015 447.587 320.096 450.187 302.301C452.547 286.071 445.094 270.924 432.741 266.373C435.426 261.822 438.906 255.983 442.313 250.408C442.47 250.155 442.59 249.891 442.686 249.614C462.035 194.29 459.555 150.922 435.306 120.737C426.613 109.914 410.6 95.4655 383.69 88.0609C379.416 83.8589 361.332 67.2558 331.738 55.8178C300.867 43.8982 251.262 35.699 190.208 64.3301C138.375 88.6388 112.044 132.284 114.067 190.557C115.247 224.703 125.649 254.08 130.393 265.819H129.851C129.538 265.819 129.297 265.844 129.044 265.904ZM442.422 301.169C440.604 313.618 431.309 322.672 421.328 322.094C421.761 318.783 422.086 315.46 422.303 312.101C422.953 301.542 423.555 289.803 424.085 277.077C425.662 276.848 427.059 275.981 427.805 274.705C427.805 274.693 427.829 274.657 427.877 274.585C428.238 274.898 428.648 275.15 429.117 275.295C438.436 278.112 444.167 289.225 442.422 301.169ZM124.204 190.04C122.362 134.728 146.177 95.0682 194.975 72.1802C240.92 50.6286 285.396 47.8232 327.163 63.8244C356.396 75.0216 374.083 92.0462 376.466 94.4421C377.514 95.7304 379.236 96.1999 380.392 96.525C404.676 103.171 419.088 116.15 426.902 125.867C449.188 153.607 451.247 194.23 433.018 246.592C430.297 251.058 427.54 255.658 425.192 259.631C424.434 256.043 423.784 252.19 423.603 248.951C422.628 232.264 419.738 207.45 411.503 183.935C401.136 154.317 385.099 134.909 363.849 126.24C363.174 125.963 362.452 125.83 361.717 125.83C360.718 125.83 359.719 126.095 358.852 126.589C357.371 127.456 356.516 128.961 356.588 130.514C356.613 130.923 356.962 140.603 346.306 150.416C328.222 167.079 292.957 170.812 266.565 171.004C189.016 171.582 158.699 187.836 146.406 235.406C145.949 237.176 145.527 238.91 145.106 240.62C143.769 246.11 142.565 250.986 140.699 255.465C140.41 255.429 140.121 255.405 139.832 255.417C138.953 255.465 138.147 255.766 137.46 256.212C132.476 242.317 125.107 217.551 124.204 190.04ZM134.583 274.837C135.04 274.837 135.474 274.729 135.883 274.536C136.557 286.299 137.424 300.17 138.472 313.534C138.592 315.051 138.737 316.556 138.905 318.061C137.388 318.543 135.823 318.795 134.234 318.795C124.108 318.795 115.861 308.814 115.861 296.546C115.861 286.167 121.857 277.113 130.176 274.837H134.583V274.837Z" fill="white" fill-opacity="0.8"/>
<path d="M316.856 338.613C311.125 343.91 296.966 347.077 278.991 347.077C261.003 347.077 246.856 343.91 241.125 338.613C239.572 337.18 237.152 337.264 235.719 338.817C234.286 340.371 234.382 342.791 235.924 344.223C245.796 353.362 267.143 354.722 278.991 354.722C290.838 354.722 312.185 353.362 322.058 344.223C323.611 342.791 323.707 340.371 322.262 338.817C320.83 337.276 318.41 337.18 316.856 338.613Z" fill="white" fill-opacity="0.8"/>
<path d="M278.991 314.123C286.179 314.123 292.596 311.246 295.739 306.61C296.918 304.864 296.461 302.48 294.715 301.301C292.969 300.121 290.585 300.578 289.405 302.324C288.009 304.383 284.252 306.478 279.003 306.478C273.753 306.478 269.997 304.395 268.6 302.324C267.42 300.578 265.037 300.121 263.291 301.301C261.545 302.48 261.087 304.864 262.267 306.61C265.386 311.246 271.791 314.123 278.991 314.123Z" fill="white" fill-opacity="0.8"/>
<path d="M278.991 361.537C269.612 361.537 261.232 364.222 257.102 368.544C255.645 370.073 255.693 372.494 257.234 373.95C258.764 375.407 261.184 375.359 262.64 373.818C264.771 371.578 270.804 369.17 278.991 369.17C287.178 369.17 293.21 371.578 295.341 373.818C296.798 375.347 299.218 375.407 300.747 373.95C302.276 372.494 302.336 370.073 300.867 368.544C296.75 364.222 288.358 361.537 278.991 361.537Z" fill="white" fill-opacity="0.8"/>
<path d="M325.381 228.326C325.562 228.302 344.248 225.81 367.81 240.475C368.123 240.667 368.46 240.812 368.797 240.908C370.399 241.354 372.157 240.728 373.084 239.247C374.203 237.453 373.65 235.093 371.856 233.973C345.729 217.719 325.116 220.621 324.249 220.753C322.167 221.066 320.734 223.017 321.047 225.1C321.348 227.183 323.298 228.627 325.381 228.326Z" fill="white" fill-opacity="0.8"/>
<path d="M188.98 239.752C189.329 239.68 189.666 239.548 189.991 239.367C214.264 226.027 232.757 229.482 233.01 229.53C235.069 229.952 237.092 228.627 237.525 226.556C237.959 224.486 236.622 222.463 234.563 222.029C233.709 221.849 213.277 217.839 186.307 232.649C184.453 233.672 183.779 235.996 184.79 237.85C185.621 239.391 187.355 240.125 188.98 239.752Z" fill="white" fill-opacity="0.8"/>
<path d="M237.212 256.332C238.814 255.899 240.018 254.454 240.042 252.708C240.09 250.601 238.404 248.843 236.297 248.807C205.535 248.181 189.293 261.208 188.619 261.762C186.994 263.099 186.753 265.494 188.089 267.132C189.414 268.769 191.834 269.01 193.471 267.686C193.616 267.565 208.401 255.887 236.153 256.452C236.514 256.464 236.863 256.416 237.212 256.332Z" fill="white" fill-opacity="0.8"/>
<path d="M367.28 271.297C368.869 271.791 370.651 271.201 371.615 269.744C372.782 267.974 372.289 265.602 370.531 264.447C344.838 247.506 324.153 249.866 323.286 249.975C321.191 250.239 319.71 252.142 319.975 254.237C320.228 256.332 322.13 257.825 324.225 257.572C324.406 257.548 343.152 255.561 366.317 270.84C366.606 271.045 366.943 271.201 367.28 271.297Z" fill="white" fill-opacity="0.8"/>
<g filter="url(#filter1_d_267_2046)">
<path d="M552.665 246.221L520.547 211.93C520.545 211.928 520.543 211.927 520.541 211.924C518.127 209.354 514.203 209.363 511.797 211.925C511.795 211.927 511.793 211.929 511.791 211.931L479.674 246.221C477.268 248.79 477.276 252.945 479.695 255.502C482.112 258.059 486.023 258.049 488.429 255.48L509.993 232.458V371.438C509.993 375.062 512.758 378 516.169 378C519.58 378 522.346 375.062 522.346 371.438V232.458L543.909 255.48C546.315 258.048 550.226 258.058 552.644 255.502C555.062 252.944 555.07 248.789 552.665 246.221Z" fill="white" fill-opacity="0.8"/>
</g>
</g>
<defs>
<filter id="filter0_dd_267_2046" x="-15.4302" y="-11.5726" width="632.86" height="632.86" filterUnits="userSpaceOnUse" color-interpolation-filters="sRGB">
<feFlood flood-opacity="0" result="BackgroundImageFix"/>
<feColorMatrix in="SourceAlpha" type="matrix" values="0 0 0 0 0 0 0 0 0 0 0 0 0 0 0 0 0 0 127 0" result="hardAlpha"/>
<feMorphology radius="3.85755" operator="dilate" in="SourceAlpha" result="effect1_dropShadow_267_2046"/>
<feOffset dy="3.85755"/>
<feGaussianBlur stdDeviation="5.78632"/>
<feComposite in2="hardAlpha" operator="out"/>
<feColorMatrix type="matrix" values="0 0 0 0 0.375764 0 0 0 0 0.540935 0 0 0 0 0.805208 0 0 0 0.15 0"/>
<feBlend mode="normal" in2="BackgroundImageFix" result="effect1_dropShadow_267_2046"/>
<feColorMatrix in="SourceAlpha" type="matrix" values="0 0 0 0 0 0 0 0 0 0 0 0 0 0 0 0 0 0 127 0" result="hardAlpha"/>
<feOffset dy="1.92877"/>
<feGaussianBlur stdDeviation="1.92877"/>
<feComposite in2="hardAlpha" operator="out"/>
<feColorMatrix type="matrix" values="0 0 0 0 0.376471 0 0 0 0 0.541176 0 0 0 0 0.803922 0 0 0 0.3 0"/>
<feBlend mode="normal" in2="effect1_dropShadow_267_2046" result="effect2_dropShadow_267_2046"/>
<feBlend mode="normal" in="SourceGraphic" in2="effect2_dropShadow_267_2046" result="shape"/>
</filter>
<filter id="filter1_d_267_2046" x="412" y="210" width="248" height="263" filterUnits="userSpaceOnUse" color-interpolation-filters="sRGB">
<feFlood flood-opacity="0" result="BackgroundImageFix"/>
<feColorMatrix in="SourceAlpha" type="matrix" values="0 0 0 0 0 0 0 0 0 0 0 0 0 0 0 0 0 0 127 0" result="hardAlpha"/>
<feOffset dy="4"/>
<feGaussianBlur stdDeviation="2"/>
<feComposite in2="hardAlpha" operator="out"/>
<feColorMatrix type="matrix" values="0 0 0 0 0 0 0 0 0 0 0 0 0 0 0 0 0 0 0.25 0"/>
<feBlend mode="normal" in2="BackgroundImageFix" result="effect1_dropShadow_267_2046"/>
<feBlend mode="normal" in="SourceGraphic" in2="effect1_dropShadow_267_2046" result="shape"/>
</filter>
<clipPath id="clip0_267_2046">
<rect width="602" height="602" fill="white"/>
</clipPath>
</defs>
</svg>
