<?xml version="1.0" encoding="utf-8"?>
<svg viewBox="0 0 442 366" width="442" height="366" fill="none" xmlns="http://www.w3.org/2000/svg">
  <path fill-rule="evenodd" clip-rule="evenodd" d="M235.729 9.30509V2.77938e-06H226.424L172.145 0C169.575 -1.12318e-07 167.492 2.08301 167.492 4.65254C167.492 7.22207 169.575 9.30509 172.145 9.30509L226.424 9.30509V63.5848C226.424 66.1543 228.507 68.2373 231.077 68.2373C233.646 68.2373 235.729 66.1543 235.729 63.5847V9.30509Z" fill-opacity="0.9" style="fill: rgb(255, 255, 255);"/>
  <path fill-rule="evenodd" clip-rule="evenodd" d="M9.30509 1.48521e-05L0 1.52588e-05L0 9.3051L-2.03369e-07 63.5848C-9.10515e-08 66.1543 2.08301 68.2373 4.65254 68.2373C7.22207 68.2373 9.30509 66.1543 9.30508 63.5848L9.30509 9.3051L63.5847 9.3051C66.1543 9.3051 68.2373 7.22208 68.2373 4.65255C68.2373 2.08303 66.1543 1.23671e-05 63.5847 1.24794e-05L9.30509 1.48521e-05Z" fill-opacity="0.9" style="fill: rgb(255, 255, 255);"/>
  <path fill-rule="evenodd" clip-rule="evenodd" d="M-0.000961304 248.135L-0.000961304 248.135L63.5838 248.135C66.1533 248.135 68.2363 246.052 68.2363 243.483C68.2363 240.913 66.1533 238.83 63.5838 238.83L9.30412 238.83L9.30413 184.551C9.30413 181.981 7.22111 179.898 4.65159 179.898C2.08206 179.898 -0.00095552 181.981 -0.000955745 184.551L-0.00096049 238.83L-0.000961304 248.135Z" fill-opacity="0.9" style="fill: rgb(255, 255, 255);"/>
  <path fill-rule="evenodd" clip-rule="evenodd" d="M235.729 248.136L235.729 248.136L235.729 184.551C235.729 181.981 233.646 179.898 231.076 179.898C228.506 179.898 226.423 181.981 226.423 184.551L226.423 238.831L172.144 238.831C169.574 238.831 167.491 240.914 167.491 243.483C167.491 246.053 169.574 248.136 172.144 248.136L226.423 248.136L235.729 248.136Z" fill-opacity="0.9" style="fill: rgb(255, 255, 255);"/>
  <path fill-rule="evenodd" clip-rule="evenodd" d="M441.136 189.203V179.898H431.831L377.551 179.898C374.981 179.898 372.898 181.981 372.898 184.551C372.898 187.12 374.981 189.203 377.551 189.203L431.831 189.203V243.483C431.831 246.052 433.914 248.135 436.483 248.135C439.053 248.135 441.136 246.052 441.136 243.483L441.136 189.203Z" fill-opacity="0.8" style="fill: rgb(255, 255, 255);"/>
  <path fill-rule="evenodd" clip-rule="evenodd" d="M264.338 179.898L318.618 179.898C321.187 179.898 323.27 181.981 323.27 184.551C323.27 187.12 321.187 189.203 318.618 189.203L264.338 189.203L264.338 243.483C264.338 246.052 262.255 248.135 259.686 248.135C257.116 248.135 255.033 246.052 255.033 243.483L255.033 189.203L255.033 189.203L255.033 179.898L255.033 179.898L264.338 179.898Z" fill-opacity="0.8" style="fill: rgb(255, 255, 255);"/>
  <path fill-rule="evenodd" clip-rule="evenodd" d="M318.617 356.695L264.337 356.695L264.337 302.415C264.337 299.846 262.254 297.763 259.685 297.763C257.115 297.763 255.032 299.846 255.032 302.415L255.032 356.695L255.032 366L318.617 366C321.187 366 323.27 363.917 323.27 361.347C323.27 358.778 321.187 356.695 318.617 356.695Z" fill-opacity="0.8" style="fill: rgb(255, 255, 255);"/>
  <path fill-rule="evenodd" clip-rule="evenodd" d="M441.135 366H441.135L441.135 302.415C441.135 299.846 439.052 297.763 436.482 297.763C433.913 297.763 431.83 299.846 431.83 302.415L431.83 356.695L377.55 356.695C374.98 356.695 372.897 358.778 372.897 361.347C372.897 363.917 374.98 366 377.55 366L431.83 366L441.135 366Z" fill-opacity="0.8" style="fill: rgb(255, 255, 255);"/>
  <path class="cls-1" d="M 375.496 326.234 C 369.476 326.227 364.596 321.353 364.583 315.333 L 364.583 302.242 C 362.703 303.665 360.408 304.434 358.05 304.432 C 353.493 304.424 349.419 301.589 347.829 297.318 C 342.083 302.393 333.032 300.108 330.383 292.913 C 324.156 298.523 314.19 295.287 312.446 287.09 C 312.286 286.339 312.207 285.576 312.207 284.809 L 312.207 254.284 C 313.683 225.748 345.496 209.509 369.473 225.055 C 379.458 231.53 385.733 242.398 386.347 254.284 L 386.347 315.333 C 386.335 321.328 381.492 326.193 375.496 326.234 Z M 351.504 289.201 L 351.504 293.532 C 351.723 298.565 357.31 301.474 361.56 298.768 C 363.361 297.621 364.49 295.666 364.583 293.532 L 364.583 286.986 L 351.504 286.986 L 351.504 289.201 Z M 334.07 284.809 L 334.07 289.201 C 333.851 294.234 339.164 297.618 343.634 295.291 C 345.889 294.116 347.26 291.741 347.149 289.201 L 347.149 287.023 L 342.781 287.023 C 339.172 287.016 336.248 284.088 336.248 280.478 C 336.248 276.38 337.899 272.455 340.826 269.589 L 340.665 269.589 C 337.056 269.596 334.132 272.524 334.132 276.135 L 334.07 284.809 Z M 316.624 276.085 L 316.624 284.809 C 316.843 289.842 322.43 292.751 326.68 290.045 C 328.481 288.898 329.61 286.943 329.703 284.809 L 329.703 271.718 C 329.484 266.684 323.898 263.774 319.648 266.481 C 317.847 267.628 316.717 269.583 316.624 271.718 L 316.624 276.085 Z M 382.029 254.284 C 382.029 229.109 354.777 213.376 332.975 225.963 C 322.858 231.804 316.624 242.6 316.624 254.284 L 316.624 262.945 C 318.505 261.522 320.8 260.753 323.157 260.755 C 327.716 260.759 331.791 263.596 333.378 267.87 C 335.393 266.106 337.989 265.151 340.665 265.185 C 342.391 265.192 344.089 265.616 345.615 266.422 C 347.49 265.612 349.511 265.191 351.554 265.185 L 353.039 265.185 C 346.644 260.696 342.836 253.374 342.831 245.561 L 342.831 241.193 C 342.958 239.512 344.857 238.598 346.249 239.549 C 346.8 239.924 347.149 240.529 347.198 241.193 L 347.198 245.561 C 347.212 256.374 355.96 265.144 366.773 265.185 C 368.449 265.185 369.497 267 368.66 268.451 C 368.27 269.124 367.551 269.54 366.773 269.54 L 351.504 269.54 C 349.829 269.536 348.177 269.926 346.679 270.678 C 346.549 270.758 346.411 270.828 346.27 270.889 C 342.803 272.815 340.657 276.474 340.665 280.441 C 340.665 281.643 341.64 282.618 342.843 282.618 L 375.496 282.618 C 379.101 282.611 382.023 279.691 382.029 276.085 L 382.029 254.284 Z M 382.029 284.796 C 380.149 286.219 377.854 286.987 375.496 286.986 L 368.95 286.986 L 368.95 315.333 C 369.169 320.367 374.756 323.276 379.006 320.569 C 380.808 319.423 381.936 317.468 382.029 315.333 L 382.029 284.796 Z" style="fill: rgb(255, 255, 255);" transform="matrix(-1, 0, 0, -1, 698.554016, 545.263428)"/>
</svg>