<svg width="90" height="90" viewBox="0 0 90 90" fill="none" xmlns="http://www.w3.org/2000/svg">
<circle cx="45" cy="45" r="44" stroke="white" stroke-width="2"/>
<path d="M65.7301 40.925C65.8053 40.7842 65.8789 40.6434 65.9541 40.5026C65.9749 40.4642 65.9909 40.4242 66.0037 40.381C68.5749 31.9762 68.2453 25.389 65.0229 20.8034C63.8677 19.1586 61.7397 16.965 58.1637 15.8402C57.5957 15.2018 55.1925 12.6802 51.2597 10.9426C47.1573 9.13135 40.5653 7.88495 32.4517 12.2354C25.5637 15.9282 22.0645 22.5586 22.3333 31.4114C22.4469 35.1714 23.2053 38.5474 23.8533 40.8034C23.8165 40.805 23.7797 40.8066 23.7429 40.8146C21.5685 41.2594 19.9893 43.197 19.9893 45.4194C19.9893 48.0114 22.0981 50.1202 24.6901 50.1202C24.8581 50.1202 25.0245 50.109 25.1893 50.0914C25.1989 50.2162 25.2085 50.3394 25.2181 50.4626C25.5797 54.9538 27.5445 59.1698 30.7509 62.3346L33.9285 65.4722C33.9269 65.4882 33.9221 65.5026 33.9205 65.5186L33.4997 72.949L33.4981 72.9826C33.3941 74.5634 32.6085 76.0802 31.3429 77.1442C31.2325 77.237 31.0421 77.3538 30.7877 77.4898C30.7877 77.4898 30.7877 77.4898 30.7877 77.4914C30.9141 77.9362 31.0965 78.3474 31.3237 78.7266C31.7301 78.517 32.0373 78.3314 32.2149 78.1826C33.7621 76.8818 34.7221 75.0194 34.8501 73.0738L35.2085 66.7394L37.5301 69.0322C38.7045 70.1906 40.2581 70.829 41.9077 70.829H47.0837C48.7333 70.829 50.2869 70.1906 51.4613 69.0322L54.3125 66.2162L54.6981 73.0306L54.7013 73.0706C54.8293 75.0178 55.7909 76.8802 57.3381 78.181C57.4565 78.2802 57.6325 78.3954 57.8565 78.5234C58.1253 78.341 58.3893 78.1522 58.6501 77.9586C58.7717 77.8466 58.8901 77.7314 59.0085 77.613C58.6293 77.4242 58.3557 77.2642 58.2117 77.1426C56.9461 76.0786 56.1605 74.5618 56.0565 72.9794L55.6341 65.517C55.6245 65.3522 55.5557 65.2066 55.4501 65.0946L58.1365 62.4434C61.4261 59.197 63.3973 54.8738 63.6901 50.2738C63.6949 50.2098 63.6981 50.141 63.7029 50.0754C63.9173 50.1042 64.1333 50.1202 64.3509 50.1202C66.9429 50.1202 69.0517 48.0114 69.0517 45.4194C69.0485 43.3234 67.6693 41.5186 65.7301 40.925ZM33.0933 13.4306C39.1989 10.157 45.1093 9.72975 50.6597 12.1602C54.5445 13.8626 56.8949 16.4482 57.2117 16.8114C57.3509 17.0066 57.5797 17.0786 57.7333 17.1266C60.9605 18.1346 62.8757 20.1074 63.9141 21.5842C66.8757 25.7986 67.1493 31.9682 64.7269 39.9234C64.3653 40.6018 63.9989 41.301 63.6869 41.9042C63.5861 41.3586 63.4997 40.7746 63.4757 40.2818C63.3461 37.7474 62.9621 33.9762 61.8677 30.405C60.4901 25.9058 58.3589 22.957 55.5349 21.6402C55.4453 21.5986 55.3493 21.5778 55.2517 21.5778C55.1189 21.5778 54.9861 21.6178 54.8709 21.693C54.6741 21.8242 54.5605 22.053 54.5701 22.2898C54.5733 22.3522 54.6197 23.8226 53.2037 25.3122C50.8005 27.8434 46.1141 28.4098 42.6069 28.4402C32.3013 28.5282 28.2725 30.997 26.6389 38.2226C26.5781 38.4914 26.5221 38.7554 26.4661 39.013C26.2309 40.1106 26.0309 41.0498 25.6165 41.8978C24.9637 39.9298 23.8197 35.8754 23.6869 31.333C23.4437 22.9298 26.6069 16.9058 33.0933 13.4306ZM24.6885 48.7618C22.8453 48.7618 21.3445 47.261 21.3445 45.4178C21.3445 43.8578 22.4357 42.4962 23.9493 42.1554H24.2677C24.4997 42.8642 24.6853 43.3506 24.7669 43.5602C24.8405 44.9442 24.9477 46.8146 25.0853 48.7378C24.9557 48.7522 24.8229 48.7618 24.6885 48.7618ZM57.1813 61.4754L50.5093 68.0626C49.5909 68.9698 48.3749 69.469 47.0853 69.469H41.9093C40.6197 69.469 39.4037 68.9698 38.4853 68.0626L31.7045 61.3666C28.7301 58.429 26.9061 54.517 26.5701 50.3506C26.3765 47.9458 26.2261 45.4146 26.1317 43.6322C27.1509 42.3042 27.4645 40.8418 27.7941 39.2978C27.8485 39.0434 27.9029 38.7858 27.9637 38.5218C29.2549 32.8066 31.8757 29.8882 42.6197 29.7954C48.1397 29.749 52.0469 28.5394 54.2293 26.2002C55.2037 25.157 55.6213 24.0962 55.7989 23.3314C57.8549 24.6578 59.4565 27.165 60.5701 30.8002C61.6229 34.2386 61.9941 37.8914 62.1205 40.349C62.1781 41.4866 62.5125 42.989 62.6789 43.6818C62.6613 43.7378 62.6485 43.7954 62.6469 43.8578C62.5605 46.1682 62.4533 48.3554 62.3365 50.1826C62.0629 54.453 60.2325 58.4626 57.1813 61.4754ZM64.3477 48.7618C64.1557 48.7618 63.9669 48.7442 63.7797 48.7122C63.8549 47.3458 63.9237 45.8594 63.9845 44.2738C64.0005 44.2498 64.0165 44.2242 64.0309 44.197C64.0373 44.1842 64.4949 43.285 65.0821 42.157C66.5909 42.4946 67.6917 43.8402 67.6917 45.4194C67.6917 47.261 66.1925 48.7618 64.3477 48.7618Z" fill="white"/>
<path d="M53.6304 42.0879C52.7312 42.0879 52 43.1311 52 44.4143C52 45.6975 52.7312 46.7407 53.6304 46.7407C54.5296 46.7407 55.2608 45.6975 55.2608 44.4143C55.2608 43.1327 54.5296 42.0879 53.6304 42.0879Z" fill="white"/>
<path d="M49.4193 56.3396C48.6577 57.0436 46.7761 57.4644 44.3873 57.4644C41.9969 57.4644 40.1169 57.0436 39.3553 56.3396C39.1489 56.1492 38.8273 56.1605 38.6369 56.3669C38.4465 56.5733 38.4593 56.8948 38.6641 57.0852C39.9761 58.2996 42.8129 58.4804 44.3873 58.4804C45.9617 58.4804 48.7985 58.2996 50.1105 57.0852C50.3169 56.8948 50.3297 56.5733 50.1377 56.3669C49.9473 56.1621 49.6257 56.1492 49.4193 56.3396Z" fill="white"/>
<path d="M44.3876 53.128C45.3428 53.128 46.1956 52.7456 46.6132 52.1296C46.77 51.8976 46.7092 51.5808 46.4772 51.424C46.2452 51.2672 45.9284 51.328 45.7716 51.56C45.586 51.8336 45.0868 52.112 44.3892 52.112C43.6916 52.112 43.1924 51.8352 43.0068 51.56C42.85 51.328 42.5332 51.2672 42.3012 51.424C42.0692 51.5808 42.0084 51.8976 42.1652 52.1296C42.5796 52.7456 43.4324 53.128 44.3876 53.128Z" fill="white"/>
<path d="M46.5616 59.9908C46.2784 60.2884 45.4768 60.6084 44.3888 60.6084C43.3008 60.6084 42.4992 60.2884 42.216 59.9908C42.0224 59.7876 41.7008 59.7796 41.4976 59.9732C41.2944 60.1668 41.2864 60.4884 41.48 60.6916C42.0288 61.266 43.144 61.6228 44.3888 61.6228C45.6352 61.6228 46.7488 61.266 47.2976 60.6916C47.4912 60.4884 47.4848 60.1668 47.28 59.9732C47.0768 59.7796 46.7552 59.7876 46.5616 59.9908Z" fill="white"/>
<path d="M56.7568 39.0292C52.8288 37.8916 50.296 39.0068 50.1904 39.0548C49.936 39.17 49.8224 39.4708 49.9376 39.7252C50.0528 39.9812 50.3536 40.0948 50.6096 39.9812C50.632 39.9716 52.9312 38.9796 56.4752 40.0052C56.5232 40.0196 56.5696 40.026 56.6176 40.026C56.8384 40.026 57.0416 39.882 57.1056 39.658C57.1824 39.3892 57.0272 39.106 56.7568 39.0292Z" fill="white"/>
<path d="M38.8642 44.1708C34.9362 43.0332 32.4034 44.1484 32.2978 44.1964C32.0434 44.3116 31.9298 44.6124 32.045 44.8668C32.1602 45.1228 32.461 45.2364 32.717 45.1228C32.7394 45.1132 35.0386 44.1212 38.5826 45.1468C38.6306 45.1612 38.677 45.1676 38.725 45.1676C38.9458 45.1676 39.149 45.0236 39.213 44.7996C39.2898 44.5308 39.1346 44.2492 38.8642 44.1708Z" fill="white"/>
<path d="M38.8371 39.7264C38.9523 39.4704 38.8403 39.1696 38.5843 39.0528C38.4787 39.0048 35.9459 37.8896 32.0179 39.0272C31.7475 39.1056 31.5923 39.3872 31.6707 39.6576C31.7347 39.88 31.9379 40.0256 32.1587 40.0256C32.2051 40.0256 32.2531 40.0192 32.3011 40.0048C35.8371 38.9808 38.1331 39.9664 38.1667 39.9808C38.4211 40.096 38.7219 39.9824 38.8371 39.7264Z" fill="white"/>
</svg>
