<svg width="91" height="90" viewBox="0 0 91 90" fill="none" xmlns="http://www.w3.org/2000/svg">
<path d="M25.9075 48.6716C26.5987 48.9339 27.4577 49.261 27.5382 49.4536C27.5382 49.4552 27.5969 49.6063 27.3436 50.1741C27.0064 50.9279 27.1356 51.5073 27.3016 51.8592C27.555 52.3938 28.0398 52.7392 28.5481 52.9766C28.2915 53.2372 28.0868 53.546 28.0029 53.898C27.8888 54.3861 28.0247 54.8775 28.3854 55.2843C28.5532 55.4719 28.7159 55.6412 28.8702 55.8006C29.5262 56.478 29.7711 56.7303 29.6185 57.6302C29.3718 59.0879 29.1991 60.4459 29.1672 60.7149C29.0883 61.0668 28.8082 62.6142 29.6503 63.8261C30.001 64.3308 30.6905 64.9667 31.9906 65.1261C32.8647 65.234 33.9988 65.1377 35.2016 65.0364C37.1527 64.8704 39.5803 64.6646 40.4526 65.4864C40.6221 65.6457 40.8452 65.9396 40.82 66.6352C40.7395 68.8118 40.4107 70.0686 39.8403 70.3708C39.082 70.7742 38.3606 71.1195 37.5973 71.4848C36.9984 71.772 36.381 72.0675 35.7083 72.4095C35.2905 72.622 35.1261 73.1284 35.3392 73.5418C35.4902 73.8323 35.7871 74 36.0958 74C36.2267 74 36.3592 73.9701 36.4833 73.907C37.1376 73.575 37.7466 73.2828 38.3355 73.0005C39.1156 72.627 39.8537 72.2734 40.6422 71.8533C42.3601 70.9402 42.4658 68.073 42.5161 66.6967C42.553 65.679 42.2527 64.8621 41.6219 64.2678C40.196 62.923 37.4631 63.1554 35.0523 63.3596C33.9417 63.4543 32.8932 63.5422 32.1987 63.4559C31.6534 63.3895 31.2793 63.1986 31.0528 62.8765C30.6502 62.3021 30.7559 61.369 30.8297 61.0569C30.8364 61.0253 30.8431 60.9905 30.8482 60.9589C30.8498 60.944 31.031 59.4598 31.2944 57.9074C31.588 56.1758 30.8297 55.3922 30.0966 54.6351C29.9691 54.504 29.8366 54.3662 29.7007 54.2151C29.7694 54.1304 29.8969 54.0242 30.0546 53.9163C31.8027 53.7801 33.8612 53.3916 34.9768 52.3689C35.2184 52.1481 35.2318 51.7762 35.0087 51.5372C34.7856 51.2981 34.4098 51.2848 34.1682 51.5056C33.4586 52.1548 31.9168 52.5947 29.907 52.7475C29.8668 52.7143 29.8265 52.6777 29.7879 52.6362C29.5161 52.3457 29.293 52.0203 29.0632 51.6982C28.9608 51.5538 28.9155 51.396 28.9155 51.24C28.8803 51.2084 28.8535 51.1752 28.8384 51.142C28.8149 51.0922 28.8367 50.9843 28.8954 50.8515C29.1521 50.2771 29.4088 49.525 29.1051 48.8044C28.7444 47.9444 27.8569 47.6074 26.5132 47.0977L26.1894 46.9749C25.7935 46.8238 25.5301 46.6312 25.4831 46.4619C25.4294 46.2693 25.6039 45.987 25.6307 45.9522C25.666 45.9073 25.6978 45.8592 25.723 45.8077C25.8136 45.6301 27.9341 41.4131 28.4928 39.2714C28.8585 37.8636 28.3854 36.8392 27.9677 35.9327C27.6556 35.257 27.3872 34.6743 27.4459 33.9438C27.5399 32.7667 28.1589 30.2415 28.6471 28.7273C31.8011 30.9305 37.4681 31.4235 41.9004 31.4235C43.6385 31.4235 44.8531 31.3405 45.0594 31.3206C45.093 31.3173 45.1316 31.314 45.1735 31.3106C45.1802 31.3106 45.1886 31.309 45.197 31.309C45.2289 31.3073 45.2641 31.3057 45.2993 31.304C45.3245 31.3023 45.353 31.3023 45.3815 31.3007C45.3949 31.3007 45.41 31.299 45.4251 31.299C45.6063 31.2924 45.8513 31.2874 46.1885 31.2874C46.2136 31.2874 46.2371 31.2874 46.2623 31.2874C46.2874 31.2874 46.3126 31.2874 46.3411 31.2874C46.4334 31.2874 46.5257 31.2874 46.6196 31.2874C46.6381 31.2874 46.6549 31.2874 46.6733 31.2874C46.7471 31.2874 46.8209 31.2891 46.8948 31.2891C46.9199 31.2891 46.9451 31.2891 46.9702 31.2891C47.0407 31.2891 47.1128 31.2907 47.1816 31.2907C47.2001 31.2907 47.2169 31.2907 47.2353 31.2907C47.7017 31.2974 48.1328 31.3057 48.4147 31.3123C48.4516 31.3804 48.4986 31.4783 48.5506 31.6161C48.6479 31.8701 48.767 32.2603 48.8878 32.8497C48.9046 32.9343 48.923 33.024 48.9398 33.1153C48.9566 33.2066 48.9733 33.3029 48.9901 33.4025C49.0992 34.0517 49.1931 34.8154 49.2669 35.6721C49.4162 37.397 49.6779 38.8663 50.0303 40.0335C50.0604 40.1314 50.089 40.2261 50.1208 40.319C50.3054 40.8769 50.5117 41.3583 50.7382 41.7568C50.7751 41.8232 50.8137 41.8879 50.8523 41.9494C50.9295 42.0722 51.01 42.1868 51.0922 42.293C51.1744 42.3993 51.2583 42.4939 51.3438 42.5786C51.473 42.7064 51.6056 42.8127 51.7431 42.8974C51.7884 42.9256 51.8354 42.9505 51.8824 42.9737C52.0233 43.0418 52.1676 43.0883 52.3152 43.1099C52.3588 43.1165 52.4041 43.1198 52.4477 43.1231C52.4494 43.1231 52.4528 43.1248 52.4544 43.1248C52.4578 43.1248 52.4595 43.1248 52.4628 43.1248H52.4645H52.4662C52.4679 43.1248 52.4679 43.1248 52.4679 43.1248C52.4779 43.1248 52.4897 43.1248 52.4997 43.1248C52.5031 43.1248 52.5064 43.1248 52.5098 43.1248C52.5115 43.1248 52.5115 43.1248 52.5132 43.1248H52.5148C52.5618 43.1248 52.6155 43.1215 52.6742 43.1148C52.6792 43.1148 52.6843 43.1132 52.6893 43.1132C52.7329 43.1065 52.7782 43.0999 52.8235 43.0883C52.9208 43.065 53.0081 43.0318 53.0919 42.992C53.1087 42.9837 53.1272 42.977 53.1439 42.9687C53.1456 42.9671 53.149 42.9654 53.1507 42.9654C53.154 42.9638 53.1557 42.9621 53.159 42.9604C53.1624 42.9588 53.1641 42.9571 53.1674 42.9555C53.258 42.9057 53.3419 42.8426 53.4258 42.7662C53.4308 42.7612 53.4375 42.7546 53.4426 42.7496C53.4795 42.7147 53.5164 42.6799 53.5533 42.64C53.7546 42.4225 53.9576 42.127 54.2059 41.7568C54.2176 41.7385 54.2294 41.7236 54.2411 41.7053C54.2411 41.7053 54.2411 41.7053 54.2411 41.7037C54.9256 40.6909 55.5379 39.9156 56.1553 39.4474C56.5697 39.1403 57.021 38.941 57.5058 38.941C57.9068 38.941 58.3379 39.0772 58.7892 39.3445C58.7892 39.3445 58.7909 39.3445 58.7909 39.3461C59.1348 39.5503 59.3881 39.7927 59.5659 40.0849C59.7253 40.3472 59.8746 40.7557 59.8662 41.3616C59.8662 41.4164 59.8629 41.4712 59.8595 41.5293C59.8528 41.6323 59.8427 41.7402 59.8276 41.8547C59.7639 42.3279 59.6146 42.894 59.3361 43.5697C59.3009 43.6544 59.264 43.7407 59.2254 43.8287C58.915 44.5327 58.4704 45.3462 57.848 46.2875C57.7709 46.4037 57.7172 46.4868 57.6903 46.5349L57.6887 46.5366C57.687 46.5399 57.6836 46.5449 57.6819 46.5482C57.6719 46.5631 57.6702 46.5664 57.6652 46.5781C57.6635 46.5814 57.6618 46.5864 57.6585 46.5897C57.6568 46.5914 57.6568 46.593 57.6551 46.5963C57.6517 46.603 57.6467 46.6113 57.6434 46.6179C57.6417 46.6212 57.64 46.6246 57.6383 46.6279C57.635 46.6345 57.6316 46.6412 57.6299 46.6478C57.6283 46.6511 57.6266 46.6561 57.6249 46.6594C57.6216 46.6661 57.6199 46.671 57.6165 46.6777C57.6148 46.681 57.6132 46.686 57.6115 46.6893C57.6098 46.6959 57.6065 46.7009 57.6048 46.7076C57.6031 46.7125 57.6014 46.7159 57.5997 46.7208C57.5981 46.7275 57.5964 46.7325 57.593 46.7391C57.5914 46.7441 57.5897 46.7491 57.588 46.7541C57.5863 46.7607 57.5846 46.7657 57.583 46.7723C57.5813 46.7773 57.5796 46.7823 57.5796 46.7889C57.5779 46.7956 57.5763 46.8022 57.5746 46.8072C57.5729 46.8122 57.5729 46.8188 57.5712 46.8238C57.5695 46.8304 57.5695 46.8371 57.5679 46.8437C57.5662 46.8503 57.5662 46.857 57.5645 46.8636C57.5628 46.8703 57.5628 46.8769 57.5612 46.8852C57.5612 46.8919 57.5595 46.8985 57.5595 46.9051C57.5595 46.9118 57.5578 46.9201 57.5578 46.9284C57.5578 46.935 57.5561 46.9433 57.5561 46.95C57.5561 46.9583 57.5561 46.9666 57.5544 46.9749C57.5544 46.9832 57.5544 46.9898 57.5544 46.9981C57.5544 47.0064 57.5544 47.0164 57.5544 47.0247C57.5544 47.033 57.5544 47.0413 57.5544 47.0512C57.5544 47.0612 57.5544 47.0695 57.5561 47.0795C57.5561 47.0894 57.5561 47.0977 57.5578 47.1077C57.5578 47.1176 57.5595 47.1276 57.5595 47.1392C57.5595 47.1492 57.5612 47.1591 57.5612 47.1691C57.5628 47.1807 57.5628 47.1924 57.5645 47.204C57.5662 47.2139 57.5662 47.2239 57.5679 47.2355C57.5695 47.2488 57.5712 47.2621 57.5729 47.2754C57.5746 47.2853 57.5746 47.2969 57.5763 47.3069C57.5779 47.3218 57.5796 47.3368 57.583 47.3517C57.5846 47.3617 57.5863 47.3733 57.588 47.3833C57.5897 47.3999 57.593 47.4165 57.5947 47.4347C57.5964 47.4464 57.5981 47.4563 57.5997 47.4679C57.6031 47.4862 57.6065 47.5061 57.6098 47.5261C57.6115 47.536 57.6132 47.5476 57.6148 47.5576C57.6182 47.5792 57.6216 47.6008 57.6266 47.624C57.6283 47.634 57.6299 47.6456 57.6316 47.6556C57.6367 47.6805 57.64 47.7054 57.645 47.7303C57.6467 47.7402 57.6484 47.7502 57.6501 47.7602C57.6551 47.7867 57.6601 47.8149 57.6652 47.8415C57.6668 47.8515 57.6685 47.8631 57.6719 47.873C57.6786 47.9029 57.6836 47.9345 57.6903 47.966C57.692 47.976 57.6937 47.9843 57.6954 47.9942C57.7021 48.0291 57.7105 48.0656 57.7189 48.1038C57.7205 48.1105 57.7222 48.1171 57.7222 48.1237C57.7306 48.1603 57.739 48.2001 57.7474 48.24C57.7491 48.2483 57.7507 48.2566 57.7524 48.2649C57.7608 48.3064 57.7709 48.3512 57.7809 48.3944C57.7826 48.3993 57.7826 48.406 57.7843 48.411C57.7944 48.4525 57.8044 48.4973 57.8145 48.5421C57.8162 48.5521 57.8195 48.5637 57.8212 48.5737C57.8313 48.6168 57.8413 48.66 57.8514 48.7048C57.8547 48.7181 57.8564 48.7297 57.8598 48.743C57.8682 48.7829 57.8782 48.8227 57.8883 48.8642C57.8933 48.8858 57.8984 48.9057 57.9034 48.9289C57.9101 48.9588 57.9185 48.992 57.9252 49.0236C57.9319 49.0551 57.9403 49.0867 57.9487 49.1199C57.9537 49.1431 57.9604 49.168 57.9655 49.1929C57.9755 49.2328 57.9839 49.271 57.994 49.3125V49.3141C57.994 49.3158 57.994 49.3158 57.994 49.3174V49.3191C57.9957 49.3241 57.9957 49.3291 57.9973 49.334L58.0527 49.5598C58.0527 49.5615 58.0527 49.5632 58.0544 49.5648L58.1181 49.8271C58.1517 49.9616 58.1852 50.1027 58.2205 50.2438C58.2473 50.3518 58.2742 50.4613 58.3027 50.5742C58.4235 51.0574 58.5543 51.572 58.6919 52.1016C58.7254 52.2328 58.759 52.364 58.7942 52.4968C58.8345 52.6528 58.8764 52.8106 58.9167 52.9699C59.6599 55.8139 60.497 58.8687 60.804 59.986L60.9684 60.5837V65.3685C60.9684 65.5777 60.9634 65.9164 60.9567 66.3115C60.9349 67.7094 60.9198 68.9114 60.9718 69.4643C61.0171 69.9408 61.1916 70.3774 61.4902 70.7609C61.9733 71.3818 62.6729 71.7404 63.2903 72.0592C63.3993 72.1156 63.5067 72.1704 63.609 72.2252C63.6594 72.2518 63.7969 72.3199 63.9865 72.4112C65.0585 72.9308 65.7195 73.2745 65.9527 73.4339C66.107 73.6381 66.3553 73.7692 66.6321 73.7692C67.1019 73.7692 67.4827 73.3924 67.4827 72.9275C67.4827 72.2817 67.0666 72.0293 64.7331 70.8987C64.577 70.8223 64.463 70.7675 64.4193 70.7443C64.3086 70.6845 64.1912 70.6248 64.0737 70.5633C63.5906 70.3143 63.0906 70.057 62.8373 69.7316C62.735 69.6004 62.6796 69.4643 62.6645 69.3049C62.6159 68.7985 62.641 67.3176 62.6561 66.3364C62.6628 65.9296 62.6679 65.581 62.6679 65.3668V60.5953C62.9799 60.0591 64.4445 58.3026 65.0887 57.5289C65.54 56.9877 65.8017 56.6722 65.9175 56.5162C70.2239 50.6689 77.005 38.9792 74.0355 26.3748C72.5139 19.9182 66.6472 13.6923 60.0826 11.5689C56.9102 10.5429 53.2077 10 49.376 10C43.7358 10 38.4479 11.1705 34.4836 13.2939C30.0765 15.6564 25.3019 20.2685 26.3571 25.4916C26.5014 26.2071 26.8135 26.8679 27.2815 27.4656C26.6826 29.0278 25.8606 32.34 25.7431 33.8076C25.6492 34.9748 26.0552 35.853 26.4142 36.63C26.7715 37.4053 27.055 38.018 26.8386 38.8481C26.3588 40.6909 24.4866 44.4712 24.2249 44.9942C24.0437 45.2532 23.5907 46.0202 23.8357 46.9035C24.0353 47.6273 24.6191 48.1785 25.5703 48.5421L25.9075 48.6716ZM35.3056 14.7781C39.025 12.7842 44.026 11.6868 49.3877 11.6868C53.0433 11.6868 56.563 12.1998 59.5659 13.1727C65.6021 15.1251 70.9957 20.8396 72.3898 26.76C75.2049 38.7103 68.6889 49.9135 64.5535 55.5267C64.4629 55.6512 64.1341 56.0447 63.7869 56.4597C63.0789 57.3081 62.5504 57.9539 62.1545 58.4537C61.928 57.6269 61.6311 56.5311 61.3124 55.3441C61.3107 55.3374 61.309 55.3324 61.3073 55.3258C61.205 54.9456 61.101 54.5538 60.997 54.1603C60.9919 54.1437 60.9886 54.1271 60.9835 54.1105C60.9651 54.0375 60.9449 53.9661 60.9265 53.893C60.9147 53.8465 60.9013 53.7984 60.8896 53.7519C60.8728 53.6888 60.856 53.6257 60.8393 53.5626C60.8258 53.5095 60.8107 53.4564 60.7973 53.4033C60.7822 53.3451 60.7671 53.287 60.752 53.2289C60.7319 53.1542 60.7118 53.0778 60.6933 53.0031C60.6832 52.9666 60.6732 52.9284 60.6648 52.8919C60.6363 52.784 60.6077 52.6761 60.5809 52.5682C60.5675 52.5184 60.5557 52.4702 60.5423 52.4204C60.5255 52.354 60.5071 52.2859 60.4903 52.2195C60.4786 52.1714 60.4651 52.1232 60.4534 52.0751C60.4366 52.0087 60.4198 51.9439 60.4031 51.8792C60.3913 51.8327 60.3796 51.7862 60.3678 51.7414C60.3494 51.67 60.3309 51.5986 60.3125 51.5289C60.3024 51.4874 60.2907 51.4475 60.2806 51.406C60.2538 51.3031 60.2269 51.2001 60.2018 51.0989C60.2001 51.0939 60.1984 51.0889 60.1984 51.0839C60.1699 50.9743 60.143 50.8648 60.1145 50.7569C60.1078 50.7303 60.1011 50.7054 60.0944 50.6788C60.0743 50.5975 60.0541 50.5178 60.034 50.4364C60.0256 50.4032 60.0172 50.3717 60.0088 50.3401C59.9904 50.2687 59.9736 50.1974 59.9551 50.1276C59.9468 50.0928 59.9384 50.0579 59.9283 50.023C59.9099 49.9516 59.8931 49.8819 59.8763 49.8122C59.8696 49.7823 59.8612 49.7524 59.8545 49.7242C59.831 49.6262 59.8075 49.5299 59.784 49.4353V49.4337L59.7823 49.427L59.6683 48.9522C59.6666 48.9455 59.6649 48.9406 59.6632 48.9339C59.6565 48.9024 59.6481 48.8725 59.6414 48.8426C59.571 48.5454 59.5139 48.2947 59.467 48.0872C59.4653 48.0839 59.4653 48.0789 59.4636 48.0756C59.4535 48.0291 59.4435 47.9843 59.4334 47.9411C59.4317 47.9361 59.4317 47.9312 59.43 47.9262C59.42 47.883 59.4116 47.8415 59.4032 47.8017C59.4032 47.8 59.4015 47.7983 59.4015 47.795C59.3395 47.5012 59.3059 47.3185 59.2891 47.2056C59.5693 46.7823 59.8226 46.3689 60.0508 45.9688C60.0541 45.9621 60.0575 45.9555 60.0625 45.9505C60.1028 45.8791 60.1414 45.8094 60.18 45.7397C60.1967 45.7098 60.2152 45.6782 60.2303 45.6483C60.2638 45.5869 60.2957 45.5255 60.3276 45.4641C60.3477 45.4259 60.3695 45.3877 60.388 45.3495C60.4148 45.2964 60.44 45.2449 60.4668 45.1934C60.4903 45.147 60.5138 45.1005 60.5373 45.0556C60.5574 45.0141 60.5759 44.9743 60.596 44.9328C60.6228 44.8763 60.6497 44.8216 60.6765 44.7668C60.6916 44.7336 60.7067 44.702 60.7201 44.6688C60.7487 44.6057 60.7772 44.5426 60.8057 44.4812C60.8174 44.453 60.8292 44.4264 60.8409 44.3982C60.8695 44.3318 60.898 44.2654 60.9248 44.2006C60.9349 44.1741 60.945 44.1492 60.955 44.1226C60.9819 44.0562 61.0087 43.9898 61.0339 43.925C61.0439 43.9001 61.0523 43.8752 61.0607 43.8503C61.0859 43.7839 61.1094 43.7192 61.1328 43.6544C61.1412 43.6295 61.1496 43.6063 61.1563 43.583C61.1781 43.5183 61.2016 43.4535 61.2218 43.3888C61.2301 43.3639 61.2369 43.3406 61.2436 43.3174C61.2637 43.2543 61.2838 43.1896 61.3006 43.1281C61.3073 43.1049 61.3124 43.0816 61.3191 43.0584C61.3358 42.9953 61.3543 42.9322 61.3694 42.8708C61.3761 42.8459 61.3811 42.821 61.3862 42.7961C61.4013 42.7363 61.4147 42.6765 61.4281 42.6184C61.4331 42.5952 61.4365 42.5719 61.4415 42.5487C61.4533 42.4889 61.4667 42.4292 61.4768 42.3711C61.4818 42.3478 61.4835 42.3246 61.4885 42.3013C61.4986 42.2432 61.5086 42.1851 61.517 42.1287C61.5204 42.1038 61.5237 42.0805 61.5254 42.0556C61.5321 42.0008 61.5405 41.9444 61.5455 41.8896C61.5489 41.8664 61.5489 41.8414 61.5523 41.8182C61.5573 41.7634 61.5623 41.7103 61.5657 41.6572C61.5674 41.6323 61.5674 41.6074 61.569 41.5841C61.5724 41.5326 61.5741 41.4812 61.5757 41.4297C61.5757 41.4048 61.5757 41.3799 61.5757 41.355C61.5757 41.3052 61.5774 41.2554 61.5757 41.2072C61.5757 41.1823 61.5741 41.1574 61.5724 41.1309C61.5707 41.0827 61.569 41.0346 61.5657 40.9881C61.564 40.9615 61.5606 40.9366 61.559 40.9101C61.5556 40.8652 61.5506 40.8188 61.5455 40.7739C61.5422 40.7474 61.5372 40.7208 61.5338 40.6942C61.5271 40.6511 61.5221 40.6079 61.5153 40.5647C61.5103 40.5382 61.5053 40.5133 61.5002 40.4867C61.4919 40.4452 61.4851 40.402 61.4751 40.3605C61.4701 40.334 61.4617 40.3091 61.4566 40.2825C61.4466 40.2427 61.4365 40.2011 61.4264 40.1613C61.4197 40.1347 61.4113 40.1098 61.4029 40.0833C61.3912 40.0451 61.3795 40.0052 61.3677 39.9671C61.3593 39.9405 61.3493 39.9156 61.3392 39.8907C61.3258 39.8525 61.3123 39.8143 61.2972 39.7778C61.2872 39.7529 61.2754 39.728 61.2654 39.7031C61.2503 39.6666 61.2352 39.63 61.2184 39.5935C61.2067 39.5686 61.1932 39.5437 61.1815 39.5188C61.1647 39.4839 61.1479 39.4491 61.1295 39.4142C61.1161 39.3893 61.101 39.3644 61.0875 39.3395C61.0708 39.3079 61.054 39.2764 61.0355 39.2465C61.0322 39.2415 61.0305 39.2382 61.0272 39.2332C61.007 39.1984 60.9852 39.1652 60.9651 39.1303C60.9483 39.1037 60.9332 39.0755 60.9164 39.049C60.8879 39.0074 60.8577 38.9659 60.8292 38.9244C60.8124 38.9012 60.7956 38.8763 60.7789 38.853C60.7453 38.8099 60.7084 38.7684 60.6732 38.7252C60.6564 38.7069 60.6413 38.687 60.6262 38.6671C60.5792 38.614 60.5289 38.5625 60.4769 38.5127C60.4702 38.5061 60.4651 38.4994 60.4584 38.4944C60.3997 38.438 60.341 38.3832 60.2772 38.3317C60.2554 38.3135 60.2303 38.2952 60.2085 38.2769C60.1665 38.2437 60.1263 38.2105 60.0826 38.179C60.0541 38.1574 60.0222 38.1391 59.9937 38.1176C59.9551 38.091 59.9166 38.0628 59.8746 38.0379C59.8427 38.018 59.8092 37.9997 59.7773 37.9798C59.7387 37.9565 59.7001 37.9333 59.6616 37.9117C59.5693 37.8569 59.4753 37.8054 59.3814 37.7573C59.2992 37.7141 59.217 37.6759 59.1348 37.6394C59.1297 37.6378 59.1247 37.6344 59.1197 37.6328C57.5779 36.9371 56.2962 37.2974 55.2662 38.0279C55.246 38.0412 55.2276 38.0561 55.2074 38.0694C55.1772 38.091 55.147 38.1126 55.1168 38.1358C54.1086 38.8946 53.362 39.9986 52.8302 40.7855C52.7262 40.9383 52.6121 41.1093 52.5098 41.2521C52.4947 41.272 52.4796 41.2936 52.4662 41.3135C52.2313 41.023 51.8589 40.3456 51.5284 39.0705C51.4932 38.9361 51.4596 38.7949 51.426 38.6472C51.2398 37.8353 51.0754 36.8143 50.9647 35.5442C50.963 35.516 50.9597 35.4894 50.9563 35.4612C50.8926 34.7373 50.8137 34.0749 50.7248 33.4855C50.7063 33.3693 50.6896 33.2531 50.6694 33.1419C50.651 33.0323 50.6325 32.926 50.6141 32.8248C50.5956 32.7235 50.5755 32.6255 50.557 32.5326C50.4966 32.2387 50.4245 31.9183 50.3339 31.6028C50.3121 31.5232 50.2869 31.4451 50.2618 31.3671C50.2114 31.211 50.1578 31.0583 50.0957 30.9122C50.0336 30.7661 49.9699 30.625 49.896 30.4955C49.8239 30.366 49.7451 30.2464 49.6595 30.1402C49.5303 29.9808 49.386 29.853 49.2233 29.7683C49.1143 29.7118 48.9968 29.6753 48.871 29.6604C48.8475 29.6571 48.8224 29.6554 48.7989 29.6554C48.559 29.6488 46.8377 29.6006 45.6768 29.6222C45.6499 29.6222 45.6265 29.6239 45.6013 29.6239C45.5761 29.6239 45.551 29.6255 45.5258 29.6255C45.4922 29.6272 45.4604 29.6272 45.4285 29.6288C45.4201 29.6288 45.4134 29.6288 45.4067 29.6288C45.3396 29.6305 45.2792 29.6338 45.2205 29.6355C45.2054 29.6355 45.1903 29.6371 45.1752 29.6371C45.1517 29.6388 45.1282 29.6388 45.1064 29.6405C45.0829 29.6421 45.0628 29.6438 45.041 29.6454C45.0259 29.6471 45.0091 29.6471 44.994 29.6488C44.9571 29.6521 44.9219 29.6537 44.89 29.6571C44.7323 29.672 43.5764 29.7517 41.8988 29.7517C40.7009 29.7517 39.5618 29.7135 38.4881 29.6388C38.4713 29.6371 38.4546 29.6371 38.4378 29.6355C38.3321 29.6272 38.2281 29.6189 38.1224 29.6122C37.1645 29.5359 36.1797 29.4246 35.2184 29.2669C35.1916 29.2619 35.163 29.2586 35.1362 29.2536C35.0624 29.242 34.9886 29.2287 34.9148 29.2154C32.2339 28.7423 30.2224 27.967 29.0883 26.9393C29.0799 26.9326 29.0732 26.926 29.0648 26.9177C29.0044 26.8612 28.9457 26.8048 28.8904 26.7483L28.8887 26.7467C28.429 26.2702 28.1489 25.7572 28.0314 25.1745C27.1641 20.8413 31.4068 16.8684 35.3056 14.7781Z" fill="white"/>
<g clip-path="url(#clip0_80_6069)">
<path d="M12.649 42.9724L12.6152 42.9581L17.7001 40.893C17.8899 40.8044 18.0384 40.6461 18.1148 40.4511C18.1912 40.256 18.1896 40.039 18.1105 39.845C18.0313 39.651 17.8805 39.495 17.6894 39.4091C17.4984 39.3232 17.2816 39.314 17.0839 39.3836L10.1758 42.1892C10.0496 42.2368 9.93716 42.315 9.84858 42.4168C9.76 42.5185 9.69802 42.6406 9.66819 42.7722C9.64132 42.9281 9.65793 43.0883 9.71617 43.2354L12.532 50.1612C12.6128 50.3617 12.7697 50.5219 12.9684 50.6069C13.1174 50.6708 13.282 50.6889 13.4413 50.6589C13.6006 50.6289 13.7474 50.5522 13.8629 50.4384C13.9784 50.3247 14.0575 50.1792 14.0899 50.0203C14.1224 49.8615 14.1068 49.6966 14.0452 49.5467L11.9801 44.4618C16.0818 46.1894 19.3294 49.4755 21.0086 53.5972C22.6878 57.719 22.6612 62.3389 20.9345 66.4411C20.8503 66.6405 20.8488 66.8651 20.9302 67.0657C21.0117 67.2662 21.1694 67.4262 21.3688 67.5104C21.5682 67.5947 21.7929 67.5962 21.9935 67.5148C22.194 67.4333 22.354 67.2755 22.4382 67.0761C24.3308 62.5811 24.3631 57.5188 22.5278 53C20.6926 48.4812 17.1399 44.8749 12.649 42.9724Z" fill="white"/>
</g>
<circle cx="46" cy="45" r="44" stroke="white" stroke-width="2"/>
<defs>
<clipPath id="clip0_80_6069">
<rect width="26.1166" height="26.1166" fill="white" transform="translate(10.1611 35.3125) rotate(22.8966)"/>
</clipPath>
</defs>
</svg>
