<svg width="90" height="90" viewBox="0 0 90 90" fill="none" xmlns="http://www.w3.org/2000/svg">
<circle cx="45" cy="45" r="44" stroke="white" stroke-width="2"/>
<path d="M33.3031 17.1462C34.5961 17.1447 35.8446 17.6245 36.8112 18.4942C37.1877 17.4685 37.8651 16.5839 38.7523 15.9594C39.6395 15.3348 40.6941 15 41.7745 15C42.855 15 43.9096 15.3348 44.7968 15.9594C45.684 16.5839 46.3613 17.4685 46.7378 18.4942C47.501 17.8131 48.4418 17.3692 49.4476 17.2156C50.4535 17.062 51.4817 17.2053 52.4092 17.6283C53.3367 18.0512 54.1242 18.736 54.6775 19.6005C55.2307 20.4651 55.5262 21.4728 55.5286 22.503V33.2294C56.3147 32.6315 57.2497 32.2672 58.2287 32.1774C59.2078 32.0875 60.1922 32.2756 61.0716 32.7207C61.951 33.1657 62.6907 33.85 63.2076 34.6969C63.7246 35.5438 63.9984 36.5198 63.9984 37.5155V52.528C64.0299 54.9422 63.5877 57.3387 62.6973 59.5783C61.807 61.818 60.4862 63.8563 58.8118 65.5748C57.1373 67.2933 55.1426 68.6578 52.9432 69.5891C50.7439 70.5204 48.3838 71 46 71C43.6162 71 41.2561 70.5204 39.0568 69.5891C36.8574 68.6578 34.8627 67.2933 33.1882 65.5748C31.5138 63.8563 30.1931 61.818 29.3027 59.5783C28.4123 57.3387 27.9701 54.9422 28.0016 52.528V22.503C28.0041 21.0809 28.5638 19.7179 29.5579 18.7135C30.5519 17.7091 31.899 17.1454 33.3031 17.1462ZM33.3031 19.2909C32.4619 19.2917 31.6554 19.6303 31.0603 20.2324C30.4652 20.8345 30.1301 21.6511 30.1285 22.503V37.5187C31.0428 36.8198 32.1576 36.4427 33.3031 36.4448H36.4809V22.503C36.4792 21.6505 36.1437 20.8335 35.5479 20.2313C34.9521 19.6291 34.1448 19.2909 33.3031 19.2909ZM44.9444 20.3616C44.9184 19.5259 44.5724 18.7333 43.9796 18.1515C43.3868 17.5696 42.5937 17.2443 41.7682 17.2443C40.9427 17.2443 40.1497 17.5696 39.5568 18.1515C38.964 18.7333 38.618 19.5259 38.592 20.3616V36.448H44.9507V20.3616H44.9444ZM61.8904 37.5187C61.8644 36.683 61.5184 35.8904 60.9256 35.3086C60.3328 34.7267 59.5397 34.4014 58.7142 34.4014C57.8887 34.4014 57.0956 34.7267 56.5028 35.3086C55.91 35.8904 55.564 36.683 55.538 37.5187V43.9526C55.5246 44.3836 55.5969 44.8129 55.7505 45.215C55.904 45.6172 56.1359 45.984 56.4321 46.2936C56.7284 46.6033 57.083 46.8495 57.4751 47.0176C57.8671 47.1858 58.2885 47.2724 58.7142 47.2724C59.1399 47.2724 59.5613 47.1858 59.9533 47.0176C60.3454 46.8495 60.7 46.6033 60.9963 46.2936C61.2926 45.984 61.5244 45.6172 61.678 45.215C61.8316 44.8129 61.9038 44.3836 61.8904 43.9526V37.5187ZM30.1285 52.5312C30.0989 54.6625 30.4877 56.7785 31.2725 58.7563C32.0573 60.7341 33.2224 62.5342 34.7 64.052C36.1777 65.5698 37.9384 66.775 39.8799 67.5977C41.8214 68.4203 43.9049 68.8439 46.0094 68.8439C48.114 68.8439 50.1975 68.4203 52.139 67.5977C54.0805 66.775 55.8412 65.5698 57.3188 64.052C58.7965 62.5342 59.9615 60.7341 60.7463 58.7563C61.5311 56.7785 61.92 54.6625 61.8904 52.5312V48.2387C61.1046 48.8378 60.1694 49.2031 59.19 49.2936C58.2105 49.3841 57.2255 49.1962 56.3456 48.751C55.4658 48.3057 54.7259 47.6208 54.2092 46.7732C53.6925 45.9256 53.4194 44.9488 53.4206 43.9526V22.503C53.3946 21.6674 53.0486 20.8747 52.4558 20.2929C51.8629 19.7111 51.0698 19.3858 50.2444 19.3858C49.4189 19.3858 48.6258 19.7111 48.033 20.2929C47.4402 20.8747 47.0941 21.6674 47.0682 22.503V36.4448H49.1856C50.0276 36.4448 50.8351 36.7835 51.4304 37.3865C52.0258 37.9895 52.3603 38.8074 52.3603 39.6601C52.3586 41.6503 51.5775 43.5584 50.1884 44.966C48.7993 46.3735 46.9156 47.1654 44.9507 47.168H44.2271C45.7578 48.2549 47.0076 49.6992 47.8707 51.3788C48.7338 53.0584 49.1848 54.9238 49.1856 56.8172V58.9619C49.1935 59.1076 49.1719 59.2534 49.1223 59.3904C49.0726 59.5275 48.9959 59.6528 48.8968 59.7588C48.7977 59.8647 48.6783 59.9491 48.546 60.0068C48.4136 60.0645 48.271 60.0943 48.1269 60.0943C47.9828 60.0943 47.8402 60.0645 47.7078 60.0068C47.5755 59.9491 47.4561 59.8647 47.357 59.7588C47.2579 59.6528 47.1812 59.5275 47.1316 59.3904C47.0819 59.2534 47.0603 59.1076 47.0682 58.9619V56.8172C47.0648 54.2586 46.0596 51.8057 44.273 49.9968C42.4864 48.1878 40.0643 47.1705 37.538 47.168C37.2672 47.153 37.0124 47.0335 36.8259 46.8341C36.6394 46.6346 36.5355 46.3703 36.5355 46.0956C36.5355 45.8209 36.6394 45.5567 36.8259 45.3572C37.0124 45.1578 37.2672 45.0383 37.538 45.0233H44.9507C46.3537 45.0216 47.6988 44.4564 48.6909 43.4516C49.683 42.4467 50.2411 41.0844 50.2428 39.6633C50.2428 39.3794 50.1314 39.107 49.9332 38.9062C49.7349 38.7054 49.466 38.5926 49.1856 38.5926H33.3031C32.4614 38.5934 31.6544 38.9325 31.0592 39.5353C30.464 40.1381 30.1293 40.9554 30.1285 41.808V52.5312Z" fill="white"/>
</svg>
