<svg width="90" height="90" viewBox="0 0 90 90" fill="none" xmlns="http://www.w3.org/2000/svg">
<circle cx="45" cy="45" r="44" stroke="white" stroke-width="2"/>
<path d="M33.7297 15C35.2502 15.0019 36.7079 15.6243 37.7828 16.7307C38.8577 17.8372 39.4619 19.3371 39.4628 20.9014V27.9845C40.176 27.4323 41.0047 27.0593 41.8829 26.895C42.7611 26.7307 43.6645 26.7798 44.521 27.0383C45.3775 27.2968 46.1635 27.7576 46.8162 28.384C47.4689 29.0103 47.9703 29.7849 48.2805 30.6459C48.9774 30.0097 49.8145 29.5579 50.7194 29.3297C51.6242 29.1014 52.5696 29.1037 53.4734 29.3361C54.3773 29.5686 55.2124 30.0243 55.9064 30.6637C56.6004 31.3032 57.1324 32.1071 57.4562 33.0058C58.2826 32.2494 59.3041 31.7551 60.3974 31.5826C61.4907 31.41 62.6092 31.5664 63.618 32.0331C64.6268 32.4997 65.4829 33.2566 66.083 34.2125C66.6831 35.1684 67.0015 36.2825 67 37.4204V53.9394C67 59.2598 64.9455 64.3623 61.2886 68.1244C57.6316 71.8865 52.6717 74 47.5 74C42.3283 74 37.3684 71.8865 33.7114 68.1244C30.0545 64.3623 28 59.2598 28 53.9394V20.9014C28.0018 19.338 28.6058 17.8391 29.6798 16.733C30.7537 15.6269 32.21 15.0037 33.7297 15ZM37.1689 20.9014C37.1834 20.4272 37.1051 19.9548 36.9387 19.5123C36.7723 19.0698 36.5212 18.6662 36.2003 18.3254C35.8793 17.9847 35.4951 17.7138 35.0704 17.5288C34.6457 17.3438 34.1892 17.2484 33.728 17.2484C33.2668 17.2484 32.8103 17.3438 32.3856 17.5288C31.9609 17.7138 31.5767 17.9847 31.2557 18.3254C30.9348 18.6662 30.6836 19.0698 30.5173 19.5123C30.3509 19.9548 30.2726 20.4272 30.2871 20.9014V37.4239C31.2786 36.6538 32.4873 36.2377 33.7297 36.2387H37.1689V20.9014ZM46.3445 32.7007C46.359 32.2265 46.2808 31.7541 46.1144 31.3116C45.948 30.8691 45.6969 30.4655 45.3759 30.1247C45.055 29.784 44.6707 29.5131 44.246 29.3281C43.8213 29.1431 43.3649 29.0477 42.9036 29.0477C42.4424 29.0477 41.9859 29.1431 41.5612 29.3281C41.1365 29.5131 40.7523 29.784 40.4314 30.1247C40.1104 30.4655 39.8593 30.8691 39.6929 31.3116C39.5265 31.7541 39.4483 32.2265 39.4628 32.7007V36.2387H46.3445V32.7007ZM55.5202 35.0606C55.5347 34.5863 55.4564 34.1139 55.29 33.6714C55.1236 33.2289 54.8725 32.8253 54.5516 32.4846C54.2306 32.1439 53.8464 31.8729 53.4217 31.6879C52.997 31.5029 52.5405 31.4076 52.0793 31.4076C51.6181 31.4076 51.1616 31.5029 50.7369 31.6879C50.3122 31.8729 49.928 32.1439 49.607 32.4846C49.2861 32.8253 49.035 33.2289 48.8686 33.6714C48.7022 34.1139 48.6239 34.5863 48.6384 35.0606V36.2387H50.9324C51.8451 36.2397 52.7202 36.6131 53.3656 37.2771C54.011 37.941 54.374 38.8413 54.3749 39.7803C54.3756 40.8788 54.1624 41.9663 53.748 42.9786C53.3335 43.991 52.7261 44.9077 51.9617 45.6747H52.081C52.9929 45.6737 53.8671 45.3007 54.5119 44.6374C55.1566 43.9741 55.5193 43.0747 55.5202 42.1366V35.0606ZM64.6993 37.4204C64.6993 36.4811 64.3366 35.5803 63.6909 34.9162C63.0453 34.252 62.1697 33.8789 61.2567 33.8789C60.3436 33.8789 59.468 34.252 58.8224 34.9162C58.1768 35.5803 57.8141 36.4811 57.8141 37.4204V44.5C57.8141 45.4393 58.1768 46.3401 58.8224 47.0042C59.468 47.6684 60.3436 48.0415 61.2567 48.0415C62.1697 48.0415 63.0453 47.6684 63.6909 47.0042C64.3366 46.3401 64.6993 45.4393 64.6993 44.5V37.4204ZM30.2735 53.9394C30.2735 58.6358 32.087 63.1398 35.315 66.4607C38.5431 69.7815 42.9212 71.6472 47.4864 71.6472C52.0515 71.6472 56.4297 69.7815 59.6577 66.4607C62.8858 63.1398 64.6993 58.6358 64.6993 53.9394V49.2162C63.9856 49.7675 63.1566 50.1399 62.2784 50.3035C61.4002 50.4671 60.497 50.4176 59.6407 50.1588C58.7844 49.9 57.9986 49.4391 57.346 48.8128C56.6934 48.1865 56.1919 47.4121 55.8815 46.5513C55.0208 47.3368 53.9498 47.837 52.8084 47.9865C51.667 48.136 50.5083 47.9279 49.4837 47.3893C48.4946 47.8185 47.4317 48.0391 46.3582 48.038H45.5776C47.2357 49.2348 48.5893 50.8248 49.5237 52.6736C50.4582 54.5223 50.946 56.5754 50.946 58.6592V61.019C50.93 61.3208 50.8022 61.6049 50.5888 61.8127C50.3755 62.0205 50.0928 62.1364 49.799 62.1364C49.5052 62.1364 49.2226 62.0205 49.0092 61.8127C48.7959 61.6049 48.6681 61.3208 48.6521 61.019V58.6592C48.6494 55.8437 47.5612 53.1443 45.6264 51.1532C43.6915 49.1621 41.0679 48.0417 38.3312 48.038C38.1753 48.0468 38.0193 48.0227 37.8727 47.9674C37.7262 47.9121 37.5922 47.8266 37.4788 47.7161C37.3655 47.6057 37.2752 47.4727 37.2135 47.3251C37.1518 47.1776 37.1199 47.0187 37.1199 46.8581C37.1199 46.6975 37.1518 46.5386 37.2135 46.3911C37.2752 46.2435 37.3655 46.1105 37.4788 46.0001C37.5922 45.8897 37.7262 45.8042 37.8727 45.7488C38.0193 45.6935 38.1753 45.6694 38.3312 45.6782H46.3445C47.2269 45.6794 48.0975 45.4693 48.8873 45.0645C48.9544 45.021 49.0251 44.9834 49.0986 44.9523C49.9992 44.4453 50.751 43.6988 51.2756 42.791C51.8002 41.8831 52.0784 40.847 52.081 39.7908C52.081 39.4774 51.96 39.1768 51.7446 38.9552C51.5292 38.7336 51.237 38.6091 50.9324 38.6091H33.7297C32.8169 38.61 31.9418 38.9835 31.2964 39.6474C30.651 40.3114 30.288 41.2117 30.2871 42.1507L30.2735 53.9394Z" fill="white"/>
</svg>
