<svg width="90" height="90" viewBox="0 0 90 90" fill="none" xmlns="http://www.w3.org/2000/svg">
<circle cx="45" cy="45" r="44" stroke="white" stroke-width="2"/>
<path d="M23.2207 39.5444C21.5343 39.9626 20.3086 41.7816 20.3086 43.8692C20.3086 46.3036 21.944 48.2841 23.9534 48.2841C24.2373 48.2841 24.5178 48.2416 24.7898 48.1651C25.4936 52.2179 27.4027 55.9698 30.2774 58.8836L33.5346 62.1799C33.4632 62.2836 33.4173 62.4077 33.4088 62.542L32.9617 70.4368L32.96 70.4725C32.8495 72.1521 32.0148 73.7637 30.6701 74.8942C30.5528 74.9928 30.3505 75.1169 30.0802 75.2614C30.0802 75.2614 30.0802 75.2614 30.0802 75.2631C30.2145 75.7357 30.4083 76.1726 30.6497 76.5755C31.0815 76.3528 31.4079 76.1556 31.5966 75.9975C33.2405 74.6154 34.2605 72.6366 34.3965 70.5694L34.7994 63.4634L36.2971 64.9815L37.4497 63.9666L37.9427 63.562C39.0035 62.6899 40.4094 62.2105 41.902 62.2105H47.886C49.3769 62.2105 50.7828 62.6899 51.8453 63.562L52.0391 63.7218C52.2108 63.2679 52.4029 62.8208 52.6103 62.3771C51.2996 61.4268 49.6387 60.9066 47.886 60.9066H41.902C39.9963 60.9066 38.1977 61.5203 36.8411 62.6355L36.3651 63.0265L31.2685 57.8619C28.1898 54.7407 26.3011 50.5842 25.9543 46.1574C25.7775 43.9185 25.6381 41.5742 25.5395 39.7552C26.3096 38.6604 26.5986 37.4789 26.9012 36.2396C26.959 36.0033 27.0168 35.7636 27.0814 35.5188C28.4533 30.2063 31.2379 27.4931 42.6534 27.4081C48.5184 27.3639 52.6698 26.2402 54.9886 24.0676C56.0239 23.0969 56.4676 22.1126 56.6563 21.4003C58.8408 22.6328 60.5425 24.9635 61.7257 28.3431C62.8443 31.5391 63.2387 34.934 63.373 37.2171C63.4036 37.7543 63.5107 38.3782 63.6314 38.9477C63.5821 39.0412 63.5515 39.1466 63.5481 39.2588C63.458 41.7136 63.3475 44.0375 63.2268 45.9789C63.1996 46.4124 63.1537 46.8408 63.0976 47.2692C62.9905 47.3406 62.897 47.4528 62.8409 47.599C62.7389 47.8642 62.7797 48.1566 62.9276 48.3453C62.2357 51.9816 60.4949 55.3374 57.8922 57.9741L54.5619 61.3486C54.3137 61.4166 54.125 61.6138 54.0587 61.8586L53.1424 62.7868L52.612 62.3754L52.0408 63.7201L53.4433 64.5667L53.7561 64.1893L54.1301 63.8102L54.4803 69.9846L54.4837 70.0271C54.6197 72.096 55.6414 74.0748 57.2853 75.4569C57.4111 75.5623 57.5981 75.6847 57.8361 75.8207C58.1217 75.6269 58.4022 75.4263 58.6793 75.2206C58.8085 75.1016 58.9343 74.9792 59.0601 74.8534C58.6572 74.6528 58.3665 74.4828 58.2135 74.3536C56.8688 73.2231 56.0341 71.6115 55.9236 69.9302L55.4986 62.4264L58.8833 58.9975C61.6373 56.2078 63.4988 52.6701 64.2706 48.8332C66.2919 49.0202 68.1976 47.1961 68.5648 44.6835C68.898 42.3919 67.8457 40.2533 66.1015 39.6107C66.4806 38.9681 66.9719 38.1436 67.453 37.3565C67.4751 37.3208 67.4921 37.2834 67.5057 37.2443C70.2376 29.4328 69.8874 23.3094 66.4636 19.0475C65.2362 17.5192 62.9752 15.4792 59.1757 14.4337C58.5722 13.8404 56.0188 11.4961 51.8402 9.88114C47.4814 8.19814 40.4774 7.04044 31.8567 11.083C24.5382 14.5153 20.8203 20.6778 21.1059 28.9058C21.2725 33.727 22.7413 37.875 23.4111 39.5325H23.3346C23.2904 39.5325 23.2564 39.5359 23.2207 39.5444ZM67.4683 44.5237C67.2116 46.2815 65.8992 47.5599 64.4899 47.4783C64.5511 47.0108 64.597 46.5416 64.6276 46.0673C64.7194 44.5764 64.8044 42.9189 64.8792 41.122C65.1019 41.0897 65.2991 40.9673 65.4045 40.7871C65.4045 40.7854 65.4079 40.7803 65.4147 40.7701C65.4657 40.8143 65.5235 40.85 65.5898 40.8704C66.9056 41.2682 67.7148 42.8373 67.4683 44.5237ZM22.5373 28.8327C22.2772 21.0229 25.6398 15.4231 32.5299 12.1914C39.0171 9.14844 45.2969 8.75234 51.1942 11.0116C55.3218 12.5926 57.8191 14.9964 58.1557 15.3347C58.3036 15.5166 58.5467 15.5829 58.7099 15.6288C62.1388 16.5672 64.1737 18.3998 65.277 19.7717C68.4237 23.6885 68.7144 29.4243 66.1406 36.8176C65.7564 37.4483 65.3671 38.0977 65.0356 38.6587C64.9285 38.1521 64.8367 37.6081 64.8112 37.1508C64.6735 34.7946 64.2655 31.2909 63.1027 27.9708C61.639 23.7888 59.3746 21.0484 56.3741 19.8244C56.2789 19.7853 56.1769 19.7666 56.0732 19.7666C55.9321 19.7666 55.791 19.804 55.6686 19.8737C55.4595 19.9961 55.3388 20.2086 55.349 20.4279C55.3524 20.4857 55.4017 21.8525 53.8972 23.238C51.3438 25.5908 46.3645 26.1178 42.6381 26.145C31.6884 26.2266 27.4078 28.5216 25.6721 35.2383C25.6075 35.4882 25.548 35.733 25.4885 35.9744C25.2998 36.7496 25.1298 37.4381 24.8663 38.0705C24.8255 38.0654 24.7847 38.062 24.7439 38.0637C24.6198 38.0705 24.5059 38.113 24.409 38.1759C23.7052 36.2141 22.6648 32.7172 22.5373 28.8327ZM24.0027 40.8058C24.0673 40.8058 24.1285 40.7905 24.1863 40.7633C24.2815 42.4242 24.4039 44.3826 24.5518 46.2696C24.5688 46.4838 24.5892 46.6963 24.613 46.9088C24.3988 46.9768 24.1778 47.0125 23.9534 47.0125C22.5237 47.0125 21.3592 45.6032 21.3592 43.8709C21.3592 42.4055 22.2058 41.1271 23.3805 40.8058H24.0027V40.8058Z" fill="white"/>
<path d="M49.7394 49.811C48.9302 50.559 46.931 51.0061 44.3929 51.0061C41.8531 51.0061 39.8556 50.559 39.0464 49.811C38.8271 49.6087 38.4854 49.6206 38.2831 49.8399C38.0808 50.0592 38.0944 50.4009 38.312 50.6032C39.706 51.8935 42.7201 52.0856 44.3929 52.0856C46.0657 52.0856 49.0798 51.8935 50.4738 50.6032C50.6931 50.4009 50.7067 50.0592 50.5027 49.8399C50.3004 49.6223 49.9587 49.6087 49.7394 49.811Z" fill="white"/>
<path d="M44.3923 46.3532C45.4072 46.3532 46.3133 45.9469 46.757 45.2924C46.9236 45.0459 46.859 44.7093 46.6125 44.5427C46.366 44.3761 46.0294 44.4407 45.8628 44.6872C45.6656 44.9779 45.1352 45.2737 44.394 45.2737C43.6528 45.2737 43.1224 44.9796 42.9252 44.6872C42.7586 44.4407 42.422 44.3761 42.1755 44.5427C41.929 44.7093 41.8644 45.0459 42.031 45.2924C42.4713 45.9469 43.3757 46.3532 44.3923 46.3532Z" fill="white"/>
<path d="M44.3925 53.0479C43.0682 53.0479 41.885 53.427 41.3019 54.0373C41.0962 54.2532 41.103 54.5949 41.3206 54.8006C41.5365 55.0063 41.8782 54.9995 42.0839 54.7819C42.3848 54.4657 43.2365 54.1257 44.3925 54.1257C45.5485 54.1257 46.4002 54.4657 46.7011 54.7819C46.9068 54.9978 47.2485 55.0063 47.4644 54.8006C47.6803 54.5949 47.6888 54.2532 47.4814 54.0373C46.9 53.427 45.7151 53.0479 44.3925 53.0479Z" fill="white"/>
<path d="M50.9423 34.2389C50.9678 34.2355 53.6062 33.8836 56.9331 35.9542C56.9773 35.9814 57.0249 36.0018 57.0725 36.0154C57.2986 36.0783 57.5468 35.9899 57.6777 35.7808C57.8358 35.5275 57.7576 35.1943 57.5043 35.0362C53.8153 32.7412 50.9049 33.1509 50.7825 33.1696C50.4884 33.2138 50.2861 33.4892 50.3303 33.7833C50.3728 34.0774 50.6482 34.2814 50.9423 34.2389Z" fill="white"/>
<path d="M31.6833 35.8517C31.7326 35.8415 31.7802 35.8228 31.8261 35.7973C35.2533 33.9137 37.8645 34.4016 37.9002 34.4084C38.1909 34.4679 38.4765 34.2809 38.5377 33.9885C38.5989 33.6961 38.4102 33.4105 38.1195 33.3493C37.9988 33.3238 35.1139 32.7577 31.3059 34.8487C31.0441 34.9932 30.9489 35.3213 31.0917 35.5831C31.209 35.8007 31.4538 35.9044 31.6833 35.8517Z" fill="white"/>
<path d="M38.4936 38.1925C38.7197 38.1313 38.8897 37.9273 38.8931 37.6808C38.8999 37.3833 38.6619 37.1351 38.3644 37.13C34.0209 37.0416 31.7276 38.881 31.6324 38.9592C31.4029 39.1479 31.3689 39.4862 31.5576 39.7174C31.7446 39.9486 32.0863 39.9826 32.3175 39.7956C32.3379 39.7786 34.4255 38.1296 38.344 38.2095C38.395 38.2112 38.4443 38.2044 38.4936 38.1925Z" fill="white"/>
<path d="M56.8584 40.3062C57.0828 40.3759 57.3344 40.2926 57.4704 40.0869C57.6353 39.837 57.5656 39.5021 57.3174 39.3389C53.6896 36.947 50.769 37.2802 50.6466 37.2955C50.3508 37.3329 50.1417 37.6015 50.1791 37.8973C50.2148 38.1931 50.4834 38.4039 50.7792 38.3682C50.8047 38.3648 53.4516 38.0843 56.7224 40.2416C56.7632 40.2705 56.8108 40.2926 56.8584 40.3062Z" fill="white"/>
<g clip-path="url(#clip0_267_2002)">
<path d="M72.8854 59.312L69.0261 55.2298C69.0258 55.2295 69.0256 55.2294 69.0254 55.2291C68.7352 54.9231 68.2638 54.9241 67.9746 55.2292C67.9744 55.2294 67.9742 55.2296 67.9739 55.2299L64.1146 59.312C63.8254 59.6179 63.8265 60.1126 64.1171 60.4169C64.4076 60.7213 64.8775 60.7201 65.1667 60.4143L67.7578 57.6735V74.2188C67.7578 74.6502 68.0901 75 68.5 75C68.9099 75 69.2422 74.6502 69.2422 74.2188V57.6735L71.8333 60.4142C72.1225 60.7201 72.5924 60.7212 72.8829 60.4169C73.1735 60.1124 73.1745 59.6177 72.8854 59.312Z" fill="white"/>
</g>
<defs>
<clipPath id="clip0_267_2002">
<rect width="19" height="20" fill="white" transform="translate(59 55)"/>
</clipPath>
</defs>
</svg>
