<svg width="90" height="90" viewBox="0 0 90 90" fill="none" xmlns="http://www.w3.org/2000/svg">
<circle cx="45" cy="45" r="44" stroke="white" stroke-width="2"/>
<path d="M26.8886 19.4025C28.2817 19.0104 29.7831 19.1529 31.0649 19.799C32.3467 20.4451 33.3047 21.5422 33.7299 22.8509L37.9465 35.0108L41.1073 22.0203C41.2684 21.3578 41.5667 20.7317 41.985 20.1777C42.4033 19.6236 42.9335 19.1526 43.5453 18.7914C44.157 18.4302 44.8384 18.1859 45.5504 18.0725C46.2625 17.9591 46.9913 17.9789 47.6953 18.1305C48.3992 18.2822 49.0646 18.5629 49.6533 18.9566C50.242 19.3503 50.7425 19.8492 51.1263 20.4249C51.5101 21.0006 51.7696 21.6419 51.8901 22.312C52.0106 22.9821 51.9897 23.668 51.8285 24.3305L49.815 33.1436C50.6793 32.6379 51.677 32.3704 52.6947 32.3715C53.8174 32.3745 54.9123 32.7002 55.8329 33.3049C56.7535 33.9096 57.4559 34.7645 57.8461 35.7552C58.6381 35.0903 59.6178 34.6555 60.6668 34.5034C61.7157 34.3512 62.7891 34.4882 63.7571 34.8978C64.7251 35.3074 65.5463 35.9721 66.1215 36.8116C66.6967 37.651 67.0013 38.6292 66.9984 39.628V54.1781C67.0311 56.5073 66.5719 58.8195 65.6474 60.9803C64.7229 63.1412 63.3515 65.1077 61.6128 66.7657C59.8742 68.4237 57.8029 69.7402 55.5193 70.6388C53.2356 71.5373 50.785 72 48.3098 72C45.8345 72 43.384 71.5373 41.1003 70.6388C38.8166 69.7402 36.7453 68.4237 35.0067 66.7657C33.268 65.1077 31.8967 63.1412 30.9722 60.9803C30.0477 58.8195 29.5884 56.5073 29.6212 54.1781V44.9867L23.2342 25.8685C22.8145 24.5551 22.9629 23.1387 23.6473 21.9277C24.3317 20.7168 25.4966 19.8092 26.8886 19.4025ZM47.2001 20.1408C46.7795 20.0503 46.344 20.039 45.9187 20.1076C45.4935 20.1763 45.0869 20.3234 44.7224 20.5407C44.3528 20.7567 44.0322 21.0394 43.7792 21.3726C43.5262 21.7057 43.3458 22.0827 43.2482 22.4817L39.3258 38.6006H46.3012L49.681 23.8814C49.876 23.0759 49.7246 22.2306 49.2598 21.5298C48.795 20.829 48.0546 20.3297 47.2001 20.1408ZM55.9764 37.5609C55.9903 37.1453 55.9154 36.7313 55.756 36.3434C55.5966 35.9556 55.356 35.6019 55.0485 35.3033C54.741 35.0047 54.3729 34.7672 53.966 34.6051C53.5592 34.4429 53.1218 34.3594 52.68 34.3594C52.2381 34.3594 51.8008 34.4429 51.3939 34.6051C50.987 34.7672 50.6189 35.0047 50.3115 35.3033C50.004 35.6019 49.7634 35.9556 49.604 36.3434C49.4446 36.7313 49.3696 37.1453 49.3835 37.5609V38.6006H51.5801C52.456 38.6014 53.2956 38.9294 53.9147 39.5126C54.5337 40.0957 54.8814 40.8863 54.8814 41.7106C54.8823 42.6778 54.6778 43.6353 54.2798 44.527C53.8818 45.4188 53.2984 46.2266 52.5639 46.9031H52.6849C53.5611 46.8998 54.4001 46.5696 55.0178 45.9848C55.6355 45.4 55.9814 44.6085 55.9797 43.7839V37.5609H55.9764ZM64.7724 39.6219C64.7724 38.7987 64.4249 38.0092 63.8064 37.4272C63.1879 36.8451 62.349 36.5181 61.4743 36.5181C60.5996 36.5181 59.7607 36.8451 59.1422 37.4272C58.5237 38.0092 58.1762 38.7987 58.1762 39.6219V45.8787C58.1762 46.7019 58.5237 47.4914 59.1422 48.0735C59.7607 48.6555 60.5996 48.9825 61.4743 48.9825C62.349 48.9825 63.1879 48.6555 63.8064 48.0735C64.4249 47.4914 64.7724 46.7019 64.7724 45.8787V39.6219ZM48.282 69.7495C52.6623 69.7372 56.8585 68.0903 59.9501 65.1699C63.0416 62.2495 64.7759 58.2943 64.7724 54.172V50.0161C64.0886 50.4998 63.2941 50.8265 62.4524 50.9701C61.6106 51.1136 60.7449 51.0701 59.9241 50.8431C59.1034 50.616 58.3504 50.2116 57.7252 49.6621C57.0999 49.1126 56.6197 48.4333 56.3229 47.6783C55.4979 48.3705 54.4693 48.811 53.3728 48.9417C52.2763 49.0724 51.1634 48.8871 50.1811 48.4104C49.2343 48.7893 48.2158 48.9839 47.187 48.9825H46.4287C48.0225 50.0368 49.3233 51.4366 50.2211 53.0637C51.1189 54.6909 51.5872 56.4975 51.5866 58.3309V60.4073C51.5948 60.5479 51.5724 60.6887 51.5208 60.821C51.4692 60.9532 51.3895 61.0742 51.2865 61.1765C51.1836 61.2788 51.0596 61.3603 50.9221 61.416C50.7845 61.4717 50.6364 61.5004 50.4867 61.5004C50.337 61.5004 50.1889 61.4717 50.0513 61.416C49.9138 61.3603 49.7898 61.2788 49.6869 61.1765C49.5839 61.0742 49.5042 60.9532 49.4526 60.821C49.401 60.6887 49.3786 60.5479 49.3868 60.4073V58.3309C49.3894 55.8572 48.3491 53.4836 46.4941 51.7309C44.6391 49.9783 42.1211 48.9899 39.4925 48.9825C39.3431 48.9902 39.1935 48.9691 39.053 48.9206C38.9124 48.872 38.7839 48.797 38.6752 48.7001C38.5665 48.6033 38.4799 48.4866 38.4207 48.3571C38.3615 48.2277 38.331 48.0883 38.331 47.9474C38.331 47.8065 38.3615 47.6671 38.4207 47.5377C38.4799 47.4083 38.5665 47.2916 38.6752 47.1947C38.7839 47.0978 38.9124 47.0228 39.053 46.9743C39.1935 46.9257 39.3431 46.9046 39.4925 46.9123H47.2001C48.0467 46.9138 48.8819 46.7284 49.6385 46.3709C49.7015 46.3331 49.7683 46.3011 49.8379 46.2756C50.7037 45.8255 51.4255 45.1652 51.928 44.3634C52.4304 43.5616 52.6952 42.6476 52.6947 41.7167C52.6951 41.5806 52.6671 41.4457 52.6121 41.3198C52.5571 41.1939 52.4763 41.0794 52.3744 40.9828C52.2724 40.8863 52.1512 40.8096 52.0177 40.7571C51.8842 40.7046 51.7411 40.6774 51.5964 40.677H35.106C34.672 40.6778 34.2425 40.7591 33.8419 40.9161C33.4413 41.0731 33.0774 41.3029 32.7712 41.5922C32.4649 41.8816 32.2222 42.2249 32.057 42.6025C31.8917 42.9801 31.807 43.3847 31.8079 43.7931V54.1781C31.8061 58.2972 33.5394 62.249 36.6279 65.1677C39.7164 68.0864 43.9084 69.734 48.2853 69.7495H48.282ZM25.3 25.2595L30.5299 40.8923C31.0332 40.1853 31.7142 39.6061 32.5125 39.2063C33.3108 38.8065 34.2017 38.5985 35.106 38.6006H36.8874L31.6576 23.4692C31.4042 22.682 30.8305 22.021 30.0614 21.6303C29.2924 21.2397 28.3904 21.1509 27.5521 21.3835C26.7081 21.6176 25.9971 22.157 25.5749 22.8835C25.1528 23.61 25.0539 24.4644 25.3 25.2595Z" fill="white"/>
</svg>
