<svg width="90" height="90" viewBox="0 0 90 90" fill="none" xmlns="http://www.w3.org/2000/svg">
<circle cx="45" cy="45" r="44" stroke="white" stroke-width="2"/>
<path d="M33.446 20.075C34.7712 20.0808 36.0482 20.5516 37.0357 21.3985C37.4228 20.4008 38.119 19.5406 39.0309 18.9331C39.9428 18.3256 41.0268 18 42.1374 18C43.2479 18 44.3319 18.3256 45.2438 18.9331C46.1558 19.5406 46.8519 20.4008 47.239 21.3985C48.0226 20.7285 48.9919 20.2905 50.0297 20.1372C51.0675 19.9839 52.1295 20.1219 53.0872 20.5346C54.0449 20.9473 54.8575 21.617 55.4265 22.4628C55.9956 23.3086 56.297 24.2942 56.2941 25.3006V29.4754C57.1018 28.8927 58.063 28.5374 59.0698 28.4494C60.0766 28.3614 61.0891 28.5441 61.9934 28.9772C62.8978 29.4102 63.6583 30.0764 64.1894 30.9008C64.7205 31.7252 65.0012 32.6752 65 33.6441V54.5029C64.9357 59.1646 62.9583 63.6144 59.4958 66.8892C56.0334 70.1639 51.3646 72 46.5 72C41.6354 72 36.9666 70.1639 33.5041 66.8892C30.0417 63.6144 28.0643 59.1646 28 54.5029V25.3006C27.9996 24.6148 28.1401 23.9356 28.4136 23.3018C28.687 22.668 29.0881 22.0921 29.5938 21.6068C30.0995 21.1216 30.7 20.7366 31.3609 20.4738C32.0219 20.2109 32.7304 20.0754 33.446 20.075ZM33.446 22.1609C32.58 22.1617 31.7497 22.4918 31.1373 23.0787C30.525 23.6656 30.1806 24.4613 30.1797 25.2913V39.911C31.1202 39.23 32.2672 38.8621 33.446 38.8634H36.7124V25.3006C36.7115 24.4706 36.3671 23.6749 35.7547 23.088C35.1423 22.5011 34.312 22.171 33.446 22.1702V22.1609ZM45.4118 23.2054C45.4255 22.7862 45.3513 22.3687 45.1934 21.9776C45.0355 21.5864 44.7973 21.2297 44.4928 20.9285C44.1882 20.6273 43.8237 20.3879 43.4207 20.2243C43.0178 20.0608 42.5846 19.9765 42.1471 19.9765C41.7095 19.9765 41.2763 20.0608 40.8734 20.2243C40.4704 20.3879 40.1059 20.6273 39.8014 20.9285C39.4969 21.2297 39.2586 21.5864 39.1007 21.9776C38.9428 22.3687 38.8686 22.7862 38.8823 23.2054V38.8573H45.415V23.2147L45.4118 23.2054ZM30.1797 54.5029C30.2401 58.6138 31.9864 62.5368 35.0411 65.4234C38.0958 68.31 42.2133 69.9284 46.5032 69.9284C50.7931 69.9284 54.9106 68.31 57.9653 65.4234C61.02 62.5368 62.7664 58.6138 62.8268 54.5029V33.6441C62.8405 33.2249 62.7663 32.8074 62.6084 32.4163C62.4505 32.0251 62.2123 31.6684 61.9077 31.3672C61.6032 31.066 61.2387 30.8266 60.8357 30.663C60.4328 30.4995 59.9996 30.4152 59.5621 30.4152C59.1245 30.4152 58.6913 30.4995 58.2884 30.663C57.8854 30.8266 57.5209 31.066 57.2164 31.3672C56.9118 31.6684 56.6736 32.0251 56.5157 32.4163C56.3578 32.8074 56.2836 33.2249 56.2973 33.6441V45.1118C56.3054 45.2535 56.2832 45.3954 56.2322 45.5286C56.1812 45.6619 56.1023 45.7838 56.0005 45.8868C55.8986 45.9899 55.7759 46.072 55.6399 46.1281C55.5038 46.1842 55.3572 46.2132 55.2091 46.2132C55.061 46.2132 54.9144 46.1842 54.7784 46.1281C54.6423 46.072 54.5196 45.9899 54.4178 45.8868C54.3159 45.7838 54.2371 45.6619 54.186 45.5286C54.135 45.3954 54.1128 45.2535 54.1209 45.1118V25.3006C54.1346 24.8814 54.0604 24.4639 53.9025 24.0727C53.7446 23.6816 53.5064 23.3249 53.2019 23.0237C52.8973 22.7225 52.5328 22.4831 52.1298 22.3195C51.7269 22.156 51.2938 22.0717 50.8562 22.0717C50.4186 22.0717 49.9855 22.156 49.5825 22.3195C49.1796 22.4831 48.815 22.7225 48.5105 23.0237C48.206 23.3249 47.9677 23.6816 47.8098 24.0727C47.652 24.4639 47.5777 24.8814 47.5915 25.3006V38.8573H49.7679C50.634 38.8581 51.4643 39.1881 52.0766 39.775C52.689 40.3619 53.0334 41.1576 53.0343 41.9876C53.0308 43.923 52.2269 45.7781 50.7986 47.1463C49.3704 48.5145 47.4344 49.2842 45.415 49.2866H44.6744C46.2477 50.3445 47.5319 51.7499 48.4185 53.384C49.3051 55.0181 49.768 56.8328 49.7679 58.6747V60.7605C49.7528 61.0273 49.6315 61.2784 49.4291 61.4621C49.2267 61.6458 48.9585 61.7481 48.6797 61.7481C48.4009 61.7481 48.1328 61.6458 47.9303 61.4621C47.7279 61.2784 47.6067 61.0273 47.5915 60.7605V58.6747C47.5889 56.1861 46.5565 53.8001 44.7207 52.0401C42.8849 50.2802 40.3956 49.2899 37.799 49.2866C37.6511 49.2944 37.5031 49.2731 37.364 49.2242C37.225 49.1753 37.0978 49.0997 36.9903 49.0021C36.8827 48.9045 36.797 48.7869 36.7385 48.6565C36.68 48.5261 36.6498 48.3857 36.6498 48.2437C36.6498 48.1018 36.68 47.9613 36.7385 47.8309C36.797 47.7005 36.8827 47.5829 36.9903 47.4853C37.0978 47.3877 37.225 47.3121 37.364 47.2632C37.5031 47.2143 37.6511 47.193 37.799 47.2008H45.415C46.8574 47.1991 48.2403 46.6495 49.2606 45.6722C50.2809 44.695 50.8552 43.37 50.8578 41.9876C50.8578 41.8505 50.8296 41.7146 50.7748 41.5879C50.7201 41.4612 50.6398 41.346 50.5386 41.2491C50.4374 41.1521 50.3172 41.0751 50.185 41.0226C50.0528 40.9701 49.9111 40.9431 49.7679 40.9431H33.446C32.58 40.9439 31.7497 41.274 31.1373 41.8609C30.525 42.4478 30.1806 43.2435 30.1797 44.0735V54.5029Z" fill="white"/>
</svg>
