<svg width="92" height="90" viewBox="0 0 92 90" fill="none" xmlns="http://www.w3.org/2000/svg">
<path d="M65.8571 48.6716C65.1659 48.9339 64.307 49.261 64.2265 49.4536C64.2265 49.4552 64.1677 49.6063 64.4211 50.1741C64.7583 50.9279 64.6291 51.5073 64.463 51.8592C64.2097 52.3938 63.7248 52.7392 63.2165 52.9766C63.4732 53.2372 63.6779 53.546 63.7618 53.898C63.8758 54.3861 63.7399 54.8775 63.3793 55.2843C63.2115 55.4719 63.0488 55.6412 62.8944 55.8006C62.2385 56.478 61.9935 56.7303 62.1462 57.6302C62.3928 59.0879 62.5656 60.4459 62.5975 60.7149C62.6763 61.0668 62.9565 62.6142 62.1143 63.8261C61.7637 64.3308 61.0742 64.9667 59.774 65.1261C58.9 65.234 57.7659 65.1377 56.563 65.0364C54.6119 64.8704 52.1844 64.6646 51.312 65.4864C51.1426 65.6457 50.9195 65.9396 50.9446 66.6352C51.0251 68.8118 51.354 70.0686 51.9244 70.3708C52.6826 70.7742 53.404 71.1195 54.1674 71.4848C54.7663 71.772 55.3836 72.0675 56.0564 72.4095C56.4741 72.622 56.6385 73.1284 56.4254 73.5418C56.2745 73.8323 55.9775 74 55.6688 74C55.538 74 55.4054 73.9701 55.2813 73.907C54.627 73.575 54.018 73.2828 53.4292 73.0005C52.6491 72.627 51.9109 72.2734 51.1224 71.8533C49.4045 70.9402 49.2989 68.073 49.2485 66.6967C49.2116 65.679 49.5119 64.8621 50.1427 64.2678C51.5687 62.923 54.3016 63.1554 56.7123 63.3596C57.8229 63.4543 58.8714 63.5422 59.566 63.4559C60.1112 63.3895 60.4853 63.1986 60.7118 62.8765C61.1144 62.3021 61.0088 61.369 60.9349 61.0569C60.9282 61.0253 60.9215 60.9905 60.9165 60.9589C60.9148 60.944 60.7336 59.4598 60.4702 57.9074C60.1766 56.1758 60.9349 55.3922 61.6681 54.6351C61.7956 54.504 61.9281 54.3662 62.064 54.2151C61.9952 54.1304 61.8677 54.0242 61.71 53.9163C59.9619 53.7801 57.9034 53.3916 56.7878 52.3689C56.5462 52.1481 56.5328 51.7762 56.7559 51.5372C56.9791 51.2981 57.3549 51.2848 57.5964 51.5056C58.3061 52.1548 59.8478 52.5947 61.8576 52.7475C61.8979 52.7143 61.9382 52.6777 61.9767 52.6362C62.2485 52.3457 62.4716 52.0203 62.7015 51.6982C62.8038 51.5538 62.8491 51.396 62.8491 51.24C62.8843 51.2084 62.9112 51.1752 62.9263 51.142C62.9498 51.0922 62.928 50.9843 62.8692 50.8515C62.6126 50.2771 62.3559 49.525 62.6595 48.8044C63.0202 47.9444 63.9077 47.6074 65.2515 47.0977L65.5753 46.9749C65.9712 46.8238 66.2346 46.6312 66.2816 46.4619C66.3352 46.2693 66.1608 45.987 66.1339 45.9522C66.0987 45.9073 66.0668 45.8592 66.0417 45.8077C65.9511 45.6301 63.8305 41.4131 63.2719 39.2714C62.9062 37.8636 63.3792 36.8392 63.797 35.9327C64.109 35.257 64.3774 34.6743 64.3187 33.9438C64.2248 32.7667 63.6057 30.2415 63.1175 28.7273C59.9636 30.9305 54.2965 31.4235 49.8642 31.4235C48.1262 31.4235 46.9116 31.3405 46.7052 31.3206C46.6717 31.3173 46.6331 31.314 46.5912 31.3106C46.5844 31.3106 46.5761 31.309 46.5677 31.309C46.5358 31.3073 46.5006 31.3057 46.4653 31.304C46.4402 31.3023 46.4116 31.3023 46.3831 31.3007C46.3697 31.3007 46.3546 31.299 46.3395 31.299C46.1583 31.2924 45.9134 31.2874 45.5762 31.2874C45.551 31.2874 45.5275 31.2874 45.5024 31.2874C45.4772 31.2874 45.452 31.2874 45.4235 31.2874C45.3312 31.2874 45.239 31.2874 45.145 31.2874C45.1266 31.2874 45.1098 31.2874 45.0913 31.2874C45.0175 31.2874 44.9437 31.2891 44.8699 31.2891C44.8447 31.2891 44.8196 31.2891 44.7944 31.2891C44.7239 31.2891 44.6518 31.2907 44.583 31.2907C44.5646 31.2907 44.5478 31.2907 44.5293 31.2907C44.063 31.2974 43.6318 31.3057 43.35 31.3123C43.3131 31.3804 43.2661 31.4783 43.2141 31.6161C43.1168 31.8701 42.9977 32.2603 42.8769 32.8497C42.8601 32.9343 42.8416 33.024 42.8249 33.1153C42.8081 33.2066 42.7913 33.3029 42.7745 33.4025C42.6655 34.0517 42.5715 34.8154 42.4977 35.6721C42.3484 37.397 42.0867 38.8663 41.7344 40.0335C41.7042 40.1314 41.6757 40.2261 41.6438 40.319C41.4593 40.8769 41.2529 41.3583 41.0264 41.7568C40.9895 41.8232 40.9509 41.8879 40.9124 41.9494C40.8352 42.0722 40.7547 42.1868 40.6725 42.293C40.5903 42.3993 40.5064 42.4939 40.4208 42.5786C40.2916 42.7064 40.1591 42.8127 40.0215 42.8974C39.9762 42.9256 39.9293 42.9505 39.8823 42.9737C39.7414 43.0418 39.5971 43.0883 39.4495 43.1099C39.4058 43.1165 39.3605 43.1198 39.3169 43.1231C39.3152 43.1231 39.3119 43.1248 39.3102 43.1248C39.3069 43.1248 39.3052 43.1248 39.3018 43.1248H39.3001H39.2985C39.2968 43.1248 39.2968 43.1248 39.2968 43.1248C39.2867 43.1248 39.275 43.1248 39.2649 43.1248C39.2616 43.1248 39.2582 43.1248 39.2548 43.1248C39.2532 43.1248 39.2532 43.1248 39.2515 43.1248H39.2498C39.2028 43.1248 39.1492 43.1215 39.0904 43.1148C39.0854 43.1148 39.0804 43.1132 39.0753 43.1132C39.0317 43.1065 38.9864 43.0999 38.9411 43.0883C38.8438 43.065 38.7566 43.0318 38.6727 42.992C38.6559 42.9837 38.6375 42.977 38.6207 42.9687C38.619 42.9671 38.6157 42.9654 38.614 42.9654C38.6106 42.9638 38.609 42.9621 38.6056 42.9604C38.6022 42.9588 38.6006 42.9571 38.5972 42.9555C38.5066 42.9057 38.4227 42.8426 38.3389 42.7662C38.3338 42.7612 38.3271 42.7546 38.3221 42.7496C38.2852 42.7147 38.2483 42.6799 38.2114 42.64C38.01 42.4225 37.8071 42.127 37.5588 41.7568C37.547 41.7385 37.5353 41.7236 37.5235 41.7053C37.5235 41.7053 37.5235 41.7053 37.5235 41.7037C36.8391 40.6909 36.2267 39.9156 35.6094 39.4474C35.195 39.1403 34.7437 38.941 34.2589 38.941C33.8579 38.941 33.4267 39.0772 32.9755 39.3445C32.9755 39.3445 32.9738 39.3445 32.9738 39.3461C32.6299 39.5503 32.3765 39.7927 32.1987 40.0849C32.0393 40.3472 31.89 40.7557 31.8984 41.3616C31.8984 41.4164 31.9018 41.4712 31.9051 41.5293C31.9118 41.6323 31.9219 41.7402 31.937 41.8547C32.0008 42.3279 32.1501 42.894 32.4286 43.5697C32.4638 43.6544 32.5007 43.7407 32.5393 43.8287C32.8496 44.5327 33.2942 45.3462 33.9166 46.2875C33.9938 46.4037 34.0475 46.4868 34.0743 46.5349L34.076 46.5366C34.0777 46.5399 34.081 46.5449 34.0827 46.5482C34.0928 46.5631 34.0944 46.5664 34.0995 46.5781C34.1012 46.5814 34.1028 46.5864 34.1062 46.5897C34.1079 46.5914 34.1079 46.593 34.1095 46.5963C34.1129 46.603 34.1179 46.6113 34.1213 46.6179C34.123 46.6212 34.1246 46.6246 34.1263 46.6279C34.1297 46.6345 34.133 46.6412 34.1347 46.6478C34.1364 46.6511 34.1381 46.6561 34.1397 46.6594C34.1431 46.6661 34.1448 46.671 34.1481 46.6777C34.1498 46.681 34.1515 46.686 34.1532 46.6893C34.1548 46.6959 34.1582 46.7009 34.1599 46.7076C34.1615 46.7125 34.1632 46.7159 34.1649 46.7208C34.1666 46.7275 34.1683 46.7325 34.1716 46.7391C34.1733 46.7441 34.175 46.7491 34.1766 46.7541C34.1783 46.7607 34.18 46.7657 34.1817 46.7723C34.1834 46.7773 34.185 46.7823 34.185 46.7889C34.1867 46.7956 34.1884 46.8022 34.1901 46.8072C34.1917 46.8122 34.1917 46.8188 34.1934 46.8238C34.1951 46.8304 34.1951 46.8371 34.1968 46.8437C34.1985 46.8503 34.1985 46.857 34.2001 46.8636C34.2018 46.8703 34.2018 46.8769 34.2035 46.8852C34.2035 46.8919 34.2052 46.8985 34.2052 46.9051C34.2052 46.9118 34.2068 46.9201 34.2068 46.9284C34.2068 46.935 34.2085 46.9433 34.2085 46.95C34.2085 46.9583 34.2085 46.9666 34.2102 46.9749C34.2102 46.9832 34.2102 46.9898 34.2102 46.9981C34.2102 47.0064 34.2102 47.0164 34.2102 47.0247C34.2102 47.033 34.2102 47.0413 34.2102 47.0512C34.2102 47.0612 34.2102 47.0695 34.2085 47.0795C34.2085 47.0894 34.2085 47.0977 34.2068 47.1077C34.2068 47.1176 34.2052 47.1276 34.2052 47.1392C34.2052 47.1492 34.2035 47.1591 34.2035 47.1691C34.2018 47.1807 34.2018 47.1924 34.2001 47.204C34.1985 47.2139 34.1985 47.2239 34.1968 47.2355C34.1951 47.2488 34.1934 47.2621 34.1917 47.2754C34.1901 47.2853 34.1901 47.2969 34.1884 47.3069C34.1867 47.3218 34.185 47.3368 34.1817 47.3517C34.18 47.3617 34.1783 47.3733 34.1766 47.3833C34.175 47.3999 34.1716 47.4165 34.1699 47.4347C34.1683 47.4464 34.1666 47.4563 34.1649 47.4679C34.1615 47.4862 34.1582 47.5061 34.1548 47.5261C34.1532 47.536 34.1515 47.5476 34.1498 47.5576C34.1465 47.5792 34.1431 47.6008 34.1381 47.624C34.1364 47.634 34.1347 47.6456 34.133 47.6556C34.128 47.6805 34.1246 47.7054 34.1196 47.7303C34.1179 47.7402 34.1163 47.7502 34.1146 47.7602C34.1095 47.7867 34.1045 47.8149 34.0995 47.8415C34.0978 47.8515 34.0961 47.8631 34.0928 47.873C34.0861 47.9029 34.081 47.9345 34.0743 47.966C34.0726 47.976 34.071 47.9843 34.0693 47.9942C34.0626 48.0291 34.0542 48.0656 34.0458 48.1038C34.0441 48.1105 34.0424 48.1171 34.0424 48.1237C34.034 48.1603 34.0257 48.2001 34.0173 48.24C34.0156 48.2483 34.0139 48.2566 34.0122 48.2649C34.0038 48.3064 33.9938 48.3512 33.9837 48.3944C33.982 48.3993 33.982 48.406 33.9804 48.411C33.9703 48.4525 33.9602 48.4973 33.9502 48.5421C33.9485 48.5521 33.9451 48.5637 33.9435 48.5737C33.9334 48.6168 33.9233 48.66 33.9133 48.7048C33.9099 48.7181 33.9082 48.7297 33.9049 48.743C33.8965 48.7829 33.8864 48.8227 33.8764 48.8642C33.8713 48.8858 33.8663 48.9057 33.8613 48.9289C33.8545 48.9588 33.8462 48.992 33.8394 49.0236C33.8327 49.0551 33.8243 49.0867 33.816 49.1199C33.8109 49.1431 33.8042 49.168 33.7992 49.1929C33.7891 49.2328 33.7807 49.271 33.7707 49.3125V49.3141C33.7707 49.3158 33.7707 49.3158 33.7707 49.3174V49.3191C33.769 49.3241 33.769 49.3291 33.7673 49.334L33.7119 49.5598C33.7119 49.5615 33.7119 49.5632 33.7103 49.5648L33.6465 49.8271C33.613 49.9616 33.5794 50.1027 33.5442 50.2438C33.5173 50.3518 33.4905 50.4613 33.462 50.5742C33.3412 51.0574 33.2103 51.572 33.0728 52.1016C33.0392 52.2328 33.0057 52.364 32.9704 52.4968C32.9302 52.6528 32.8882 52.8106 32.848 52.9699C32.1048 55.8139 31.2676 58.8687 30.9606 59.986L30.7962 60.5837V65.3685C30.7962 65.5777 30.8012 65.9164 30.808 66.3115C30.8298 67.7094 30.8449 68.9114 30.7929 69.4643C30.7476 69.9408 30.5731 70.3774 30.2745 70.7609C29.7913 71.3818 29.0917 71.7404 28.4744 72.0592C28.3653 72.1156 28.2579 72.1704 28.1556 72.2252C28.1053 72.2518 27.9677 72.3199 27.7781 72.4112C26.7061 72.9308 26.0452 73.2745 25.812 73.4339C25.6576 73.6381 25.4093 73.7692 25.1325 73.7692C24.6628 73.7692 24.282 73.3924 24.282 72.9275C24.282 72.2817 24.698 72.0293 27.0316 70.8987C27.1876 70.8223 27.3017 70.7675 27.3453 70.7443C27.456 70.6845 27.5735 70.6248 27.6909 70.5633C28.1741 70.3143 28.674 70.057 28.9273 69.7316C29.0297 69.6004 29.085 69.4643 29.1001 69.3049C29.1488 68.7985 29.1236 67.3176 29.1085 66.3364C29.1018 65.9296 29.0968 65.581 29.0968 65.3668V60.5953C28.7847 60.0591 27.3202 58.3026 26.6759 57.5289C26.2247 56.9877 25.9629 56.6722 25.8472 56.5162C21.5407 50.6689 14.7597 38.9792 17.7291 26.3748C19.2507 19.9182 25.1174 13.6923 31.682 11.5689C34.8544 10.5429 38.557 10 42.3887 10C48.0289 10 53.3168 11.1705 57.281 13.2939C61.6882 15.6564 66.4627 20.2685 65.4075 25.4916C65.2632 26.2071 64.9512 26.8679 64.4831 27.4656C65.0821 29.0278 65.9041 32.34 66.0215 33.8076C66.1155 34.9748 65.7095 35.853 65.3505 36.63C64.9931 37.4053 64.7096 38.018 64.926 38.8481C65.4058 40.6909 67.2781 44.4712 67.5398 44.9942C67.721 45.2532 68.1739 46.0202 67.929 46.9035C67.7294 47.6273 67.1455 48.1785 66.1943 48.5421L65.8571 48.6716ZM56.459 14.7781C52.7397 12.7842 47.7387 11.6868 42.3769 11.6868C38.7214 11.6868 35.2017 12.1998 32.1987 13.1727C26.1626 15.1251 20.769 20.8396 19.3749 26.76C16.5598 38.7103 23.0757 49.9135 27.2111 55.5267C27.3017 55.6512 27.6305 56.0447 27.9778 56.4597C28.6857 57.3081 29.2142 57.9539 29.6101 58.4537C29.8366 57.6269 30.1335 56.5311 30.4523 55.3441C30.454 55.3374 30.4557 55.3324 30.4573 55.3258C30.5597 54.9456 30.6637 54.5538 30.7677 54.1603C30.7727 54.1437 30.7761 54.1271 30.7811 54.1105C30.7996 54.0375 30.8197 53.9661 30.8382 53.893C30.8499 53.8465 30.8633 53.7984 30.8751 53.7519C30.8918 53.6888 30.9086 53.6257 30.9254 53.5626C30.9388 53.5095 30.9539 53.4564 30.9673 53.4033C30.9824 53.3451 30.9975 53.287 31.0126 53.2289C31.0328 53.1542 31.0529 53.0778 31.0713 53.0031C31.0814 52.9666 31.0915 52.9284 31.0999 52.8919C31.1284 52.784 31.1569 52.6761 31.1837 52.5682C31.1972 52.5184 31.2089 52.4702 31.2223 52.4204C31.2391 52.354 31.2576 52.2859 31.2743 52.2195C31.2861 52.1714 31.2995 52.1232 31.3112 52.0751C31.328 52.0087 31.3448 51.9439 31.3616 51.8792C31.3733 51.8327 31.3851 51.7862 31.3968 51.7414C31.4153 51.67 31.4337 51.5986 31.4522 51.5289C31.4622 51.4874 31.474 51.4475 31.484 51.406C31.5109 51.3031 31.5377 51.2001 31.5629 51.0989C31.5646 51.0939 31.5662 51.0889 31.5662 51.0839C31.5948 50.9743 31.6216 50.8648 31.6501 50.7569C31.6568 50.7303 31.6636 50.7054 31.6703 50.6788C31.6904 50.5975 31.7105 50.5178 31.7307 50.4364C31.739 50.4032 31.7474 50.3717 31.7558 50.3401C31.7743 50.2687 31.7911 50.1974 31.8095 50.1276C31.8179 50.0928 31.8263 50.0579 31.8363 50.023C31.8548 49.9516 31.8716 49.8819 31.8884 49.8122C31.8951 49.7823 31.9035 49.7524 31.9102 49.7242C31.9336 49.6262 31.9571 49.5299 31.9806 49.4353V49.4337L31.9823 49.427L32.0964 48.9522C32.0981 48.9455 32.0997 48.9406 32.1014 48.9339C32.1081 48.9024 32.1165 48.8725 32.1232 48.8426C32.1937 48.5454 32.2507 48.2947 32.2977 48.0872C32.2994 48.0839 32.2994 48.0789 32.3011 48.0756C32.3111 48.0291 32.3212 47.9843 32.3312 47.9411C32.3329 47.9361 32.3329 47.9312 32.3346 47.9262C32.3447 47.883 32.3531 47.8415 32.3614 47.8017C32.3614 47.8 32.3631 47.7983 32.3631 47.795C32.4252 47.5012 32.4587 47.3185 32.4755 47.2056C32.1954 46.7823 31.942 46.3689 31.7139 45.9688C31.7105 45.9621 31.7072 45.9555 31.7021 45.9505C31.6619 45.8791 31.6233 45.8094 31.5847 45.7397C31.5679 45.7098 31.5495 45.6782 31.5344 45.6483C31.5008 45.5869 31.4689 45.5255 31.4371 45.4641C31.4169 45.4259 31.3951 45.3877 31.3767 45.3495C31.3498 45.2964 31.3247 45.2449 31.2978 45.1934C31.2743 45.147 31.2509 45.1005 31.2274 45.0556C31.2072 45.0141 31.1888 44.9743 31.1686 44.9328C31.1418 44.8763 31.115 44.8216 31.0881 44.7668C31.073 44.7336 31.0579 44.702 31.0445 44.6688C31.016 44.6057 30.9875 44.5426 30.9589 44.4812C30.9472 44.453 30.9355 44.4264 30.9237 44.3982C30.8952 44.3318 30.8667 44.2654 30.8398 44.2006C30.8298 44.1741 30.8197 44.1492 30.8096 44.1226C30.7828 44.0562 30.7559 43.9898 30.7308 43.925C30.7207 43.9001 30.7123 43.8752 30.7039 43.8503C30.6788 43.7839 30.6553 43.7192 30.6318 43.6544C30.6234 43.6295 30.615 43.6063 30.6083 43.583C30.5865 43.5183 30.563 43.4535 30.5429 43.3888C30.5345 43.3639 30.5278 43.3406 30.5211 43.3174C30.5009 43.2543 30.4808 43.1896 30.464 43.1281C30.4573 43.1049 30.4523 43.0816 30.4456 43.0584C30.4288 42.9953 30.4104 42.9322 30.3953 42.8708C30.3885 42.8459 30.3835 42.821 30.3785 42.7961C30.3634 42.7363 30.35 42.6765 30.3365 42.6184C30.3315 42.5952 30.3282 42.5719 30.3231 42.5487C30.3114 42.4889 30.298 42.4292 30.2879 42.3711C30.2829 42.3478 30.2812 42.3246 30.2761 42.3013C30.2661 42.2432 30.256 42.1851 30.2476 42.1287C30.2443 42.1038 30.2409 42.0805 30.2392 42.0556C30.2325 42.0008 30.2241 41.9444 30.2191 41.8896C30.2158 41.8664 30.2157 41.8414 30.2124 41.8182C30.2074 41.7634 30.2023 41.7103 30.199 41.6572C30.1973 41.6323 30.1973 41.6074 30.1956 41.5841C30.1923 41.5326 30.1906 41.4812 30.1889 41.4297C30.1889 41.4048 30.1889 41.3799 30.1889 41.355C30.1889 41.3052 30.1872 41.2554 30.1889 41.2072C30.1889 41.1823 30.1906 41.1574 30.1923 41.1309C30.1939 41.0827 30.1956 41.0346 30.199 40.9881C30.2007 40.9615 30.204 40.9366 30.2057 40.9101C30.209 40.8652 30.2141 40.8188 30.2191 40.7739C30.2225 40.7474 30.2275 40.7208 30.2309 40.6942C30.2376 40.6511 30.2426 40.6079 30.2493 40.5647C30.2543 40.5382 30.2594 40.5133 30.2644 40.4867C30.2728 40.4452 30.2795 40.402 30.2896 40.3605C30.2946 40.334 30.303 40.3091 30.308 40.2825C30.3181 40.2427 30.3282 40.2011 30.3382 40.1613C30.3449 40.1347 30.3533 40.1098 30.3617 40.0833C30.3735 40.0451 30.3852 40.0052 30.3969 39.9671C30.4053 39.9405 30.4154 39.9156 30.4255 39.8907C30.4389 39.8525 30.4523 39.8143 30.4674 39.7778C30.4775 39.7529 30.4892 39.728 30.4993 39.7031C30.5144 39.6666 30.5295 39.63 30.5462 39.5935C30.558 39.5686 30.5714 39.5437 30.5831 39.5188C30.5999 39.4839 30.6167 39.4491 30.6352 39.4142C30.6486 39.3893 30.6637 39.3644 30.6771 39.3395C30.6939 39.3079 30.7107 39.2764 30.7291 39.2465C30.7325 39.2415 30.7341 39.2382 30.7375 39.2332C30.7576 39.1984 30.7794 39.1652 30.7996 39.1303C30.8163 39.1037 30.8314 39.0755 30.8482 39.049C30.8767 39.0074 30.9069 38.9659 30.9355 38.9244C30.9522 38.9012 30.969 38.8763 30.9858 38.853C31.0193 38.8099 31.0562 38.7684 31.0915 38.7252C31.1082 38.7069 31.1234 38.687 31.1385 38.6671C31.1854 38.614 31.2358 38.5625 31.2878 38.5127C31.2945 38.5061 31.2995 38.4994 31.3062 38.4944C31.3649 38.438 31.4236 38.3832 31.4874 38.3317C31.5092 38.3135 31.5344 38.2952 31.5562 38.2769C31.5981 38.2437 31.6384 38.2105 31.682 38.179C31.7105 38.1574 31.7424 38.1391 31.7709 38.1176C31.8095 38.091 31.8481 38.0628 31.89 38.0379C31.9219 38.018 31.9555 37.9997 31.9873 37.9798C32.0259 37.9565 32.0645 37.9333 32.1031 37.9117C32.1954 37.8569 32.2893 37.8054 32.3833 37.7573C32.4655 37.7141 32.5477 37.6759 32.6299 37.6394C32.6349 37.6378 32.6399 37.6344 32.645 37.6328C34.1867 36.9371 35.4684 37.2974 36.4985 38.0279C36.5186 38.0412 36.5371 38.0561 36.5572 38.0694C36.5874 38.091 36.6176 38.1126 36.6478 38.1358C37.6561 38.8946 38.4026 39.9986 38.9344 40.7855C39.0384 40.9383 39.1525 41.1093 39.2548 41.2521C39.2699 41.272 39.285 41.2936 39.2985 41.3135C39.5333 41.023 39.9058 40.3456 40.2363 39.0705C40.2715 38.9361 40.3051 38.7949 40.3386 38.6472C40.5248 37.8353 40.6892 36.8143 40.8 35.5442C40.8016 35.516 40.805 35.4894 40.8083 35.4612C40.8721 34.7373 40.9509 34.0749 41.0399 33.4855C41.0583 33.3693 41.0751 33.2531 41.0952 33.1419C41.1137 33.0323 41.1321 32.926 41.1506 32.8248C41.169 32.7235 41.1892 32.6255 41.2076 32.5326C41.268 32.2387 41.3402 31.9183 41.4307 31.6028C41.4526 31.5232 41.4777 31.4451 41.5029 31.3671C41.5532 31.211 41.6069 31.0583 41.669 30.9122C41.731 30.7661 41.7948 30.625 41.8686 30.4955C41.9407 30.366 42.0196 30.2464 42.1052 30.1402C42.2343 29.9808 42.3786 29.853 42.5413 29.7683C42.6504 29.7118 42.7678 29.6753 42.8936 29.6604C42.9171 29.6571 42.9423 29.6554 42.9658 29.6554C43.2057 29.6488 44.9269 29.6006 46.0879 29.6222C46.1147 29.6222 46.1382 29.6239 46.1634 29.6239C46.1885 29.6239 46.2137 29.6255 46.2388 29.6255C46.2724 29.6272 46.3043 29.6272 46.3362 29.6288C46.3445 29.6288 46.3512 29.6288 46.358 29.6288C46.4251 29.6305 46.4855 29.6338 46.5442 29.6355C46.5593 29.6355 46.5744 29.6371 46.5895 29.6371C46.613 29.6388 46.6364 29.6388 46.6583 29.6405C46.6817 29.6421 46.7019 29.6438 46.7237 29.6454C46.7388 29.6471 46.7556 29.6471 46.7707 29.6488C46.8076 29.6521 46.8428 29.6537 46.8747 29.6571C47.0324 29.672 48.1883 29.7517 49.8659 29.7517C51.0637 29.7517 52.2028 29.7135 53.2765 29.6388C53.2933 29.6371 53.3101 29.6371 53.3269 29.6355C53.4325 29.6272 53.5366 29.6189 53.6423 29.6122C54.6002 29.5359 55.585 29.4246 56.5462 29.2669C56.5731 29.2619 56.6016 29.2586 56.6284 29.2536C56.7023 29.242 56.7761 29.2287 56.8499 29.2154C59.5308 28.7423 61.5422 27.967 62.6763 26.9393C62.6847 26.9326 62.6914 26.926 62.6998 26.9177C62.7602 26.8612 62.8189 26.8048 62.8743 26.7483L62.876 26.7467C63.3356 26.2702 63.6158 25.7572 63.7332 25.1745C64.6006 20.8413 60.3578 16.8684 56.459 14.7781Z" fill="white"/>
<g clip-path="url(#clip0_267_2613)">
<path d="M79.1156 42.9724L79.1495 42.9581L74.0646 40.893C73.8747 40.8044 73.7263 40.6461 73.6499 40.4511C73.5735 40.256 73.575 40.039 73.6542 39.845C73.7334 39.651 73.8841 39.495 74.0752 39.4091C74.2663 39.3232 74.4831 39.314 74.6807 39.3836L81.5889 42.1892C81.7151 42.2368 81.8275 42.315 81.9161 42.4168C82.0046 42.5185 82.0666 42.6406 82.0965 42.7722C82.1233 42.9281 82.1067 43.0883 82.0485 43.2354L79.2326 50.1612C79.1519 50.3617 78.995 50.5219 78.7962 50.6069C78.6473 50.6708 78.4826 50.6889 78.3233 50.6589C78.164 50.6289 78.0172 50.5522 77.9017 50.4384C77.7862 50.3247 77.7072 50.1792 77.6747 50.0203C77.6422 49.8615 77.6578 49.6966 77.7194 49.5467L79.7845 44.4618C75.6828 46.1894 72.4353 49.4755 70.7561 53.5972C69.0768 57.719 69.1035 62.3389 70.8301 66.4411C70.9143 66.6405 70.9159 66.8651 70.8344 67.0657C70.753 67.2662 70.5952 67.4262 70.3958 67.5104C70.1964 67.5947 69.9717 67.5962 69.7712 67.5148C69.5706 67.4333 69.4107 67.2755 69.3264 67.0761C67.4338 62.5811 67.4016 57.5188 69.2368 53C71.072 48.4812 74.6248 44.8749 79.1156 42.9724Z" fill="white"/>
</g>
<circle cx="45" cy="45" r="44" stroke="white" stroke-width="2"/>
<defs>
<clipPath id="clip0_267_2613">
<rect width="26.1166" height="26.1166" fill="white" transform="matrix(-0.921209 0.389068 0.389068 0.921209 81.6035 35.3125)"/>
</clipPath>
</defs>
</svg>
