<svg width="90" height="90" viewBox="0 0 90 90" fill="none" xmlns="http://www.w3.org/2000/svg">
<circle cx="45" cy="45" r="44" stroke="white" stroke-width="2"/>
<path d="M31.7382 21C32.6289 20.9997 33.5074 21.2125 34.3038 21.6214C35.1003 22.0304 35.7927 22.6241 36.326 23.3556C36.8596 22.6244 37.552 22.0307 38.3484 21.6218C39.1448 21.2129 40.0232 21 40.9139 21C41.8045 21 42.6829 21.2129 43.4793 21.6218C44.2757 22.0307 44.9682 22.6244 45.5017 23.3556C46.0353 22.6244 46.7277 22.0307 47.5241 21.6218C48.3205 21.2129 49.1989 21 50.0896 21C50.9802 21 51.8586 21.2129 52.655 21.6218C53.4514 22.0307 54.1438 22.6244 54.6774 23.3556C55.399 22.3683 56.4052 21.6388 57.5536 21.2704C58.702 20.9021 59.9343 20.9136 61.076 21.3033C62.2177 21.693 63.2108 22.4411 63.9148 23.4417C64.6188 24.4423 64.9978 25.6447 64.9983 26.8785V52.7411C65.0324 55.3888 64.5533 58.0171 63.5888 60.4735C62.6242 62.9298 61.1934 65.1652 59.3794 67.05C57.5655 68.9347 55.4044 70.4312 53.0218 71.4526C50.6392 72.474 48.0825 73 45.5 73C42.9175 73 40.3608 72.474 37.9782 71.4526C35.5956 70.4312 33.4346 68.9347 31.6206 67.05C29.8066 65.1652 28.3758 62.9298 27.4112 60.4735C26.4467 58.0171 25.9676 55.3888 26.0017 52.7411V26.8785C26.0044 25.3197 26.6098 23.8255 27.6851 22.7236C28.7604 21.6217 30.2179 21.0019 31.7382 21ZM31.7382 23.3521C30.826 23.353 29.9515 23.7247 29.3061 24.3858C28.6608 25.0468 28.2974 25.9432 28.2956 26.8785V36.2904C29.2896 35.5292 30.4977 35.1195 31.7382 35.1231H35.191V26.8785C35.1901 26.4145 35.1001 25.9552 34.9261 25.5269C34.7521 25.0985 34.4975 24.7095 34.1769 24.3821C33.8563 24.0546 33.4759 23.7951 33.0575 23.6184C32.639 23.4417 32.1907 23.3512 31.7382 23.3521ZM40.9139 23.3521C40.0017 23.353 39.1271 23.7247 38.4818 24.3858C37.8365 25.0468 37.4731 25.9432 37.4713 26.8785V35.1231H44.3496V26.8785C44.3479 25.9492 43.9892 25.0581 43.3512 24.398C42.7133 23.738 41.8474 23.3622 40.9411 23.3521H40.9139ZM50.0896 23.3521C49.1774 23.353 48.3028 23.7247 47.6575 24.3858C47.0121 25.0468 46.6488 25.9432 46.647 26.8785V35.1231H47.7956C48.7075 35.124 49.5817 35.4958 50.2265 36.157C50.8713 36.8181 51.2339 37.7145 51.2348 38.6495C51.2348 39.8579 50.9741 41.0514 50.4713 42.1444C51.3118 42.0492 52.0887 41.6405 52.6544 40.9961C53.22 40.3517 53.5349 39.5165 53.5389 38.6495V26.8785C53.538 25.9441 53.1759 25.0482 52.5318 24.3872C51.8878 23.7262 51.0144 23.354 50.1032 23.3521H50.0896ZM62.701 26.8785C62.6728 25.962 62.298 25.0927 61.6558 24.4546C61.0136 23.8165 60.1544 23.4597 59.2601 23.4597C58.3658 23.4597 57.5067 23.8165 56.8644 24.4546C56.2222 25.0927 55.8474 25.962 55.8192 26.8785V38.639C55.8047 39.1117 55.883 39.5825 56.0494 40.0235C56.2158 40.4646 56.4669 40.8669 56.7878 41.2065C57.1088 41.5461 57.493 41.8161 57.9177 42.0005C58.3424 42.1849 58.7989 42.2799 59.2601 42.2799C59.7213 42.2799 60.1778 42.1849 60.6025 42.0005C61.0272 41.8161 61.4114 41.5461 61.7324 41.2065C62.0533 40.8669 62.3044 40.4646 62.4708 40.0235C62.6372 39.5825 62.7155 39.1117 62.701 38.639V26.8785ZM28.2922 52.7411C28.2601 55.0786 28.6814 57.3993 29.5316 59.5684C30.3818 61.7376 31.644 63.7118 33.2447 65.3764C34.8455 67.041 36.7529 68.3628 38.8562 69.2651C40.9595 70.1673 43.2167 70.6319 45.4966 70.6319C47.7765 70.6319 50.0337 70.1673 52.137 69.2651C54.2403 68.3628 56.1477 67.041 57.7485 65.3764C59.3492 63.7118 60.6114 61.7376 61.4616 59.5684C62.3118 57.3993 62.7331 55.0786 62.701 52.7411V43.3397C62.0992 43.8044 61.414 44.1427 60.6844 44.3352C59.9549 44.5278 59.1954 44.5707 58.4497 44.4616C57.7039 44.3525 56.9865 44.0935 56.3386 43.6995C55.6906 43.3054 55.1249 42.7841 54.674 42.1654C54.0238 43.0592 53.1382 43.7442 52.1215 44.1398C51.1047 44.5354 49.9989 44.6252 48.9341 44.3987C47.5127 45.8909 45.5911 46.773 43.5589 46.8661C45.2194 48.0581 46.5752 49.6429 47.5115 51.4863C48.4478 53.3297 48.9369 55.3774 48.9375 57.4558V59.8079C48.946 59.9677 48.9226 60.1276 48.8688 60.2779C48.815 60.4282 48.7319 60.5656 48.6246 60.6818C48.5172 60.7981 48.3879 60.8906 48.2445 60.9539C48.1011 61.0172 47.9466 61.0498 47.7905 61.0498C47.6344 61.0498 47.4799 61.0172 47.3365 60.9539C47.1931 60.8906 47.0638 60.7981 46.9565 60.6818C46.8491 60.5656 46.766 60.4282 46.7122 60.2779C46.6584 60.1276 46.635 59.9677 46.6435 59.8079V57.4558C46.6399 54.6502 45.5514 51.9606 43.6166 49.9768C41.6819 47.9929 39.0588 46.8768 36.3226 46.8731C36.1668 46.8818 36.0108 46.8578 35.8642 46.8027C35.7177 46.7475 35.5836 46.6623 35.4703 46.5522C35.3569 46.4422 35.2667 46.3096 35.205 46.1625C35.1433 46.0155 35.1114 45.8571 35.1114 45.697C35.1114 45.537 35.1433 45.3786 35.205 45.2315C35.2667 45.0845 35.3569 44.9519 35.4703 44.8418C35.5836 44.7318 35.7177 44.6465 35.8642 44.5914C36.0108 44.5362 36.1668 44.5123 36.3226 44.521H43.2214C44.742 44.5191 46.1997 43.8987 47.2745 42.7959C48.3494 41.6931 48.9536 40.1981 48.9545 38.639C48.9536 38.3278 48.8327 38.0297 48.6181 37.8097C48.4035 37.5896 48.1127 37.4656 47.8093 37.4647H31.7382C30.826 37.4656 29.9515 37.8373 29.3061 38.4984C28.6608 39.1594 28.2974 40.0558 28.2956 40.9911L28.2922 52.7411Z" fill="white"/>
</svg>
