<svg width="90" height="90" viewBox="0 0 90 90" fill="none" xmlns="http://www.w3.org/2000/svg">
<circle cx="45" cy="45" r="44" stroke="white" stroke-width="2"/>
<path d="M16.0099 37.5527C17.1541 36.4504 18.7033 35.8315 20.3182 35.8315C21.9332 35.8315 23.4824 36.4504 24.6265 37.5527L29.8098 42.5592V21.4274C29.8103 20.3882 30.1213 19.3712 30.7053 18.4988C31.2892 17.6264 32.1213 16.9357 33.1015 16.5098C34.0817 16.0839 35.1683 15.9409 36.2305 16.098C37.2927 16.2551 38.2854 16.7056 39.0892 17.3953C39.4867 16.3632 40.201 15.4733 41.1364 14.845C42.0717 14.2166 43.1833 13.8799 44.3221 13.8799C45.4609 13.8799 46.5725 14.2166 47.5078 14.845C48.4432 15.4733 49.1575 16.3632 49.555 17.3953C50.3583 16.7041 51.3512 16.2524 52.4139 16.0945C53.4766 15.9367 54.5639 16.0794 55.5446 16.5056C56.5254 16.9317 57.3578 17.6231 57.9415 18.4964C58.5252 19.3697 58.8353 20.3876 58.8344 21.4274V25.7544C59.6625 25.1517 60.6479 24.7841 61.68 24.6927C62.712 24.6014 63.75 24.7899 64.6775 25.2373C65.6049 25.6846 66.3852 26.373 66.9307 27.2252C67.4762 28.0775 67.7654 29.0599 67.7659 30.0622V51.6363C67.7609 55.324 66.6077 58.9248 64.4563 61.9695C62.305 65.0141 59.2553 67.3615 55.7047 68.7058C52.1541 70.05 48.2672 70.3288 44.5504 69.5058C40.8335 68.6828 37.4592 66.7961 34.867 64.0917L16.0199 45.8766C15.4531 45.33 15.0035 44.6805 14.6967 43.9655C14.3899 43.2505 14.2319 42.484 14.2319 41.7099C14.2319 40.9357 14.3899 40.1692 14.6967 39.4542C15.0035 38.7392 15.4531 38.0898 16.0199 37.5431L16.0099 37.5527ZM17.5875 44.3509L36.4777 62.5981C38.7615 64.9927 41.7388 66.6658 45.0208 67.3988C48.3029 68.1318 51.7372 67.8907 54.8754 66.707C58.0136 65.5233 60.7099 63.4519 62.6122 60.7634C64.5145 58.0749 65.5344 54.8941 65.5388 51.6363V30.0622C65.5388 29.2028 65.1858 28.3786 64.5575 27.7709C63.9291 27.1632 63.0769 26.8218 62.1883 26.8218C61.2997 26.8218 60.4474 27.1632 59.8191 27.7709C59.1908 28.3786 58.8377 29.2028 58.8377 30.0622V40.8477C58.846 40.9943 58.8233 41.1409 58.771 41.2787C58.7187 41.4165 58.6379 41.5426 58.5335 41.6492C58.4291 41.7558 58.3034 41.8407 58.164 41.8987C58.0245 41.9567 57.8744 41.9866 57.7226 41.9866C57.5708 41.9866 57.4206 41.9567 57.2812 41.8987C57.1417 41.8407 57.016 41.7558 56.9116 41.6492C56.8073 41.5426 56.7264 41.4165 56.6741 41.2787C56.6218 41.1409 56.5991 40.9943 56.6074 40.8477V21.4274C56.58 20.5861 56.2152 19.788 55.5901 19.2023C54.9651 18.6165 54.1289 18.2889 53.2585 18.2889C52.3881 18.2889 51.5519 18.6165 50.9269 19.2023C50.3018 19.788 49.937 20.5861 49.9096 21.4274V36.5271C49.9179 36.6737 49.8952 36.8203 49.8429 36.9581C49.7906 37.096 49.7098 37.222 49.6054 37.3286C49.501 37.4352 49.3753 37.5201 49.2359 37.5781C49.0964 37.6361 48.9462 37.666 48.7944 37.666C48.6427 37.666 48.4925 37.6361 48.353 37.5781C48.2136 37.5201 48.0879 37.4352 47.9835 37.3286C47.8791 37.222 47.7983 37.096 47.746 36.9581C47.6937 36.8203 47.671 36.6737 47.6793 36.5271V19.2768C47.6793 18.4174 47.3263 17.5931 46.6979 16.9854C46.0696 16.3777 45.2173 16.0363 44.3287 16.0363C43.4401 16.0363 42.5879 16.3777 41.9595 16.9854C41.3312 17.5931 40.9782 18.4174 40.9782 19.2768V36.5335C40.9865 36.6801 40.9637 36.8267 40.9114 36.9646C40.8591 37.1024 40.7783 37.2284 40.674 37.335C40.5696 37.4416 40.4439 37.5265 40.3044 37.5845C40.165 37.6425 40.0148 37.6725 39.863 37.6725C39.7112 37.6725 39.561 37.6425 39.4216 37.5845C39.2822 37.5265 39.1564 37.4416 39.0521 37.335C38.9477 37.2284 38.8669 37.1024 38.8146 36.9646C38.7623 36.8267 38.7395 36.6801 38.7478 36.5335V21.4274C38.7478 20.568 38.3948 19.7438 37.7665 19.1361C37.1381 18.5284 36.2859 18.187 35.3973 18.187C34.5087 18.187 33.6564 18.5284 33.0281 19.1361C32.3998 19.7438 32.0468 20.568 32.0468 21.4274V44.0785H33.1736C37.6091 44.0828 41.8618 45.7888 44.9982 48.8221C48.1346 51.8555 49.8986 55.9684 49.903 60.2583C49.8874 60.5342 49.7632 60.7938 49.5557 60.9838C49.3483 61.1737 49.0735 61.2796 48.7878 61.2796C48.5021 61.2796 48.2273 61.1737 48.0199 60.9838C47.8125 60.7938 47.6882 60.5342 47.6726 60.2583C47.6682 56.5405 46.1393 52.9763 43.4211 50.3474C40.703 47.7186 37.0176 46.2398 33.1736 46.2356H30.9266C30.6328 46.2308 30.3524 46.1159 30.1445 45.9151L23.059 39.0656C22.5191 38.5444 21.8316 38.1896 21.0833 38.0459C20.335 37.9022 19.5596 37.9762 18.8547 38.2584C18.1499 38.5406 17.5472 39.0184 17.1229 39.6315C16.6986 40.2447 16.4716 40.9657 16.4706 41.7035C16.4656 42.1944 16.5618 42.6813 16.7536 43.1359C16.9453 43.5905 17.2288 44.0035 17.5875 44.3509Z" fill="white"/>
</svg>
