<svg width="90" height="90" viewBox="0 0 90 90" fill="none" xmlns="http://www.w3.org/2000/svg">
<circle cx="45" cy="45" r="44" stroke="white" stroke-width="2"/>
<path d="M66.9708 41.463C67.0451 41.3239 67.1177 41.1849 67.192 41.0458C67.2125 41.0079 67.2283 40.9684 67.241 40.9258C69.78 32.626 69.4546 26.1212 66.2724 21.5929C65.1317 19.9686 63.0303 17.8025 59.499 16.6917C58.9381 16.0613 56.5649 13.5712 52.6813 11.8553C48.6302 10.0668 42.1206 8.83596 34.1084 13.132C27.3065 16.7786 23.851 23.3261 24.1165 32.0683C24.2286 35.7813 24.9776 39.1151 25.6175 41.3429C25.5811 41.3445 25.5448 41.346 25.5084 41.3539C23.3612 41.7932 21.8018 43.7066 21.8018 45.9012C21.8018 48.4608 23.8842 50.5432 26.4438 50.5432C26.6097 50.5432 26.774 50.5322 26.9368 50.5148C26.9462 50.638 26.9557 50.7597 26.9652 50.8813C27.3223 55.3164 29.2625 59.4797 32.4288 62.6049L35.5667 65.7033C35.5651 65.7191 35.5604 65.7333 35.5588 65.7491L35.1433 73.0867L35.1417 73.1198C35.039 74.6809 34.2632 76.1787 33.0134 77.2294C32.9044 77.3211 32.7164 77.4364 32.4652 77.5707C32.4652 77.5707 32.4652 77.5707 32.4652 77.5723C32.59 78.0115 32.7701 78.4176 32.9945 78.792C33.3958 78.5851 33.6992 78.4018 33.8745 78.2548C35.4024 76.9703 36.3504 75.1312 36.4768 73.2099L36.8307 66.9547L39.1233 69.2188C40.283 70.3627 41.8172 70.9932 43.4462 70.9932H48.5575C50.1865 70.9932 51.7206 70.3627 52.8804 69.2188L55.6959 66.438L56.0767 73.1672L56.0799 73.2067C56.2063 75.1296 57.1558 76.9687 58.6837 78.2533C58.8006 78.3512 58.9744 78.465 59.1956 78.5914C59.4611 78.4113 59.7218 78.2248 59.9793 78.0336C60.0994 77.923 60.2163 77.8093 60.3332 77.6924C59.9588 77.5059 59.6886 77.3479 59.5464 77.2278C58.2966 76.1771 57.5208 74.6793 57.4181 73.1167L57.001 65.7476C56.9915 65.5848 56.922 65.441 56.8193 65.3304L59.4721 62.7124C62.7206 59.5066 64.6672 55.2374 64.9563 50.6949C64.961 50.6301 64.9642 50.5638 64.9689 50.499C65.1807 50.5274 65.394 50.5432 65.6088 50.5432C68.1684 50.5432 70.2509 48.4608 70.2509 45.9012C70.2477 43.8314 68.8858 42.0491 66.9708 41.463ZM26.4422 49.2018C24.6221 49.2018 23.14 47.7198 23.14 45.8996C23.14 44.3591 24.2176 43.0145 25.7123 42.678H26.0267C26.2558 43.3779 26.4391 43.8582 26.5196 44.0652C26.5923 45.4319 26.6982 47.2789 26.8341 49.1765C26.7061 49.1923 26.5749 49.2018 26.4422 49.2018ZM25.4531 31.9909C25.2114 23.6927 28.3366 17.744 34.7404 14.3107C40.7697 11.078 46.6062 10.6561 52.0872 13.0561C55.9234 14.7373 58.2445 17.2905 58.5573 17.6492C58.6948 17.842 58.9207 17.9131 59.0724 17.9605C62.2592 18.9559 64.1505 20.904 65.1759 22.3623C68.1005 26.5241 68.3707 32.6165 65.9786 40.4723C65.6215 41.1422 65.2597 41.8327 64.9516 42.4283C64.852 41.8896 64.7667 41.3129 64.743 40.8262C64.615 38.3235 64.2358 34.5994 63.1551 31.0729C61.7947 26.6299 59.6902 23.718 56.9015 22.4176C56.813 22.3766 56.7182 22.356 56.6218 22.356C56.4907 22.356 56.3595 22.3955 56.2458 22.4698C56.0514 22.5993 55.9392 22.8253 55.9487 23.0591C55.9519 23.1207 55.9977 24.5728 54.5994 26.0437C52.2262 28.5433 47.5984 29.1026 44.1351 29.1326C33.9583 29.2195 29.9798 31.6575 28.3667 38.7928C28.3066 39.0582 28.2513 39.3189 28.196 39.5733C27.9638 40.6572 27.7663 41.5846 27.357 42.422C26.7156 40.4818 25.5843 36.4781 25.4531 31.9909ZM58.5289 61.7565L51.9403 68.2613C51.0333 69.1572 49.8325 69.6502 48.5591 69.6502H43.4478C42.1743 69.6502 40.9735 69.1572 40.0666 68.2613L33.3705 61.649C30.4333 58.7482 28.6321 54.8851 28.3003 50.7707C28.1091 48.396 27.9606 45.8964 27.8674 44.1363C28.8738 42.8249 29.1835 41.3808 29.509 39.8561C29.5627 39.6049 29.6164 39.3505 29.6765 39.0898C30.9515 33.446 33.5396 30.5641 44.1493 30.4725C49.6003 30.4267 53.4586 29.2322 55.6138 26.9222C56.576 25.8921 56.9884 24.8445 57.1637 24.0893C59.194 25.3991 60.7756 27.875 61.8753 31.4647C62.9149 34.8601 63.2815 38.4673 63.4063 40.8942C63.4632 42.0175 63.7934 43.5012 63.9577 44.1853C63.9404 44.2406 63.9277 44.2975 63.9261 44.3591C63.8408 46.6406 63.735 48.8005 63.6196 50.6048C63.3494 54.8219 61.5419 58.7813 58.5289 61.7565ZM65.6057 49.2018C65.4161 49.2018 65.2296 49.1844 65.0448 49.1528C65.119 47.8035 65.187 46.3373 65.247 44.7699C65.2628 44.7462 65.2786 44.7209 65.2928 44.6941C65.2992 44.6814 65.751 43.7935 66.3309 42.6796C67.8208 43.0129 68.9079 44.3417 68.9079 45.9012C68.9079 47.7198 67.4274 49.2018 65.6057 49.2018Z" fill="white"/>
<path d="M45.8948 53.5138C46.8381 53.5138 47.6802 53.1362 48.0926 52.5279C48.2475 52.2988 48.1874 51.9859 47.9583 51.8311C47.7292 51.6762 47.4164 51.7363 47.2615 51.9654C47.0783 52.2356 46.5853 52.5105 45.8964 52.5105C45.2075 52.5105 44.7146 52.2371 44.5313 51.9654C44.3765 51.7363 44.0636 51.6762 43.8345 51.8311C43.6054 51.9859 43.5454 52.2988 43.7002 52.5279C44.1094 53.1362 44.9516 53.5138 45.8948 53.5138Z" fill="white"/>
<path d="M51.7364 57.8917C51.7285 57.8838 51.7237 57.8744 51.7158 57.868C50.4534 56.6341 47.6584 56.3781 46.1037 56.3354C44.5853 56.2944 41.8772 56.3939 40.5136 57.4841C40.4504 57.4967 40.3904 57.5189 40.3351 57.5489C39.6194 57.9597 39.0916 58.9061 38.9573 60.02C38.823 61.1323 39.1106 62.1783 39.7078 62.7471C39.7221 62.7613 39.7394 62.7724 39.7552 62.785C41.2278 64.0901 44.3104 64.3192 46.0342 64.3381C47.7848 64.3571 50.9401 64.1912 52.4126 62.864C52.4995 62.7866 52.5548 62.6886 52.5817 62.5828C52.9751 61.9602 53.0636 60.9427 52.8076 59.8952C52.6038 59.0562 52.212 58.3357 51.7364 57.8917ZM51.8296 61.9255C51.768 61.9492 51.7079 61.9839 51.6558 62.0313C50.801 62.8008 48.7044 63.2432 46.0484 63.2148C43.3908 63.1863 41.3052 62.6981 40.4678 61.9113C40.4299 61.8749 40.3857 61.8481 40.3414 61.8244C40.155 61.4388 40.0381 60.8558 40.1218 60.1622C40.2229 59.3201 40.5753 58.7039 40.9086 58.4163C40.9703 58.3958 41.0287 58.3626 41.0809 58.3168C41.8519 57.6421 43.7195 57.2771 46.0784 57.3419C48.4373 57.4067 50.2828 57.8728 51.0159 58.5885C51.0475 58.6185 51.0807 58.6422 51.117 58.6628C51.3904 58.9677 51.6716 59.4733 51.8343 60.1369C52.0176 60.889 51.9686 61.5321 51.8296 61.9255Z" fill="white"/>
<path d="M58.1095 39.5912C54.2306 38.4678 51.7294 39.569 51.6252 39.6164C51.3739 39.7302 51.2618 40.0272 51.3755 40.2785C51.4893 40.5313 51.7863 40.6434 52.0391 40.5313C52.0612 40.5218 54.3317 39.5422 57.8314 40.555C57.8788 40.5692 57.9246 40.5755 57.972 40.5755C58.1901 40.5755 58.3907 40.4333 58.4539 40.2121C58.5298 39.9467 58.3765 39.667 58.1095 39.5912Z" fill="white"/>
<path d="M39.7507 40.5309C40.0035 40.6447 40.2989 40.5325 40.4143 40.2797C40.528 40.0269 40.4174 39.7298 40.1646 39.6145C40.0604 39.5671 37.5592 38.4658 33.6803 39.5892C33.4133 39.6666 33.26 39.9447 33.3375 40.2117C33.4007 40.4314 33.6013 40.5751 33.8194 40.5751C33.8652 40.5751 33.9126 40.5688 33.96 40.5546C37.4518 39.5434 39.7191 40.5167 39.7507 40.5309Z" fill="white"/>
<path d="M37.4928 41.8691C36.6049 41.8691 35.8828 42.8993 35.8828 44.1665C35.8828 45.4336 36.6049 46.4638 37.4928 46.4638C38.3808 46.4638 39.1029 45.4336 39.1029 44.1665C39.1044 42.8993 38.3808 41.8691 37.4928 41.8691Z" fill="white"/>
<path d="M55.5075 41.8691C54.6195 41.8691 53.8975 42.8993 53.8975 44.1665C53.8975 45.4336 54.6195 46.4638 55.5075 46.4638C56.3954 46.4638 57.1175 45.4336 57.1175 44.1665C57.1175 42.8993 56.3954 41.8691 55.5075 41.8691Z" fill="white"/>
</svg>
